<?xml version="1.0" standalone="no"?>
<!DOCTYPE svg PUBLIC "-//W3C//DTD SVG 1.1//EN" "http://www.w3.org/Graphics/SVG/1.1/DTD/svg11.dtd" >
<svg xmlns="http://www.w3.org/2000/svg" xmlns:xlink="http://www.w3.org/1999/xlink" version="1.1">
<metadata>
Created by FontForge 20170731 at Wed Jun 29 03:54:32 2016
 By Aleksey,,,
Copyright (c)  by Stefan Peev, Context Ltd, 2016, with Reserved Font Name "Veleka". Veleka is complete modification of Charis SIL. Copyright (c) by SIL International, 1997-2014 . All rights reserved.
</metadata>
<defs>
<font id="Veleka-Regular" horiz-adv-x="0" >
  <font-face 
    font-family="Veleka"
    font-weight="400"
    font-stretch="normal"
    units-per-em="1000"
    panose-1="2 0 5 3 6 0 0 2 0 4"
    ascent="800"
    descent="-200"
    x-height="482"
    cap-height="671"
    bbox="-693 -533 3000 1270"
    underline-thickness="58"
    underline-position="-344"
    unicode-range="U+000D-1F6BB"
  />
<missing-glyph horiz-adv-x="586" 
d="M50 0v530h486v-530h-486zM69 74q65 143 202 281q-40 18 -77 25q-72 -123 -125 -306zM348 313q-144 -73 -272 -241q178 125 340 183q-36 38 -68 58zM97 72h420q-9 58 -40 101q-216 -29 -380 -101z" />
    <glyph glyph-name="f_f" unicode="ff" horiz-adv-x="651" 
d="M251 688h-2q-59 -32 -59 -150v-64h233q0 83 28 145.5t81 93.5q39 24 95 24q61 0 81 -38q6 -11 6 -22q0 -19 -10.5 -32t-25.5 -18q-8 -3 -9 -4l-92 65q-59 -32 -59 -150v-64h124v-51h-124v-359q0 -19 21 -21l59 -3v-39h-243v39l49 3q21 2 21 21v359h-233v-359
q0 -19 21 -21l59 -3v-39h-243v39l49 3q21 2 21 21v359h-64v35l64 16q0 83 28 145.5t81 93.5q39 24 95 24q62 0 80 -38q6 -11 6 -21q0 -19 -11 -32.5t-26 -18.5q-8 -3 -9 -4z" />
    <glyph glyph-name="f_i" unicode="fi" horiz-adv-x="628" 
d="M251 688v-2q-58 -32 -58 -150l-1 -64h216l75 19h41v-429q0 -19 21 -21l50 -3v-39h-234v39l49 3q21 2 21 21v359h-239v-359q0 -19 21 -21l59 -3v-39h-243v39l49 3q21 2 21 21v359h-64v35l64 18q0 123 68 199q57 62 136 62q61 0 81 -37q6 -10 6 -22q0 -19 -10.5 -32
t-25.5 -18l-10 -3q-4 4 -25 18q-48 33 -68 47zM483 706q26 0 44 -17.5t18 -43.5t-18 -44t-44 -18t-43.5 18t-17.5 44t17.5 43.5t43.5 17.5z" />
    <glyph glyph-name="f_l" unicode="fl" horiz-adv-x="623" 
d="M522 63h1q0 -7 7 -14t14 -7l53 -3v-39h-242v39l53 3q7 0 14.5 7t7.5 14v595h-43q-8 -25 -36 -32q-5 -1 -7 -3q-4 4 -25 18q-48 33 -68 47q-58 -32 -58 -150l-1 -64h124v-51h-124v-359q0 -19 21 -21l59 -3v-39h-243v39l49 3q21 2 21 21v359h-64v35l64 18q0 123 68 199
q57 62 136 62q62 0 80 -36l98 36h41v-674z" />
    <glyph glyph-name="f_f_i" unicode="ffi" horiz-adv-x="956" 
d="M577 688l-2 -1q-59 -32 -59 -150v-64h216l75 19h41v-429q0 -19 21 -21l50 -3v-39h-234v39l49 3q21 2 21 21v359h-239v-359q0 -19 21 -21l59 -3v-39h-243v39l49 3q21 2 21 21v359h-233v-359q0 -19 21 -21l59 -3v-39h-243v39l49 3q21 2 21 21v359h-64v35l64 16
q0 83 28 145.5t81 93.5q39 24 95 24q62 0 80 -38q6 -10 6 -21q0 -19 -11 -32.5t-26 -18.5q-8 -3 -9 -4l-92 65q-59 -32 -59 -150v-64h233q0 83 28 145.5t81 93.5q39 24 95 24q61 0 81 -38q6 -10 6 -21q0 -19 -10.5 -32t-25.5 -18q-8 -3 -9 -4zM807 707q26 0 44 -17.5
t18 -43.5t-18 -44t-44 -18q-27 0 -44 17.5t-17 44.5t17 44t44 17z" />
    <glyph glyph-name="f_f_l" unicode="ffl" horiz-adv-x="949" 
d="M629 737q61 0 80 -37l98 37h40v-674q0 -7 7.5 -13.5t14.5 -7.5l53 -3v-39h-242v39l53 3q7 1 14.5 7.5t7.5 13.5v595h-43q-10 -26 -36 -32q-5 -1 -7 -3l-92 65q-59 -32 -59 -150v-64h124v-51h-124v-359q0 -19 21 -21l59 -3v-39h-243v39l49 3q21 2 21 21v359h-233v-359
q0 -19 21 -21l59 -3v-39h-243v39l49 3q21 2 21 21v359h-64v35l64 16q0 83 28 145.5t81 93.5q39 24 95 24q62 0 80 -38q6 -11 6 -21q0 -19 -11 -32.5t-26 -18.5q-8 -3 -9 -4l-92 65q-59 -32 -59 -150v-64h233q0 83 28 145.5t81 93.5q39 24 95 24z" />
    <glyph glyph-name="uniFB05" unicode="&#x17f;t" horiz-adv-x="658" 
d="M194 64v-1q0 -9 6 -15.5t15 -6.5l59 -3v-39h-243v39l49 3q21 2 21 21v412q0 123 68 199q57 62 136 62q61 0 81 -37q6 -10 6 -22q0 -19 -10.5 -32t-25.5 -18l-10 -3q-4 4 -25 18q-48 33 -68 47q-59 -32 -59 -150v-474zM31 432v50h141v-50h-141zM570 44h-1q38 0 69 17v-40
q-70 -33 -134 -33q-57 0 -82 26.5t-25 85.5v332h-64v33l68 32l45 106h44v-121h141v-50h-141v-279q0 -53 17.5 -81t62.5 -28z" />
    <glyph glyph-name=".notdef" horiz-adv-x="586" 
d="M50 0v530h486v-530h-486zM69 74q65 143 202 281q-40 18 -77 25q-72 -123 -125 -306zM348 313q-144 -73 -272 -241q178 125 340 183q-36 38 -68 58zM97 72h420q-9 58 -40 101q-216 -29 -380 -101z" />
    <glyph glyph-name=".null" 
 />
    <glyph glyph-name="nonmarkingreturn" unicode="&#xd;" horiz-adv-x="500" 
 />
    <glyph glyph-name="space" unicode=" " horiz-adv-x="292" 
 />
    <glyph glyph-name="exclam" unicode="!" horiz-adv-x="337" 
d="M169 111q26 0 44 -17.5t18 -43.5t-18 -44t-44 -18t-43.5 18t-17.5 44q0 27 17 44t44 17zM169 687l-1 -1q61 0 61 -65q0 -6 -5 -76q-6 -70 -15.5 -189.5t-14.5 -175.5h-49q-2 26 -16 178.5t-20 239.5q-1 14 -1 24q0 65 61 65z" />
    <glyph glyph-name="quotedbl" unicode="&#x22;" horiz-adv-x="333" 
d="M43 665q0 49 43 49q42 0 42 -49l-34 -244h-16zM205 665q0 49 42 49q43 0 43 -49l-35 -244h-16z" />
    <glyph glyph-name="numbersign" unicode="#" horiz-adv-x="743" 
d="M324 421l-49 -143h145l49 143h-145zM524 421l-47 -143h161v-50h-179l-84 -251l-50 16l78 235h-145l-85 -251l-49 17l80 234h-142v50h158l49 143h-162v51h179l80 236l51 -16l-77 -220h146l79 236l53 -16l-76 -220h140v-51h-158z" />
    <glyph glyph-name="dollar" unicode="$" horiz-adv-x="562" 
d="M414 171q0 50 -28.5 76t-79.5 43v-237q48 7 78 37.5t30 80.5zM261 618q-42 -9 -68 -38t-26 -76q0 -44 25 -67t69 -40v221zM307 384l-1 -1q46 -13 74.5 -25t60.5 -34t47.5 -55.5t15.5 -80.5q0 -108 -118 -166q-43 -21 -81 -24v-103h-46v103q-134 8 -202 26v170h50l18 -112
q31 -35 134 -35v253q-124 27 -169 109q-17 32 -17 75q0 105 103 157q39 19 83 27v75h46v-72q73 0 171 -23v-158h-52l-15 106q-23 26 -102 26v-238z" />
    <glyph glyph-name="percent" unicode="%" horiz-adv-x="859" 
d="M262 477l-1 -1q0 124 -41 159q-14 12 -35 12q-79 0 -79 -172q0 -122 44 -159q15 -12 35 -12q57 0 72 101q5 35 5 72zM750 193h-1q0 125 -42 160q-15 12 -34 12q-79 0 -79 -172q0 -126 44 -161q15 -12 35 -12q57 0 72 101q5 35 5 72zM337 476q0 -146 -86 -195
q-28 -16 -67 -16q-79 0 -116.5 59t-37.5 151q0 146 86 195q28 16 68 16q79 0 116 -59t37 -151zM248 -1h-63l425 671h62zM826 193h-3q0 -147 -86 -194q-28 -16 -66 -16q-59 0 -94.5 35t-49.5 92q-9 37 -9 83q0 145 87 194q28 16 68 16q78 0 115.5 -59t37.5 -151z" />
    <glyph glyph-name="ampersand" unicode="&#x26;" horiz-adv-x="699" 
d="M212 333q-72 -47 -72 -124q0 -52 24 -89t64 -55q27 -12 57 -12q43 0 72 14.5t61 41.5zM272 392h1q43 21 67 52t24 83q0 72 -53 99q-18 9 -42 9q-41 0 -65.5 -26t-24.5 -68q0 -43 33 -86q15 -20 60 -63zM451 74l-3 -3q-36 -28 -57 -42.5t-61.5 -29t-84.5 -14.5
q-68 0 -117.5 33t-73.5 86q-16 35 -16 80q0 120 134 176l-22 23q-33 33 -51 79q-10 23 -10 53q0 59 32 99t83 58q34 12 75 12q58 0 100 -24.5t62 -65.5q14 -28 14 -60q0 -36 -12 -65t-35.5 -49.5t-45.5 -33.5t-54 -27l168 -181q30 37 49 85q7 19 8 31q0 5 -6 11.5t-11 7.5
l-54 8v42h205v-42l-72 -11q-23 -85 -85 -169l81 -93l89 -5v-43h-184v24z" />
    <glyph glyph-name="quotesingle" unicode="'" horiz-adv-x="170" 
d="M43 665q0 49 42 49q43 0 43 -49l-34 -244h-16z" />
    <glyph glyph-name="parenleft" unicode="(" horiz-adv-x="375" 
d="M152 288q0 -78 8 -137.5t27.5 -115t59 -89.5t96.5 -44v-44q-76 9 -131.5 44.5t-88.5 93.5t-48.5 130.5t-15.5 161.5q0 277 151 382q55 38 133 47v-44q-57 -10 -96.5 -44t-59 -89t-27.5 -114.5t-8 -137.5z" />
    <glyph glyph-name="parenright" unicode=")" horiz-adv-x="375" 
d="M224 288v1q0 78 -7.5 137.5t-27.5 114.5t-59 89t-96 44v44q147 -17 215.5 -131.5t68.5 -297.5q0 -89 -15.5 -161.5t-48.5 -131t-88.5 -94t-131.5 -44.5v44q57 10 96 44t59 89.5t27.5 115t7.5 137.5z" />
    <glyph glyph-name="asterisk" unicode="*" horiz-adv-x="500" 
d="M198 363l-69 -26l2 74l101 81l12 -9zM228 506l-130 7l-45 57l71 21l108 -71zM302 363l-46 120l12 9l101 -81l2 -74zM257 530h-14l-34 125l41 61l42 -61zM402 513l-129 -7l-5 14l108 71l71 -21z" />
    <glyph glyph-name="plus" unicode="+" horiz-adv-x="1000" 
d="M531 269v-269h-62v269h-269v62h269v269h62v-269h269v-62h-269z" />
    <glyph glyph-name="comma" unicode="," horiz-adv-x="279" 
d="M123 122l2 1q43 0 63 -31t20 -81q0 -112 -109 -163q-31 -15 -66 -18v36q56 13 84 45.5t26 95.5h-63q-18 18 -18 46q0 43 37 63q11 6 24 6z" />
    <glyph glyph-name="hyphen" unicode="-" horiz-adv-x="319" 
d="M44 203v75h232v-75h-232z" />
    <glyph glyph-name="period" unicode="." horiz-adv-x="279" 
d="M196 55q0 -28 -19.5 -47.5t-48.5 -19.5q-28 0 -47.5 19t-19.5 48q0 42 41 61q12 6 26 6q29 0 48.5 -19.5t19.5 -47.5z" />
    <glyph glyph-name="slash" unicode="/" horiz-adv-x="490" 
d="M64 -93h-64l426 764h64z" />
    <glyph glyph-name="zero" unicode="0" horiz-adv-x="562" 
d="M417 335q0 32 -2 63.5t-10 77.5t-21.5 79t-40.5 57.5t-63 24.5q-44 0 -73.5 -32.5t-41.5 -87t-16 -95.5t-4 -87q0 -33 1.5 -64t9.5 -77t21.5 -79t40.5 -57t63 -24q133 0 136 301zM522 335q0 -61 -12.5 -118.5t-38.5 -112t-75 -88t-115 -33.5q-65 0 -113.5 32t-75.5 85.5
t-39.5 112.5t-12.5 122q0 59 12 117t38 112.5t75.5 88.5t115.5 34t114.5 -32t74.5 -86.5t38.5 -112t13.5 -121.5z" />
    <glyph glyph-name="one" unicode="1" horiz-adv-x="562" 
d="M330 71q0 -9 6.5 -15.5t15.5 -6.5l94 -4v-45h-338v45l101 4q9 0 15.5 6.5t6.5 15.5v531l-155 -27v45l216 67h38v-616z" />
    <glyph glyph-name="two" unicode="2" horiz-adv-x="562" 
d="M121 479l-2 -2q-27 0 -43.5 16t-16.5 43q0 62 66 106q65 43 154 43q75 0 128 -30.5t78 -84.5q17 -37 17 -79q0 -63 -51 -136q-60 -84 -212 -202q-58 -46 -88 -70h296l18 86h49v-170h-469v67q129 106 141 116q64 52 111 102t72 97q26 49 26 101t-24 88.5t-64 52.5
q-24 10 -54 10q-40 0 -75 -22q-5 -4 -8 -4v-111q-17 -17 -49 -17z" />
    <glyph glyph-name="three" unicode="3" horiz-adv-x="562" 
d="M490 514v-1q0 -118 -154 -162q115 -3 163 -91q17 -31 17 -71q0 -92 -77 -149q-77 -58 -185 -58q-66 0 -117.5 20.5t-76.5 58.5q-13 20 -13 40q0 24 16.5 39t42.5 15q24 0 34 -7l30 -89q48 -26 87 -26q53 0 90.5 28t54.5 71q11 30 11 59q0 63 -41.5 94.5t-108.5 31.5
q-23 0 -61 -4v62q2 0 12 -0.5t13 -0.5q110 0 147 70q13 23 13 57q0 59 -36 95t-95 36q-52 0 -89 -28v-100l-5 -2q-5 -3 -10 -5q-12 -6 -31 -6q-26 0 -42 15t-16 41q0 57 66 98q66 42 156 42q68 0 116.5 -27t72.5 -74q16 -31 16 -72z" />
    <glyph glyph-name="four" unicode="4" horiz-adv-x="562" 
d="M344 559l-225 -292h225v292zM438 199v-215h-94v215h-304v69l328 419h70v-420h85v-68h-85z" />
    <glyph glyph-name="five" unicode="5" horiz-adv-x="562" 
d="M415 193v1q0 79 -45.5 122t-125.5 43q-34 0 -104 -17q-27 -7 -55 -18v347h386v-85h-315v-190q2 0 13 4q66 22 123 22q159 0 210 -119q16 -36 16 -86q0 -84 -44 -137.5t-117 -77.5q-53 -18 -121 -18q-56 0 -103 21.5t-72 56.5q-15 21 -15 40q0 26 17.5 41t45.5 15
q16 0 26 -4l38 -92q29 -29 77 -29q57 0 96.5 29.5t57.5 76.5q11 30 11 54z" />
    <glyph glyph-name="six" unicode="6" horiz-adv-x="562" 
d="M421 216q0 73 -36 114.5t-105 41.5q-67 0 -135 -50q-2 -36 -2 -55q0 -164 75 -214q26 -17 62 -17q71 0 106 50t35 130zM148 374l-2 -1q74 63 167 63q72 0 121.5 -34.5t71.5 -91.5q15 -39 15 -82q0 -84 -40.5 -142t-107.5 -85q-43 -18 -95 -18q-169 0 -221 163
q-18 58 -18 141q0 140 61 234.5t169 137.5q76 29 170 29v-62l-34 1q-152 3 -226 -146q-23 -45 -31 -107z" />
    <glyph glyph-name="seven" unicode="7" horiz-adv-x="562" 
d="M193 17v-33h-106l330 602h-308l-16 -91h-51v176h479v-56z" />
    <glyph glyph-name="eight" unicode="8" horiz-adv-x="562" 
d="M133 188q0 -70 39 -110t109 -40q95 0 130 80q10 21 10 48q0 58 -51 92q-12 8 -25 15t-30 14.5t-28 12t-33 13t-31 12.5q-90 -48 -90 -137zM330 372l1 -1q73 54 73 134q0 58 -33 94t-89 36q-38 0 -65.5 -20t-40.5 -51q-9 -21 -9 -43q0 -50 43 -86q36 -31 120 -63zM523 181
l-1 -1q0 -87 -69 -143q-70 -56 -172 -56q-82 0 -139.5 31t-84.5 87q-17 37 -17 78q0 66 39 104t104 64q-75 29 -106 98q-10 23 -10 54q0 67 35 112t92 64q38 13 87 13q69 0 120.5 -28t76.5 -77q17 -32 17 -67q0 -81 -81 -138q-22 -16 -40 -24q100 -37 135 -105
q14 -30 14 -66z" />
    <glyph glyph-name="nine" unicode="9" horiz-adv-x="562" 
d="M141 455q0 -73 36 -114.5t105 -41.5q67 0 135 50q2 36 2 55q0 164 -75 214q-26 17 -62 17q-71 0 -106 -50t-35 -130zM415 297v1q-73 -63 -167 -63q-72 0 -121.5 33.5t-72.5 90.5q-15 37 -15 83q0 107 70 177q68 68 171 68q171 0 223 -163q18 -58 18 -141
q0 -140 -61.5 -234t-169.5 -137q-76 -29 -169 -29v62l34 -1q81 -1 138 39.5t90 106.5q25 48 32 107z" />
    <glyph glyph-name="colon" unicode=":" horiz-adv-x="279" 
d="M196 55q0 -28 -19.5 -47.5t-48.5 -19.5q-28 0 -47.5 19t-19.5 48q0 42 41 61q12 6 26 6q29 0 48.5 -19.5t19.5 -47.5zM196 427q0 -28 -19.5 -47.5t-48.5 -19.5q-28 0 -47.5 19t-19.5 48q0 42 41 61q12 6 26 6q29 0 48.5 -19.5t19.5 -47.5z" />
    <glyph glyph-name="semicolon" unicode=";" horiz-adv-x="279" 
d="M123 122l2 1q43 0 63 -31t20 -81q0 -112 -109 -163q-31 -15 -66 -18v36q56 13 84 45.5t26 95.5h-63q-18 18 -18 46q0 43 37 63q11 6 24 6zM197 428q0 -42 -41 -61q-12 -6 -26 -6q-28 0 -47.5 19.5t-19.5 47.5t19.5 47.5t48.5 19.5q28 0 47 -19t19 -48z" />
    <glyph glyph-name="less" unicode="&#x3c;" horiz-adv-x="1000" 
d="M200 269v62l600 230v-62l-536 -199l536 -199v-62z" />
    <glyph glyph-name="equal" unicode="=" horiz-adv-x="1000" 
d="M200 178v62h600v-62h-600zM200 360v62h600v-62h-600z" />
    <glyph glyph-name="greater" unicode="&#x3e;" horiz-adv-x="1000" 
d="M200 39v62l536 199l-536 199v62l600 -230v-62z" />
    <glyph glyph-name="question" unicode="?" horiz-adv-x="485" 
d="M115 535l1 -1q-65 0 -65 54q0 63 88 90q30 9 71 9q69 0 118 -28t73 -77q16 -32 16 -74q0 -45 -16 -81t-47 -61.5t-59 -41.5t-68 -33v-111h-56v145q94 33 131 109q14 30 14 66q0 138 -143 138l-41 -102h-8q-4 0 -5 -1h-4zM140 49q0 27 17 44t44 17q26 0 44 -18t18 -44
t-18 -43.5t-44 -17.5t-43.5 18t-17.5 44z" />
    <glyph glyph-name="at" unicode="@" horiz-adv-x="936" 
d="M364 229l-1 2q0 -108 78 -108q49 0 102 65l40 207q3 15 -8 29t-25 21q-12 6 -25 6q-60 0 -97 -38t-53 -97q-11 -42 -11 -87zM772 -63v-1q-79 -42 -147.5 -65t-153.5 -23q-165 0 -279 105q-73 67 -103 173q-15 52 -15 114q0 145 63 245.5t170 155.5q100 51 216 51
q117 0 197 -47.5t118 -133.5q26 -61 26 -136q0 -141 -84 -235q-46 -53 -107 -74q-29 -9 -54 -9q-41 0 -59.5 20.5t-18.5 62.5q-38 -39 -75 -61q-36 -21 -70 -21q-86 0 -116 96q-9 30 -9 67q0 112 77 193q75 79 172 79q48 0 98 -27l18 23h56q-2 -7 -24 -102l-12 -54
q-20 -83 -32 -142q-4 -15 -4 -31q0 -47 41 -47q22 0 49 18q58 40 88 133q15 48 15 108q0 100 -48 166t-129 93q-51 17 -102 17q-170 0 -279 -111q-110 -112 -110 -279q0 -122 54.5 -207t147.5 -125q65 -27 147 -27q134 0 264 74z" />
    <glyph glyph-name="A" unicode="A" horiz-adv-x="673" 
d="M314 558l-97 -262h195zM431 0v44l58 5q4 0 8 6t2 11l-69 183h-231l-66 -180q-2 -6 3 -13t11 -7l59 -5v-43h-201v43l58 12l233 632h75l232 -617q3 -11 6.5 -14.5t14.5 -5.5l45 -8v-43h-238z" />
    <glyph glyph-name="B" unicode="B" horiz-adv-x="604" 
d="M525 510h-1q0 -115 -144 -154q124 0 169 -84q17 -31 17 -74q0 -102 -70 -150t-184 -48h-280v43l53 4q21 2 21 22v533q0 20 -21 22l-53 4v43h268q225 0 225 -161zM267 49h-1q94 0 141.5 30.5t47.5 110.5q0 132 -161 132q-15 0 -46 -3t-44 -3v-264l24 -2q7 -1 21 -1h18z
M240 368q86 0 130.5 30.5t44.5 104.5q0 122 -154 122q-10 0 -29 -1.5t-28 -1.5v-253h14q8 0 11 -1h11z" />
    <glyph glyph-name="C" unicode="C" horiz-adv-x="626" 
d="M389 687l4 -1q14 0 29 -1t26 -2t26.5 -4.5t23.5 -5t24.5 -6t22.5 -6t24.5 -7.5t22.5 -7v-157h-60l-15 91q-1 4 -3 8t-3.5 6t-6 5t-6.5 4l-7 3.5l-7 3.5q-42 20 -87 20q-86 0 -142 -45.5t-81 -121.5q-18 -56 -18 -127q0 -214 147 -278q47 -21 105 -21q45 0 73 14q6 3 7 3
q14 6 19 20l23 109h58v-162q-15 -8 -63 -20q-72 -19 -137 -19q-215 0 -308 180q-41 80 -41 173q0 154 97 253q96 98 253 98z" />
    <glyph glyph-name="D" unicode="D" horiz-adv-x="695" 
d="M289 49q255 0 255 286q0 288 -260 288h-76v-575zM657 337h1q0 -132 -62 -214.5t-172 -110.5q-50 -12 -113 -12h-278v43l53 4q22 2 22 22v533q0 20 -22 22l-53 4v43h258q126 0 213 -47.5t126 -137.5q27 -63 27 -149z" />
    <glyph glyph-name="E" unicode="E" horiz-adv-x="583" 
d="M376 306h1q0 5 -6.5 11.5t-11.5 6.5h-150v-275h253q6 0 11 6.5t6 12.5l18 99h54v-167h-519v43l52 4q22 2 22 22v533q0 20 -22 22l-52 4v43h486v-149h-60l-15 82q-1 7 -6 13t-12 6h-217v-249h150q6 0 12 5.5t6 11.5l10 69h51v-223h-51z" />
    <glyph glyph-name="F" unicode="F" horiz-adv-x="541" 
d="M452 512l-14 92q-2 18 -17 18h-213v-260h153q6 0 11.5 6t6.5 12l9 70h50v-225h-50l-9 70q-1 5 -6.5 11.5t-11.5 6.5h-153v-244q0 -20 21 -22l67 -4v-43h-263v43l53 4q21 2 21 22v533q0 20 -21 22l-61 4v43h486v-159h-59z" />
    <glyph glyph-name="G" unicode="G" horiz-adv-x="694" 
d="M598 24v-1q-107 -40 -210 -40q-161 0 -258 107q-91 100 -91 246q0 123 56.5 205.5t154.5 119.5q66 25 151 25q66 0 150 -22l46 -12v-162h-60l-16 90q-1 16 -19 24l-17 8q-43 18 -87 18q-88 0 -145 -44.5t-82 -120.5q-18 -54 -18 -124q0 -216 151 -281q48 -21 106 -21
q37 0 78 13q8 3 9 3v200q0 19 -21 21l-67 5v43h261v-43l-51 -5q-21 -2 -21 -21v-231z" />
    <glyph glyph-name="H" unicode="H" horiz-adv-x="743" 
d="M458 0v43l57 4q8 1 14.5 7.5t6.5 14.5v258h-329v-258q0 -20 21 -22l57 -4v-43h-253v43l52 4q22 2 22 22v533q0 19 -22 21l-52 4v44h253v-44l-57 -4q-21 -2 -21 -21v-225h329v225q0 8 -6.5 14t-14.5 7l-57 4v44h253v-44l-52 -4q-22 -2 -22 -21v-533q0 -20 22 -22l52 -4
v-43h-253z" />
    <glyph glyph-name="I" unicode="I" horiz-adv-x="330" 
d="M33 0v43l60 4q21 2 21 22v533q0 19 -21 21l-60 4v44h264v-44l-61 -4q-8 -1 -14.5 -7t-6.5 -14v-533q0 -8 6.5 -14.5t14.5 -7.5l61 -4v-43h-264z" />
    <glyph glyph-name="J" unicode="J" horiz-adv-x="484" 
d="M153 35v-1q39 0 65 16.5t38.5 48t17.5 66t5 80.5v356q0 20 -21 22l-63 4v43h264v-43l-58 -4q-8 -1 -14.5 -7.5t-6.5 -14.5v-349q0 -130 -51.5 -199.5t-168.5 -69.5q-60 0 -121 23q-13 5 -14 6v171h60l22 -122q4 -26 46 -26z" />
    <glyph glyph-name="K" unicode="K" horiz-adv-x="638" 
d="M463 0v32l-186 267h-70v-229q0 -20 22 -22l57 -4v-43h-254v43l53 4q21 2 21 22v533q0 20 -21 22l-53 4v43h254v-43l-57 -4q-22 -2 -22 -22v-262h36l218 266q3 5 -0.5 10.5t-7.5 6.5l-51 5v43h212v-43q-26 -1 -56 -6q-10 -1 -12 -3l-204 -244l224 -328l72 -5v-43h-175z
" />
    <glyph glyph-name="L" unicode="L" horiz-adv-x="530" 
d="M27 0v43l58 4q21 2 21 22v533q0 20 -21 22l-58 4v43h255v-43l-53 -4q-22 -2 -22 -22v-553h210q8 0 14.5 5t7.5 12l16 120h58v-186h-486z" />
    <glyph glyph-name="M" unicode="M" horiz-adv-x="875" 
d="M593 0v43l53 4q22 2 22 22v551l-230 -620h-50l-222 611v-542q0 -20 22 -22l57 -4v-43h-216v43l57 4q21 2 21 22v533q0 20 -21 22l-57 4v43h224v-27l181 -491l181 488v30h230v-43l-54 -4q-22 -2 -22 -22v-533q0 -20 22 -22l54 -4v-43h-252z" />
    <glyph glyph-name="N" unicode="N" horiz-adv-x="721" 
d="M636 624q-21 -2 -21 -22v-602h-78l-372 560v-491q0 -20 21 -22l57 -4v-43h-216v43l57 4q22 2 22 22v533q0 20 -22 22l-59 4v43h198v-25l333 -503v459q0 8 -6.5 14.5t-14.5 7.5l-57 4v43h214v-43z" />
    <glyph glyph-name="O" unicode="O" horiz-adv-x="730" 
d="M576 337q0 71 -19.5 134t-68.5 110.5t-120 47.5t-121 -47t-71 -111t-21 -134q0 -51 12 -101.5t36 -95.5t65.5 -73t95.5 -28t96 28t66.5 73t37 95.5t12.5 101.5zM693 337q0 -145 -93.5 -248.5t-233.5 -103.5t-233.5 103.5t-93.5 248.5t93.5 247.5t233.5 102.5
t233.5 -102.5t93.5 -247.5z" />
    <glyph glyph-name="P" unicode="P" horiz-adv-x="579" 
d="M264 301q172 0 172 167q0 154 -177 154h-32q-12 0 -19 -1v-315q8 0 27 -2.5t29 -2.5zM540 469h1q0 -82 -43.5 -133.5t-115.5 -72.5q-44 -12 -91 -12h-12q-24 0 -62 2q-7 0 -9 2v-186q0 -20 21 -22l66 -4v-43h-263v43l53 4q22 2 22 22v533q0 20 -22 22l-60 4v43h239
q52 0 92.5 -5.5t76 -19t58.5 -36t36 -58t13 -83.5z" />
    <glyph glyph-name="Q" unicode="Q" horiz-adv-x="738" 
d="M582 335l1 -2q0 96 -30 166.5t-88 105.5q-41 24 -96 24q-105 0 -161 -88q-51 -79 -51 -206q0 -95 30.5 -166t88.5 -107q40 -24 94 -24q103 0 160 89q52 82 52 208zM511 -183v-2q-193 0 -193 168q-97 15 -162 71t-96 144q-21 60 -21 134q0 149 89 250q93 103 240 103
q149 0 242 -102q90 -98 90 -250q0 -211 -160 -305q-52 -31 -116 -41q1 -59 37 -90t101 -31q35 0 85 8q9 2 12 3v-43q-81 -17 -148 -17z" />
    <glyph glyph-name="R" unicode="R" horiz-adv-x="648" 
d="M257 347h-1q86 0 129 32t43 110q0 72 -46 102.5t-130 30.5h-46v-274h21q5 0 15 -0.5t15 -0.5zM537 493v-3q0 -131 -164 -167q101 -25 124 -113q3 -10 8.5 -35t9 -38.5t11 -31t17.5 -28.5q31 -37 105 -37v-45q-1 0 -25 -6t-42 -6q-110 0 -144 100q-6 16 -16.5 55.5t-21 66
t-26.5 45.5q-41 49 -121 49q-7 0 -21 -1t-20 -1h-5v-228q0 -20 21 -22l53 -4v-43h-249v43l52 4q22 2 22 22v533q0 20 -22 22l-52 4v43h261q55 0 97.5 -8.5t77 -28t52.5 -55t18 -86.5z" />
    <glyph glyph-name="S" unicode="S" horiz-adv-x="520" 
d="M281 687l2 1q63 0 176 -34v-156h-57l-15 96q-1 9 -15 16q-2 0 -7 4q-26 19 -82 19q-90 0 -120 -71q-9 -21 -9 -47q0 -45 36 -76q27 -24 103 -56.5t81 -34.5q51 -27 80 -63.5t29 -96.5q0 -84 -62 -139q-70 -64 -203 -64q-56 0 -130 18q-27 7 -48 18v177h63l13 -113
q0 -3 1.5 -6t3.5 -6t3.5 -5t5 -4t5.5 -3l6 -3t6 -2.5t7 -2.5t6 -2q34 -12 73 -12q102 0 136 68q11 24 11 51q0 52 -61 94q-15 10 -33 19.5t-46.5 22.5t-35.5 17q-32 16 -45.5 23t-39.5 24.5t-37.5 33.5t-21.5 42t-10 57q0 70 38.5 116t100.5 66q44 14 92 14z" />
    <glyph glyph-name="T" unicode="T" horiz-adv-x="599" 
d="M524 511l-14 94q-2 17 -17 17h-143v-553q0 -20 21 -22l64 -4v-43h-271v43l64 4q21 2 21 22v553h-144q-15 0 -17 -17l-14 -94h-58v160h567v-160h-59z" />
    <glyph glyph-name="U" unicode="U" horiz-adv-x="711" 
d="M376 51q91 0 131 49.5t40 147.5v354q0 20 -22 22l-57 4v43h217v-43l-58 -4q-21 -2 -21 -22v-380q0 -238 -257 -238q-244 0 -244 238v380q0 20 -21 22l-53 4v43h254v-43l-57 -4q-21 -2 -21 -22v-354q0 -100 38.5 -148.5t130.5 -48.5z" />
    <glyph glyph-name="V" unicode="V" horiz-adv-x="666" 
d="M598 617l-225 -633h-76l-229 634l-59 10v43h239v-43l-59 -5q-4 -1 -6.5 -7t-1.5 -11l176 -494l169 492q2 6 -3 12.5t-11 7.5l-55 5v43h199v-43z" />
    <glyph glyph-name="W" unicode="W" horiz-adv-x="931" 
d="M860 616l-153 -633h-73l-167 554l-164 -554h-72l-163 632l-58 12v43h229v-43l-60 -6q-15 -2 -10 -19l119 -451l157 520h77l161 -536l111 467q3 18 -14 20l-63 6v43h204v-43z" />
    <glyph glyph-name="X" unicode="X" horiz-adv-x="633" 
d="M367 0l1 43l58 6q8 1 12 7t0 14l-133 209l-154 -212q-5 -8 -1.5 -13t13.5 -6l60 -5v-43h-212v43l60 12l201 276l-182 285l-66 12v43h251v-43l-51 -5q-10 -1 -13.5 -6.5t1.5 -13.5l122 -188l135 185q5 7 0 13.5t-12 7.5l-51 7v43h209v-43l-64 -10l-186 -255l197 -308
l62 -12v-43h-257z" />
    <glyph glyph-name="Y" unicode="Y" horiz-adv-x="625" 
d="M562 618l-201 -333v-216q0 -8 6.5 -14.5t14.5 -7.5l64 -4v-43h-270v43l62 4q22 2 22 22v201l-192 346l-58 12v43h237v-43l-50 -5q-22 -2 -12 -20l141 -261l155 258q4 8 -0.5 14t-11.5 7l-56 7v43h203v-43z" />
    <glyph glyph-name="Z" unicode="Z" horiz-adv-x="575" 
d="M39 0v44l372 577h-260q-13 0 -17 -17l-15 -93h-59v160h471v-46l-373 -574h285q13 0 17 18l17 116h59v-185h-497z" />
    <glyph glyph-name="bracketleft" unicode="[" horiz-adv-x="422" 
d="M136 -132v840h243v-45h-156v-749h156v-46h-243z" />
    <glyph glyph-name="backslash" unicode="\" horiz-adv-x="488" 
d="M425 -93l-425 764h64l425 -764h-64z" />
    <glyph glyph-name="bracketright" unicode="]" horiz-adv-x="422" 
d="M44 -132v46h157v749h-157v45h244v-840h-244z" />
    <glyph glyph-name="asciicircum" unicode="^" horiz-adv-x="327" 
d="M268 551l-103 99l-104 -99h-61l126 169h76l126 -169h-60z" />
    <glyph glyph-name="underscore" unicode="_" horiz-adv-x="334" 
d="M0 -149v64h335v-64h-335z" />
    <glyph glyph-name="grave" unicode="`" horiz-adv-x="350" 
d="M0 688l-1 1q0 21 12.5 33t33.5 12q14 0 25 -4.5t14 -7.5l15 -15l133 -155h-57l-152 97q-23 14 -23 39z" />
    <glyph glyph-name="a" unicode="a" horiz-adv-x="508" 
d="M133 129q0 -37 20 -60.5t54 -23.5q54 0 123 47v173q-66 -16 -106 -33q-39 -16 -60 -33q-31 -25 -31 -70zM264 493q80 0 119 -36.5t39 -113.5v-280q0 -19 21 -21l48 -3v-39h-148l-13 59q-95 -72 -168 -72q-56 0 -92.5 38t-36.5 96q0 51 26.5 78t76.5 48q64 28 194 56v43
q0 99 -93 99q-41 0 -71 -13v-87h-73q-37 0 -37 29q0 57 67 89q62 30 141 30z" />
    <glyph glyph-name="b" unicode="b" horiz-adv-x="555" 
d="M183 457h-1q83 37 138 37q74 0 121.5 -39t66.5 -103q12 -42 12 -88q0 -186 -157 -244q-55 -20 -129 -20h-144v665h-76v33l129 39h40v-280zM231 47q97 0 142 48.5t45 148.5q0 88 -38 139.5t-115 51.5q-28 0 -83 -16v-371q11 0 17 -1h32z" />
    <glyph glyph-name="c" unicode="c" horiz-adv-x="465" 
d="M302 51l-1 -1q64 0 130 43v-57q-90 -49 -168 -49q-82 0 -135.5 41t-77.5 109q-16 45 -16 100q0 90 40 152t109 88q45 17 92 17q106 0 143 -57q12 -20 12 -43q0 -27 -16.5 -43t-42.5 -16q-22 0 -50 17v87q-20 13 -42 13q-100 0 -133 -121q-10 -36 -10 -81q0 -137 94 -184
q32 -15 72 -15z" />
    <glyph glyph-name="d" unicode="d" horiz-adv-x="563" 
d="M278 56v1q45 0 103 35v340q-45 15 -85 15q-59 0 -97 -32.5t-54 -85.5q-12 -37 -12 -84q0 -133 83 -175q28 -14 62 -14zM289 495q12 0 93 -12v183h-76v33l129 39h40v-673q0 -19 21 -21l43 -3v-39h-157v53q-61 -46 -113 -60q-21 -6 -43 -6q-93 0 -146 78q-46 66 -46 162
q0 88 38.5 150t104.5 93q49 23 112 23z" />
    <glyph glyph-name="e" unicode="e" horiz-adv-x="490" 
d="M131 261q0 -97 40.5 -155t125.5 -58q29 0 59 10t48.5 20.5t50.5 31.5v-61q-70 -43 -140 -57q-27 -5 -50 -5q-78 0 -132 37.5t-80 100.5q-19 45 -19 110q0 89 38 151t103 90q43 18 94 18q91 0 139 -55t48 -150v-13q0 -10 -1 -15h-324zM355 327q0 53 -24.5 85t-72.5 32
q-56 0 -87.5 -39.5t-35.5 -99.5h220v22z" />
    <glyph glyph-name="f" unicode="f" horiz-adv-x="326" 
d="M251 688v-2q-59 -32 -59 -150v-64h124v-51h-124v-359q0 -19 21 -21l59 -3v-39h-243v39l49 3q21 2 21 21v359h-64v35l64 18q0 123 68 199q57 62 136 62q61 0 81 -37q6 -10 6 -22q0 -19 -10.5 -32t-25.5 -18l-10 -3q-4 4 -25 18q-48 33 -68 47z" />
    <glyph glyph-name="g" unicode="g" horiz-adv-x="524" 
d="M200 27l-1 -2q-76 -29 -76 -94q0 -70 72 -105q24 -12 59 -12q48 0 83 21.5t50 56.5q9 21 9 39q0 22 -10 37t-31 24.5t-36 13.5t-42 9q-12 2 -38.5 5.5t-38.5 6.5zM246 451l-1 -1q-47 0 -71 -34.5t-24 -88.5q0 -82 54 -111q17 -10 41 -10q45 0 69 35.5t24 87.5
q0 81 -53 112q-16 10 -39 10zM255 491h-1q12 0 23.5 -1.5t20 -3t20.5 -5.5t17 -6t18.5 -7.5t16.5 -6.5h135v-49h-100q27 -43 27 -90q0 -76 -66 -122q-63 -43 -151 -37q-15 -25 -10 -59q1 -8 3 -9q66 -6 105.5 -12t85 -25.5t66.5 -51.5q14 -22 14 -51q0 -72 -76 -130
q-77 -58 -184 -58q-133 0 -175 86q-13 25 -13 56q0 51 29 81.5t77 39.5q-10 25 -10 46q0 20 12 44q11 23 38 51q-84 20 -113 95q-10 24 -10 55q0 121 119 158q38 12 82 12z" />
    <glyph glyph-name="h" unicode="h" horiz-adv-x="574" 
d="M348 494l-1 1q65 0 100.5 -40.5t35.5 -110.5v-279q0 -9 6.5 -14.5t15.5 -6.5l45 -3v-39h-223v39l41 3q9 1 15.5 6.5t6.5 14.5v258q0 99 -99 99q-56 0 -109 -29v-328q0 -19 20 -21l43 -3v-39h-225v39l48 3q21 2 21 21v601h-75v33l128 39h40v-305q77 43 123 55q24 6 43 6z
" />
    <glyph glyph-name="i" unicode="i" horiz-adv-x="303" 
d="M34 0v39l49 3q21 2 21 21v357h-69v35l122 38h40v-430q0 -19 21 -21l51 -3v-39h-235zM95 647q0 26 18 43.5t44 17.5t43.5 -17.5t17.5 -43.5t-17.5 -44t-43.5 -18t-44 18t-18 44z" />
    <glyph glyph-name="j" unicode="j" horiz-adv-x="291" 
d="M61 -183q48 27 48 162v444h-71v33l123 38h41v-430q0 -141 -39 -200q-61 -93 -166 -93q-76 0 -76 55q0 39 43 58zM152 708q27 0 44 -17t17 -44t-17 -44.5t-44 -17.5q-26 0 -44 18t-18 44t18 43.5t44 17.5z" />
    <glyph glyph-name="k" unicode="k" horiz-adv-x="534" 
d="M364 0v39l-125 188h-56v-163q0 -19 21 -21l43 -3v-39h-227v39l49 3q21 2 21 21v601h-76v33l128 39h41v-481h20l147 166q4 6 1 11t-9 6l-41 4v39h194v-39l-64 -7l-132 -141l172 -250l53 -6v-39h-160z" />
    <glyph glyph-name="l" unicode="l" horiz-adv-x="296" 
d="M195 63q0 -7 7 -14t14 -7l54 -3v-39h-243v39l53 3q7 0 14.5 7t7.5 14v602h-76v33l128 39h41v-674z" />
    <glyph glyph-name="m" unicode="m" horiz-adv-x="850" 
d="M630 494q65 0 97 -41.5t32 -111.5v-277q0 -19 21 -21l48 -3v-39h-224v39l42 3q21 2 21 21v255q0 102 -89 102q-53 0 -107 -28v-329q0 -19 21 -21l42 -3v-39h-219v39l42 3q21 2 21 21v261q0 96 -88 96q-55 0 -107 -29v-328q0 -19 21 -21l42 -3v-39h-226v39l49 3
q21 2 21 21v347h-69v33l121 38h41v-50q71 41 122 55q23 6 42 6q75 0 110 -69q74 44 129 62q26 8 44 8z" />
    <glyph glyph-name="n" unicode="n" horiz-adv-x="566" 
d="M348 494h1q66 0 100 -41t34 -113v-276q0 -19 21 -21l44 -3v-39h-221v39l42 3q21 2 21 21v260q0 97 -96 97q-56 0 -110 -29v-328q0 -19 21 -21l42 -3v-39h-226v39l49 3q21 2 21 21v347h-70v33l122 38h41v-50q75 44 128 57q22 5 36 5z" />
    <glyph glyph-name="o" unicode="o" horiz-adv-x="543" 
d="M406 240q0 50 -11.5 94.5t-43 79.5t-78.5 35q-68 0 -101.5 -64.5t-33.5 -144.5t33 -143t101 -63t101 63t33 143zM509 240q0 -106 -67.5 -179.5t-171.5 -73.5q-103 0 -169.5 73t-66.5 180t67.5 180.5t171.5 73.5q103 0 169.5 -73.5t66.5 -180.5z" />
    <glyph glyph-name="p" unicode="p" horiz-adv-x="559" 
d="M183 50l1 1q46 -16 81 -16q117 0 151 125q10 34 10 75q0 129 -80 174q-27 15 -61 15q-31 0 -70 -15q-18 -6 -32 -15v-344zM273 -11h1q-40 0 -89 9v-149q0 -18 22 -20l59 -6v-39h-243v39l48 6q21 2 21 20v563h-69v33l123 38h39v-50q42 34 94 52q27 9 56 9q79 0 133 -67
q57 -70 57 -179q0 -91 -39 -152.5t-108 -88.5q-46 -18 -105 -18z" />
    <glyph glyph-name="q" unicode="q" horiz-adv-x="548" 
d="M286 47h-1q28 0 86 14v376q-55 11 -68 11q-84 0 -126 -55.5t-42 -147.5q0 -136 82 -182q28 -16 69 -16zM322 494l-1 2q56 0 142 -16v-632q0 -17 21 -21l48 -5v-38h-242v38l59 5q21 2 21 20v181q-50 -25 -104 -35q-18 -3 -35 -3q-72 0 -117.5 41t-66.5 106q-14 45 -14 93
q0 96 44.5 157.5t122.5 88.5q54 18 122 18z" />
    <glyph glyph-name="r" unicode="r" horiz-adv-x="391" 
d="M320 494q25 0 61 -15v-99h-39q-25 27 -54 27q-24 0 -49 -16q-26 -17 -51 -46v-281q0 -19 21 -21l66 -3v-39h-250v38l49 4q21 2 21 21v347h-72v33l124 38h41v-89q64 71 96 90q19 11 36 11z" />
    <glyph glyph-name="s" unicode="s" horiz-adv-x="397" 
d="M213 446l-1 -2q-38 0 -59.5 -17t-21.5 -50q0 -21 9.5 -36.5t19 -22.5t29.5 -18q7 -4 55.5 -27t73 -41.5t36.5 -45.5q9 -19 9 -43q0 -78 -52.5 -117.5t-138.5 -39.5q-71 0 -139 25v133h51l12 -85q42 -28 89 -28q39 0 64.5 21t25.5 57q0 33 -18.5 51t-52.5 35
q-7 4 -34.5 16.5t-40 19t-32 19.5t-31.5 27t-19 31t-7 40q0 72 49.5 108.5t130.5 36.5q50 0 108 -15q15 -3 21 -7v-118h-52l-8 70q-33 23 -76 23z" />
    <glyph glyph-name="t" unicode="t" horiz-adv-x="339" 
d="M264 44h-1q38 0 69 17v-40q-70 -33 -134 -33q-57 0 -82 26.5t-25 85.5v332h-64v33l68 32l45 106h44v-121h141v-50h-141v-279q0 -53 17.5 -81t62.5 -28z" />
    <glyph glyph-name="u" unicode="u" horiz-adv-x="568" 
d="M280 56l2 -2q38 0 107 30v335h-70v34l122 39h41v-430q0 -9 6.5 -14.5t15.5 -6.5l44 -3v-39h-159v57q-59 -44 -116 -61q-21 -7 -45 -7q-138 0 -138 162v271h-70v34l123 39h40v-325q0 -113 97 -113z" />
    <glyph glyph-name="v" unicode="v" horiz-adv-x="528" 
d="M466 437l-175 -437h-65l-161 437l-55 6v39h221v-39l-48 -3q-8 -1 -13 -7.5t-2 -14.5l112 -313l123 313q3 8 -2 14.5t-12 7.5l-45 3v39h175v-39z" />
    <glyph glyph-name="w" unicode="w" horiz-adv-x="783" 
d="M722 437l-137 -438h-71l-118 374l-132 -374h-71l-128 437l-55 6v39h219v-39l-47 -3q-8 -1 -12.5 -7t-2.5 -14l83 -311l129 375h71l116 -375l92 311q5 20 -14 22l-46 3v39h175v-39z" />
    <glyph glyph-name="x" unicode="x" horiz-adv-x="509" 
d="M285 0v39l34 4q6 1 9.5 6.5t-0.5 11.5l-86 128l-98 -128q-4 -5 -2 -11t8 -7l50 -4v-39h-190v39l57 8l143 186l-136 201l-59 9v39h220v-39l-35 -5q-6 -1 -10 -6.5t-1 -11.5l79 -112l87 112q5 5 2.5 11t-8.5 7l-43 5v39h180v-39l-54 -9l-134 -171l148 -216l54 -8v-39h-215z
" />
    <glyph glyph-name="y" unicode="y" horiz-adv-x="529" 
d="M468 437l-191 -468q-30 -72 -62 -121q-47 -77 -117 -77q-51 0 -68 36q-5 12 -5 21q0 33 32 60l94 -43q45 45 84 156l-170 436l-55 6v39h221v-39l-48 -3q-8 -1 -13 -7.5t-2 -14.5l116 -295l119 295q3 8 -2 14.5t-12 7.5l-47 3v39h178v-39z" />
    <glyph glyph-name="z" unicode="z" horiz-adv-x="461" 
d="M34 0l1 53l265 382h-174q-7 0 -13 -7t-7 -14l-10 -74h-51v142h370v-41l-274 -393h202q7 0 13 8t8 16l10 79h54v-151h-394z" />
    <glyph glyph-name="braceleft" unicode="{" horiz-adv-x="487" 
d="M419 -123l-3 2q-133 0 -173 44q-41 42 -41 128v86q0 98 -48 119q-30 13 -96 13v45q57 0 90 10.5t44 44.5q11 35 11 76v86q0 118 72 150q51 23 143 23v-41q-74 0 -101 -30q-6 -6 -10 -14t-7 -19.5t-4.5 -19t-2 -23.5t-0.5 -22.5v-25.5v-24q0 -98 -29 -137
q-30 -40 -106 -57q66 -15 99.5 -51.5t35.5 -107.5v-36q0 -90 8 -116q11 -36 40 -48q33 -14 78 -14v-41z" />
    <glyph glyph-name="bar" unicode="|" horiz-adv-x="353" 
d="M146 -258v1054h61v-1054h-61z" />
    <glyph glyph-name="braceright" unicode="}" horiz-adv-x="487" 
d="M428 268l-1 -4q-59 0 -91 -11t-43 -45q-11 -35 -11 -76v-86q0 -117 -72 -151q-48 -22 -142 -22v41q102 0 118 58q9 34 9 78v43q0 98 29 137q31 41 106 58q-65 12 -99 50t-36 109v36v43q0 51 -9.5 80.5t-38.5 41.5q-34 14 -78 14v41q130 0 174 -44q41 -42 41 -128v-86
q0 -80 28 -105q18 -17 44 -22t72 -5v-45z" />
    <glyph glyph-name="asciitilde" unicode="~" horiz-adv-x="833" 
d="M747 306l-1 1q-35 -23 -55.5 -35t-57 -23.5t-75.5 -11.5q-46 0 -141 34q-97 33 -148 33q-38 0 -86 -21q-51 -22 -98 -58v65q54 38 102 54q49 17 89 17q49 0 146 -34q4 -1 24.5 -8.5t29 -10t25.5 -7t31 -6t29 -1.5q35 0 81 17q45 17 105 60v-65z" />
    <glyph glyph-name="uni00A0" unicode="&#xa0;" horiz-adv-x="292" 
 />
    <glyph glyph-name="exclamdown" unicode="&#xa1;" horiz-adv-x="337" 
d="M169 -205h-1q-69 0 -61 77l37 429h48l36 -429q8 -77 -59 -77zM168 494q26 0 43.5 -18t17.5 -44q0 -27 -17 -44t-44 -17t-44.5 17t-17.5 44q0 26 18 44t44 18z" />
    <glyph glyph-name="cent" unicode="&#xa2;" horiz-adv-x="562" 
d="M295 454l-2 -1q-45 -10 -80 -57q-42 -55 -42 -141q0 -128 76 -182q21 -16 48 -22v403zM341 505l-2 -2q59 0 144 -25v-147h-48l-14 87q-6 36 -82 36v-409q17 0 29 3l23 5q21 6 26 14q4 6 5 9l13 96h49v-151q-5 -5 -37 -12q-43 -10 -106 -10v-99h-48v101q-77 9 -129.5 49.5
t-75.5 105.5q-15 44 -15 95q0 78 35.5 135t94.5 87q39 20 90 28v102h48v-98z" />
    <glyph glyph-name="sterling" unicode="&#xa3;" horiz-adv-x="562" 
d="M152 256h1v38l-1 35h-70v49h69q0 30 -1 44v66q0 172 118 229q42 20 96 20q96 0 142 -57q16 -19 16 -48q0 -25 -18 -41t-44 -16q-6 0 -36 5v100q-26 8 -46 8q-75 0 -104.5 -53t-29.5 -145q0 -11 0.5 -36t0.5 -36l1 -39h186v-49h-186q0 -145 -53 -208q-21 -24 -54 -45
q12 1 34 3l28 2q9 1 21 1h296v-82h-475v61q60 15 84.5 63t24.5 131z" />
    <glyph glyph-name="currency" unicode="&#xa4;" horiz-adv-x="609" 
d="M464 428h2q0 50 -26.5 87t-66.5 55q-29 12 -60 12q-51 0 -88.5 -26.5t-55.5 -68.5q-12 -29 -12 -60q0 -52 26.5 -88t68.5 -54q28 -12 60 -12q50 0 86 26.5t54 68.5q12 28 12 60zM523 428h-1q0 -77 -44 -129l103 -103l-36 -36l-103 103q-54 -47 -129 -47q-77 0 -132 47
l-103 -103l-36 36l103 103q-44 54 -44 128q0 83 46 132l-105 105l36 36l105 -105q52 44 130 44q73 0 127 -45l106 106l36 -36l-104 -104q45 -54 45 -132z" />
    <glyph glyph-name="yen" unicode="&#xa5;" horiz-adv-x="596" 
d="M530 616l-108 -190h141v-44h-166l-58 -102h224v-44h-223v-168q0 -8 8.5 -14.5t17.5 -7.5l58 -5v-42h-261v42l59 5q25 2 25 22v168h-216v44h214l-54 102h-160v44h136l-99 190l-59 12v42h224v-42l-43 -7q-7 -1 -11.5 -7.5t-0.5 -14.5l132 -258l145 257q4 9 0.5 15t-12.5 8
l-48 8v42h191v-42z" />
    <glyph glyph-name="brokenbar" unicode="&#xa6;" horiz-adv-x="345" 
d="M147 -198v400h51v-400h-51zM147 336v400h51v-400h-51z" />
    <glyph glyph-name="section" unicode="&#xa7;" horiz-adv-x="500" 
d="M363 300v-2q0 46 -36 80q-37 35 -102 62q-65 -23 -84 -79q-6 -17 -6 -33q0 -45 35 -77q35 -33 109 -68q51 29 75 79q9 18 9 38zM259 691l1 -2q-43 0 -71.5 -22t-28.5 -62q0 -31 44 -62q24 -16 78 -42.5t91.5 -54t55.5 -66.5q12 -26 12 -58q0 -81 -76 -137
q-20 -15 -44 -24q73 -34 95 -88q8 -21 8 -44q0 -54 -31.5 -90t-80.5 -52q-36 -11 -75 -11q-81 0 -154 32v131h50q2 -15 7.5 -43.5t7.5 -46.5q38 -26 94 -26q45 0 74 20.5t29 60.5t-44 70q-25 17 -80 44t-93 55t-56 68q-12 27 -12 62q0 62 31 97t87 60q-45 23 -72.5 52
t-27.5 76q0 147 194 147q81 0 139 -24v-130h-47l-10 81q-58 29 -95 29z" />
    <glyph glyph-name="dieresis" unicode="&#xa8;" horiz-adv-x="315" 
d="M55 696q23 0 38.5 -16t15.5 -39t-15.5 -39.5t-38.5 -16.5t-39 16t-16 39t16 39.5t39 16.5zM263 696q22 0 37.5 -16t15.5 -39q0 -24 -15 -40t-38 -16q-24 0 -40 16t-16 40q0 22 16.5 38.5t39.5 16.5z" />
    <glyph glyph-name="copyright" unicode="&#xa9;" horiz-adv-x="836" 
d="M435 585h1q58 0 141 -25v-119h-45l-15 76q-32 21 -71 21q-55 0 -93.5 -30t-57.5 -77q-13 -33 -13 -78q0 -65 26 -112t71 -68q27 -13 57 -13q47 0 83 19l14 85h44v-126q-2 0 -13 -4q-58 -20 -130 -20q-86 0 -145 39.5t-84 106.5q-16 42 -16 90q0 82 39.5 137t105.5 80
q45 18 101 18zM761 350v-2q0 142 -100 244t-241 102q-142 0 -242 -102q-63 -63 -88 -152q-12 -44 -12 -90q0 -141 100 -243t241 -102t241 102q101 103 101 243zM804 349v2q0 -161 -113 -274q-71 -71 -170 -100q-51 -14 -102 -14q-101 0 -193 53q-133 78 -177 231
q-14 51 -14 102q0 159 113 274q72 72 170 99q51 14 102 14q101 0 195 -54q133 -78 175 -231q14 -51 14 -102z" />
    <glyph glyph-name="ordfeminine" unicode="&#xaa;" horiz-adv-x="340" 
d="M31 304v30h291v-30h-291zM91 461v-1q0 -21 14 -35.5t35 -14.5q27 0 53 14q9 4 27 14v104q-78 -17 -108 -39q-21 -15 -21 -42zM177 678l2 -2q52 0 77.5 -21t25.5 -69v-168q0 -11 13 -13l32 -2v-23h-96l-9 35q-34 -23 -71 -35q-19 -6 -39 -6q-38 0 -61 22t-23 59
q0 38 32 58q22 14 59 26q42 13 102 26v26q0 59 -60 59q-26 0 -48 -8v-52h-47q-24 0 -24 17q0 27 23 43.5t51 22t61 5.5z" />
    <glyph glyph-name="guillemotleft" unicode="&#xab;" horiz-adv-x="441" 
d="M212 215v51l162 216h48l-124 -241l124 -241h-48zM27 215v51l161 216h49l-125 -241l125 -241h-49z" />
    <glyph glyph-name="logicalnot" unicode="&#xac;" horiz-adv-x="620" 
d="M520 189v171h-480v60h540v-231h-60z" />
    <glyph glyph-name="uni00AD" unicode="&#xad;" horiz-adv-x="319" 
d="M44 203v75h232v-75h-232z" />
    <glyph glyph-name="registered" unicode="&#xae;" horiz-adv-x="836" 
d="M377 368q60 0 91 20.5t31 72.5q0 88 -125 88h-34v-180h15q4 0 11.5 -0.5t10.5 -0.5zM577 464l-1 1q0 -48 -32 -72.5t-85 -36.5q74 -18 90 -74q2 -7 6 -23.5t6.5 -25.5t8.5 -20.5t13 -18.5q25 -24 83 -24v-27q-8 0 -28 -2.5t-30 -2.5q-82 0 -105 63q-3 9 -11 34.5
t-15.5 42t-17.5 28.5q-27 31 -86 31q-5 0 -17.5 -0.5t-15.5 -0.5v-149q0 -12 15 -14l38 -3v-28h-177v28l38 3q15 2 15 14v348q0 12 -15 14l-38 3v28h186q82 0 128.5 -25t46.5 -91zM759 351q0 142 -100 244t-241 102q-142 0 -242 -100q-62 -62 -87 -153q-12 -45 -12 -94
q0 -141 100 -241q101 -101 241 -101t242 102q62 62 87 151q12 43 12 90zM802 351v1q0 -162 -113 -273q-72 -72 -171 -99q-51 -14 -102 -14q-157 0 -270 113q-71 71 -99 170q-14 51 -14 102q0 159 113 274q72 72 170 99q51 14 102 14q103 0 193 -53q134 -78 177 -232
q14 -51 14 -102z" />
    <glyph glyph-name="macron" unicode="&#xaf;" horiz-adv-x="334" 
d="M0 586v63h335v-63h-335z" />
    <glyph glyph-name="degree" unicode="&#xb0;" horiz-adv-x="319" 
d="M230 610q0 30 -20 50t-50 20t-50 -20t-20 -50t20 -50t50 -20t50 20t20 50zM270 610q0 -73 -67 -102q-19 -9 -42 -9q-73 0 -102 67q-9 20 -9 42q0 73 67 102q19 9 42 9q73 0 102 -67q9 -20 9 -42z" />
    <glyph glyph-name="plusminus" unicode="&#xb1;" horiz-adv-x="1000" 
d="M200 0v62h600v-62h-600zM531 358v-180h-62v180h-269v62h269v180h62v-180h269v-62h-269z" />
    <glyph glyph-name="two.superior" unicode="&#xb2;" horiz-adv-x="366" 
d="M78 670v3q-16 0 -27.5 9.5t-11.5 26.5q0 57 88 79q25 6 54 6q101 0 134 -66q11 -22 11 -48q0 -33 -19 -62q-34 -56 -124 -121q-71 -52 -84 -62h193l11 51h32v-102h-304v40l91 70q89 68 118 119q17 29 17 60q0 41 -25.5 64.5t-67.5 23.5q-32 0 -54 -14v-66
q-11 -11 -32 -11z" />
    <glyph glyph-name="three.superior" unicode="&#xb3;" horiz-adv-x="366" 
d="M318 691q0 -72 -99 -99q76 -3 106 -53q11 -19 11 -43q0 -44 -30 -72.5t-74 -41.5q-32 -9 -66 -9q-92 0 -125 46q-9 12 -9 23q0 15 10.5 24t27.5 9t22 -4l20 -54q25 -13 57 -13q67 0 93 58q8 18 8 35q0 38 -27.5 56.5t-70.5 18.5q-8 0 -20.5 -1.5t-18.5 -1.5v38
q1 0 8 -0.5t9 -0.5q70 0 96 42q9 15 9 35q0 36 -24 56t-61 20q-32 0 -60 -15v-59q-9 -9 -30 -9q-37 0 -37 34q0 35 42 58q41 23 100 23q89 0 122 -58q11 -19 11 -42z" />
    <glyph glyph-name="acute" unicode="&#xb4;" horiz-adv-x="350" 
d="M305 733h1q22 0 34 -12t12 -33t-23 -40l-153 -97h-56l132 155l4.5 4.5l4.5 4.5t4.5 4t5 4t5 3t6 3t6.5 2t8 1.5t9 0.5z" />
    <glyph glyph-name="mu" unicode="&#xb5;" horiz-adv-x="546" 
d="M491 45l-2 1q13 0 22 9.5t12.5 20.5t6.5 27q1 4 1 6h20q-3 -54 -27.5 -87t-72.5 -33q-73 0 -88 97q-42 -50 -76 -74t-73 -24q-62 0 -88 44v-24q0 -23 3 -44.5t10 -54t8 -39.5q3 -20 3 -35q0 -24 -13 -40.5t-35 -16.5q-20 0 -32 16.5t-12 38.5q0 20 16 86q16 65 16 182
v381h93v-285q0 -33 1 -50.5t5.5 -38.5t15 -33.5t28.5 -19.5q9 -4 22 -4q29 0 54 18t55 52v362h93v-345q0 -62 10 -81q7 -12 24 -12z" />
    <glyph glyph-name="paragraph" unicode="&#xb6;" horiz-adv-x="485" 
d="M27 475q0 106 59 151t175 45h198v-36l-62 -10v-704h-49v709h-76v-349q-120 0 -182.5 43.5t-62.5 150.5z" />
    <glyph glyph-name="periodcentered" unicode="&#xb7;" horiz-adv-x="187" 
d="M94 399q26 0 42.5 -16.5t16.5 -42.5t-16.5 -42.5t-42.5 -16.5t-42.5 16.5t-16.5 42.5t16.5 42.5t42.5 16.5z" />
    <glyph glyph-name="cedilla" unicode="&#xb8;" horiz-adv-x="229" 
d="M158 -59q72 0 72 -71q0 -47 -32 -71t-84 -24q-39 0 -74 10v39q36 -8 61 -8q64 0 64 41q0 37 -47 37q-9 0 -23 -6v137h40v-88q16 4 23 4z" />
    <glyph glyph-name="one.superior" unicode="&#xb9;" horiz-adv-x="366" 
d="M214 425q0 -5 5 -9t10 -4l61 -2v-27h-220v27l66 2q14 0 14 13v317l-101 -16v26l141 40h24v-367z" />
    <glyph glyph-name="ordmasculine" unicode="&#xba;" horiz-adv-x="357" 
d="M267 527l-1 -1q0 84 -48 114q-17 11 -39 11q-44 0 -65.5 -36t-21.5 -89q0 -82 48 -113q16 -10 39 -10q44 0 66 36t22 88zM26 303v30h305v-30h-305zM333 526l-1 2q0 -51 -25 -87t-66 -53q-29 -12 -64 -12q-107 0 -144 90q-11 28 -11 60q0 52 25 88t67 53q30 12 66 12
q53 0 89.5 -25.5t52.5 -67.5q11 -30 11 -60z" />
    <glyph glyph-name="guillemotright" unicode="&#xbb;" horiz-adv-x="441" 
d="M229 267v-51l-161 -216h-48l124 241l-124 241h48zM415 267v-51l-161 -216h-49l125 241l-125 241h49z" />
    <glyph glyph-name="onequarter" unicode="&#xbc;" horiz-adv-x="875" 
d="M697 336l-156 -181h156v181zM69 295v27l66 2q14 2 14 12v317l-101 -16v27l141 40h24v-368q0 -10 15 -12l61 -2v-27h-220zM247 0h-64l444 698h63zM753 114v-135h-56v135h-208v42l220 250h44v-251h74v-41h-74z" />
    <glyph glyph-name="onehalf" unicode="&#xbd;" horiz-adv-x="875" 
d="M67 295v27l66 2q14 2 14 12v317l-101 -16v27l141 40h24v-368q0 -10 15 -12l61 -2v-27h-220zM239 0h-63l444 698h63zM678 410l3 4q61 0 99 -29.5t38 -85.5q0 -32 -18 -62q-33 -56 -119 -121q-71 -52 -84 -62h192l11 52h33v-103h-305v40q120 91 159 131q29 31 45 58
q16 28 16 60q0 41 -22.5 64t-62.5 23q-32 0 -49 -11q-4 -3 -6 -3v-66q-10 -10 -32 -10q-17 0 -28 9t-11 26q0 58 87 80q26 6 54 6z" />
    <glyph glyph-name="threequarters" unicode="&#xbe;" horiz-adv-x="875" 
d="M708 336l-156 -181h156v181zM257 0h-63l444 698h63zM319 604l-3 -2q0 -69 -100 -96q76 -3 106 -53q11 -19 11 -43q0 -44 -28.5 -72t-71.5 -41q-30 -9 -65 -9q-93 0 -123 45q-8 13 -8 23q0 16 10.5 25t27.5 9q15 0 22 -5l20 -53q23 -13 53 -13q66 0 91 58q7 15 7 35
q0 38 -26 56t-68 18q-5 0 -14 -0.5t-13 -0.5q-6 0 -9 -1v37h17q98 0 98 76q0 35 -22.5 55.5t-59.5 20.5q-34 0 -57 -14v-60q-16 -8 -28 -8q-17 0 -27.5 9t-10.5 25q0 33 40 58q39 23 100 23q90 0 121 -59q10 -19 10 -43zM761 112v-135h-56v135h-208v42l220 250h44v-251h74
v-41h-74z" />
    <glyph glyph-name="questiondown" unicode="&#xbf;" horiz-adv-x="485" 
d="M371 -52l-2 2q65 0 65 -55q0 -39 -38 -68q-43 -31 -120 -31q-69 0 -118.5 28t-73.5 77q-16 32 -16 74q0 85 66 144q41 36 124 73v112h56v-145q-94 -33 -130 -110q-14 -31 -14 -67q0 -137 143 -137l41 101l8 1q2 0 5 0.5t4 0.5zM222 435q0 27 17.5 44t44.5 17
q26 0 43.5 -18t17.5 -44t-17.5 -43.5t-43.5 -17.5q-27 0 -44.5 17.5t-17.5 44.5z" />
    <glyph glyph-name="Agrave" unicode="&#xc0;" horiz-adv-x="673" 
d="M314 558l-97 -262h195zM431 0v44l58 5q4 0 8 6t2 11l-69 183h-231l-66 -180q-2 -6 3 -13t11 -7l59 -5v-43h-201v43l58 12l233 632h75l232 -617q3 -11 6.5 -14.5t14.5 -5.5l45 -8v-43h-238zM189 884l-1 1q0 21 12.5 33t33.5 12q14 0 25 -4.5t14 -7.5l15 -15l133 -155h-57
l-152 97q-23 14 -23 39z" />
    <glyph glyph-name="Aacute" unicode="&#xc1;" horiz-adv-x="673" 
d="M314 558l-97 -262h195zM431 0v44l58 5q4 0 8 6t2 11l-69 183h-231l-66 -180q-2 -6 3 -13t11 -7l59 -5v-43h-201v43l58 12l233 632h75l232 -617q3 -11 6.5 -14.5t14.5 -5.5l45 -8v-43h-238zM432 929h1q22 0 34 -12t12 -33t-23 -40l-153 -97h-56l132 155l4.5 4.5l4.5 4.5
t4.5 4t5 4t5 3t6 3t6.5 2t8 1.5t9 0.5z" />
    <glyph glyph-name="Acircumflex" unicode="&#xc2;" horiz-adv-x="673" 
d="M314 558l-97 -262h195zM431 0v44l58 5q4 0 8 6t2 11l-69 183h-231l-66 -180q-2 -6 3 -13t11 -7l59 -5v-43h-201v43l58 12l233 632h75l232 -617q3 -11 6.5 -14.5t14.5 -5.5l45 -8v-43h-238zM437 747l-103 99l-104 -99h-61l126 169h76l126 -169h-60z" />
    <glyph glyph-name="Atilde" unicode="&#xc3;" horiz-adv-x="673" 
d="M314 558l-97 -262h195zM431 0v44l58 5q4 0 8 6t2 11l-69 183h-231l-66 -180q-2 -6 3 -13t11 -7l59 -5v-43h-201v43l58 12l233 632h75l232 -617q3 -11 6.5 -14.5t14.5 -5.5l45 -8v-43h-238zM414 843l-1 -1q21 0 36 14t17 34h40q-20 -76 -72 -101q-19 -9 -43 -9
q-17 0 -31.5 5.5t-30.5 15.5t-24 14q-28 13 -53 13q-20 0 -35 -14.5t-17 -33.5h-40q20 76 72 101q20 9 43 9q17 0 31 -5t31 -16t23 -14q26 -12 54 -12z" />
    <glyph glyph-name="Adieresis" unicode="&#xc4;" horiz-adv-x="673" 
d="M314 558l-97 -262h195zM431 0v44l58 5q4 0 8 6t2 11l-69 183h-231l-66 -180q-2 -6 3 -13t11 -7l59 -5v-43h-201v43l58 12l233 632h75l232 -617q3 -11 6.5 -14.5t14.5 -5.5l45 -8v-43h-238zM230 892q23 0 38.5 -16t15.5 -39t-15.5 -39.5t-38.5 -16.5t-39 16t-16 39
t16 39.5t39 16.5zM438 892q22 0 37.5 -16t15.5 -39q0 -24 -15 -40t-38 -16q-24 0 -40 16t-16 40q0 22 16.5 38.5t39.5 16.5z" />
    <glyph glyph-name="Aring" unicode="&#xc5;" horiz-adv-x="673" 
d="M314 558l-97 -262h195zM431 0v44l58 5q4 0 8 6t2 11l-69 183h-231l-66 -180q-2 -6 3 -13t11 -7l59 -5v-43h-201v43l58 12l233 632h75l232 -617q3 -11 6.5 -14.5t14.5 -5.5l45 -8v-43h-238zM404 865v-1q0 31 -20 51t-50 20q-45 0 -64 -43q-6 -12 -6 -27q0 -30 20 -50
t50 -20t50 20t20 50zM453 864q0 -38 -21 -67t-52 -42q-21 -9 -46 -9q-77 0 -110 73q-9 21 -9 45q0 39 20.5 67.5t52.5 42.5q21 9 47 9q77 0 109 -73q9 -21 9 -46z" />
    <glyph glyph-name="AE" unicode="&#xc6;" horiz-adv-x="933" 
d="M481 625l-203 -326h203v326zM811 49v1q6 0 12 6.5t6 12.5l15 99h57v-167h-495v43l49 4q10 1 18 7t8 15v181h-231l-112 -181q-5 -7 -2.5 -13.5t9.5 -7.5l57 -5v-43h-197v43l53 8l340 552q4 7 -1.5 13t-12.5 7l-49 5v42h530v-149h-58l-14 82q-2 19 -17 19h-194v-249l126 -1
q6 0 11.5 6t6.5 12l9 69h49v-223h-49l-9 70q-1 5 -6.5 11t-11.5 6h-126v-275h229z" />
    <glyph glyph-name="Ccedilla" unicode="&#xc7;" horiz-adv-x="626" 
d="M400 -59l4 -2q34 0 53 -18.5t19 -52.5q0 -47 -32.5 -71t-84.5 -24q-38 0 -73 10v39q36 -8 61 -8q64 0 64 41q0 37 -47 37q-9 0 -23 -6v99q-89 10 -154.5 57.5t-102.5 120.5q-41 80 -41 173q0 154 97 253q96 98 253 98q14 0 29 -1t26 -2t26.5 -4.5t23.5 -5t24.5 -6
t22.5 -6t24.5 -7.5t22.5 -7v-157h-60l-15 91q-1 4 -3 8t-3.5 6t-6 5t-6.5 4l-7 3.5l-7 3.5q-42 20 -87 20q-86 0 -142 -45.5t-81 -121.5q-18 -56 -18 -127q0 -214 147 -278q47 -21 105 -21q45 0 73 14q6 3 7 3q14 6 19 20l23 109h58v-162q-15 -8 -63 -20q-72 -19 -137 -19
h-12v-47q16 4 24 4z" />
    <glyph glyph-name="Egrave" unicode="&#xc8;" horiz-adv-x="583" 
d="M376 306h1q0 5 -6.5 11.5t-11.5 6.5h-150v-275h253q6 0 11 6.5t6 12.5l18 99h54v-167h-519v43l52 4q22 2 22 22v533q0 20 -22 22l-52 4v43h486v-149h-60l-15 82q-1 7 -6 13t-12 6h-217v-249h150q6 0 12 5.5t6 11.5l10 69h51v-223h-51zM148 883l-1 1q0 21 12.5 33t33.5 12
q14 0 25 -4.5t14 -7.5l15 -15l133 -155h-57l-152 97q-23 14 -23 39z" />
    <glyph glyph-name="Eacute" unicode="&#xc9;" horiz-adv-x="583" 
d="M376 306h1q0 5 -6.5 11.5t-11.5 6.5h-150v-275h253q6 0 11 6.5t6 12.5l18 99h54v-167h-519v43l52 4q22 2 22 22v533q0 20 -22 22l-52 4v43h486v-149h-60l-15 82q-1 7 -6 13t-12 6h-217v-249h150q6 0 12 5.5t6 11.5l10 69h51v-223h-51zM391 928h1q22 0 34 -12t12 -33
t-23 -40l-153 -97h-56l132 155l4.5 4.5l4.5 4.5t4.5 4t5 4t5 3t6 3t6.5 2t8 1.5t9 0.5z" />
    <glyph glyph-name="Ecircumflex" unicode="&#xca;" horiz-adv-x="583" 
d="M376 306h1q0 5 -6.5 11.5t-11.5 6.5h-150v-275h253q6 0 11 6.5t6 12.5l18 99h54v-167h-519v43l52 4q22 2 22 22v533q0 20 -22 22l-52 4v43h486v-149h-60l-15 82q-1 7 -6 13t-12 6h-217v-249h150q6 0 12 5.5t6 11.5l10 69h51v-223h-51zM396 746l-103 99l-104 -99h-61
l126 169h76l126 -169h-60z" />
    <glyph glyph-name="Edieresis" unicode="&#xcb;" horiz-adv-x="583" 
d="M376 306h1q0 5 -6.5 11.5t-11.5 6.5h-150v-275h253q6 0 11 6.5t6 12.5l18 99h54v-167h-519v43l52 4q22 2 22 22v533q0 20 -22 22l-52 4v43h486v-149h-60l-15 82q-1 7 -6 13t-12 6h-217v-249h150q6 0 12 5.5t6 11.5l10 69h51v-223h-51zM189 891q23 0 38.5 -16t15.5 -39
t-15.5 -39.5t-38.5 -16.5t-39 16t-16 39t16 39.5t39 16.5zM397 891q22 0 37.5 -16t15.5 -39q0 -24 -15 -40t-38 -16q-24 0 -40 16t-16 40q0 22 16.5 38.5t39.5 16.5z" />
    <glyph glyph-name="Igrave" unicode="&#xcc;" horiz-adv-x="330" 
d="M33 0v43l60 4q21 2 21 22v533q0 19 -21 21l-60 4v44h264v-44l-61 -4q-8 -1 -14.5 -7t-6.5 -14v-533q0 -8 6.5 -14.5t14.5 -7.5l61 -4v-43h-264zM21 883l-1 1q0 21 12.5 33t33.5 12q14 0 25 -4.5t14 -7.5l15 -15l133 -155h-57l-152 97q-23 14 -23 39z" />
    <glyph glyph-name="Iacute" unicode="&#xcd;" horiz-adv-x="330" 
d="M33 0v43l60 4q21 2 21 22v533q0 19 -21 21l-60 4v44h264v-44l-61 -4q-8 -1 -14.5 -7t-6.5 -14v-533q0 -8 6.5 -14.5t14.5 -7.5l61 -4v-43h-264zM264 928h1q22 0 34 -12t12 -33t-23 -40l-153 -97h-56l132 155l4.5 4.5l4.5 4.5t4.5 4t5 4t5 3t6 3t6.5 2t8 1.5t9 0.5z" />
    <glyph glyph-name="Icircumflex" unicode="&#xce;" horiz-adv-x="330" 
d="M33 0v43l60 4q21 2 21 22v533q0 19 -21 21l-60 4v44h264v-44l-61 -4q-8 -1 -14.5 -7t-6.5 -14v-533q0 -8 6.5 -14.5t14.5 -7.5l61 -4v-43h-264zM269 746l-103 99l-104 -99h-61l126 169h76l126 -169h-60z" />
    <glyph glyph-name="Idieresis" unicode="&#xcf;" horiz-adv-x="330" 
d="M33 0v43l60 4q21 2 21 22v533q0 19 -21 21l-60 4v44h264v-44l-61 -4q-8 -1 -14.5 -7t-6.5 -14v-533q0 -8 6.5 -14.5t14.5 -7.5l61 -4v-43h-264zM62 891q23 0 38.5 -16t15.5 -39t-15.5 -39.5t-38.5 -16.5t-39 16t-16 39t16 39.5t39 16.5zM270 891q22 0 37.5 -16t15.5 -39
q0 -24 -15 -40t-38 -16q-24 0 -40 16t-16 40q0 22 16.5 38.5t39.5 16.5z" />
    <glyph glyph-name="Eth" unicode="&#xd0;" horiz-adv-x="695" 
d="M14 377h94v225q0 20 -22 22l-53 4v43h258q126 0 213 -47.5t126 -137.5q27 -63 27 -149q0 -132 -62 -214.5t-172 -110.5q-49 -12 -113 -12h-278v43l53 4q22 2 22 22v257h-93v51zM290 49q255 0 255 286q0 288 -260 288h-76v-246h158v-51h-158v-278z" />
    <glyph glyph-name="Ntilde" unicode="&#xd1;" horiz-adv-x="721" 
d="M636 624q-21 -2 -21 -22v-602h-78l-372 560v-491q0 -20 21 -22l57 -4v-43h-216v43l57 4q22 2 22 22v533q0 20 -22 22l-59 4v43h198v-25l333 -503v459q0 8 -6.5 14.5t-14.5 7.5l-57 4v43h214v-43zM439 842l-1 -1q21 0 36 14t17 34h40q-20 -76 -72 -101q-20 -9 -43 -9
q-17 0 -31.5 5.5t-30.5 15.5t-24 14q-28 13 -53 13q-20 0 -35 -14.5t-17 -33.5h-40q20 76 72 101q20 9 43 9q17 0 31 -5t31 -16t23 -14q26 -12 54 -12z" />
    <glyph glyph-name="Ograve" unicode="&#xd2;" horiz-adv-x="730" 
d="M576 334l1 -1q0 202 -118 272q-39 24 -91 24q-104 0 -161 -87q-52 -78 -52 -206q0 -201 117 -273q39 -24 92 -24q103 0 160 88q52 80 52 207zM693 334v2q0 -148 -90 -248q-92 -103 -237 -103q-146 0 -237 100q-90 100 -90 252q0 149 89 248q91 102 238 102
q145 0 238 -104q89 -99 89 -249zM222 884l-1 1q0 21 12.5 33t33.5 12q14 0 25 -4.5t14 -7.5l15 -15l133 -155h-57l-152 97q-23 14 -23 39z" />
    <glyph glyph-name="Oacute" unicode="&#xd3;" horiz-adv-x="730" 
d="M576 334l1 -1q0 202 -118 272q-39 24 -91 24q-104 0 -161 -87q-52 -78 -52 -206q0 -201 117 -273q39 -24 92 -24q103 0 160 88q52 80 52 207zM693 334v2q0 -148 -90 -248q-92 -103 -237 -103q-146 0 -237 100q-90 100 -90 252q0 149 89 248q91 102 238 102
q145 0 238 -104q89 -99 89 -249zM465 929h1q22 0 34 -12t12 -33t-23 -40l-153 -97h-56l132 155l4.5 4.5l4.5 4.5t4.5 4t5 4t5 3t6 3t6.5 2t8 1.5t9 0.5z" />
    <glyph glyph-name="Ocircumflex" unicode="&#xd4;" horiz-adv-x="730" 
d="M576 334l1 -1q0 202 -118 272q-39 24 -91 24q-104 0 -161 -87q-52 -78 -52 -206q0 -201 117 -273q39 -24 92 -24q103 0 160 88q52 80 52 207zM693 334v2q0 -148 -90 -248q-92 -103 -237 -103q-146 0 -237 100q-90 100 -90 252q0 149 89 248q91 102 238 102
q145 0 238 -104q89 -99 89 -249zM470 747l-103 99l-104 -99h-61l126 169h76l126 -169h-60z" />
    <glyph glyph-name="Otilde" unicode="&#xd5;" horiz-adv-x="730" 
d="M576 334l1 -1q0 202 -118 272q-39 24 -91 24q-104 0 -161 -87q-52 -78 -52 -206q0 -201 117 -273q39 -24 92 -24q103 0 160 88q52 80 52 207zM693 334v2q0 -148 -90 -248q-92 -103 -237 -103q-146 0 -237 100q-90 100 -90 252q0 149 89 248q91 102 238 102
q145 0 238 -104q89 -99 89 -249zM447 843l-1 -1q21 0 36 14t17 34h40q-20 -76 -72 -101q-19 -9 -43 -9q-17 0 -31.5 5.5t-30.5 15.5t-24 14q-28 13 -53 13q-20 0 -35 -14.5t-17 -33.5h-40q20 76 72 101q20 9 43 9q17 0 31 -5t31 -16t23 -14q26 -12 54 -12z" />
    <glyph glyph-name="Odieresis" unicode="&#xd6;" horiz-adv-x="730" 
d="M576 334l1 -1q0 202 -118 272q-39 24 -91 24q-104 0 -161 -87q-52 -78 -52 -206q0 -201 117 -273q39 -24 92 -24q103 0 160 88q52 80 52 207zM693 334v2q0 -148 -90 -248q-92 -103 -237 -103q-146 0 -237 100q-90 100 -90 252q0 149 89 248q91 102 238 102
q145 0 238 -104q89 -99 89 -249zM263 892q23 0 38.5 -16t15.5 -39t-15.5 -39.5t-38.5 -16.5t-39 16t-16 39t16 39.5t39 16.5zM471 892q22 0 37.5 -16t15.5 -39q0 -24 -15 -40t-38 -16q-24 0 -40 16t-16 40q0 22 16.5 38.5t39.5 16.5z" />
    <glyph glyph-name="multiply" unicode="&#xd7;" horiz-adv-x="1000" 
d="M731 30l-231 232l-231 -232l-39 39l230 231l-230 231l39 39l231 -232l231 232l39 -39l-230 -231l230 -231z" />
    <glyph glyph-name="Oslash" unicode="&#xd8;" horiz-adv-x="730" 
d="M479 592l1 -1q-43 38 -113 38q-104 0 -161 -87q-52 -78 -52 -206q0 -126 51 -206zM243 84q51 -46 122 -46q103 0 160 88q52 80 52 207q0 135 -57 217q-177 -296 -277 -466zM620 719v1q-50 -84 -58 -97q94 -72 122 -202q9 -42 9 -86q0 -148 -90 -248q-92 -103 -237 -103
q-92 0 -161 40q-11 -17 -31 -51.5t-30 -51.5l-46 28l63 106q-85 67 -113 197q-9 40 -9 84q0 149 89 248q91 102 238 102q80 0 150 -35l57 96z" />
    <glyph glyph-name="Ugrave" unicode="&#xd9;" horiz-adv-x="711" 
d="M376 51q91 0 131 49.5t40 147.5v354q0 20 -22 22l-57 4v43h217v-43l-58 -4q-21 -2 -21 -22v-380q0 -238 -257 -238q-244 0 -244 238v380q0 20 -21 22l-53 4v43h254v-43l-57 -4q-21 -2 -21 -22v-354q0 -100 38.5 -148.5t130.5 -48.5zM222 883l-1 1q0 21 12.5 33t33.5 12
q14 0 25 -4.5t14 -7.5l15 -15l133 -155h-57l-152 97q-23 14 -23 39z" />
    <glyph glyph-name="Uacute" unicode="&#xda;" horiz-adv-x="711" 
d="M376 51q91 0 131 49.5t40 147.5v354q0 20 -22 22l-57 4v43h217v-43l-58 -4q-21 -2 -21 -22v-380q0 -238 -257 -238q-244 0 -244 238v380q0 20 -21 22l-53 4v43h254v-43l-57 -4q-21 -2 -21 -22v-354q0 -100 38.5 -148.5t130.5 -48.5zM465 928h1q22 0 34 -12t12 -33
t-23 -40l-153 -97h-56l132 155l4.5 4.5l4.5 4.5t4.5 4t5 4t5 3t6 3t6.5 2t8 1.5t9 0.5z" />
    <glyph glyph-name="Ucircumflex" unicode="&#xdb;" horiz-adv-x="711" 
d="M376 51q91 0 131 49.5t40 147.5v354q0 20 -22 22l-57 4v43h217v-43l-58 -4q-21 -2 -21 -22v-380q0 -238 -257 -238q-244 0 -244 238v380q0 20 -21 22l-53 4v43h254v-43l-57 -4q-21 -2 -21 -22v-354q0 -100 38.5 -148.5t130.5 -48.5zM470 746l-103 99l-104 -99h-61
l126 169h76l126 -169h-60z" />
    <glyph glyph-name="Udieresis" unicode="&#xdc;" horiz-adv-x="711" 
d="M376 51q91 0 131 49.5t40 147.5v354q0 20 -22 22l-57 4v43h217v-43l-58 -4q-21 -2 -21 -22v-380q0 -238 -257 -238q-244 0 -244 238v380q0 20 -21 22l-53 4v43h254v-43l-57 -4q-21 -2 -21 -22v-354q0 -100 38.5 -148.5t130.5 -48.5zM263 891q23 0 38.5 -16t15.5 -39
t-15.5 -39.5t-38.5 -16.5t-39 16t-16 39t16 39.5t39 16.5zM471 891q22 0 37.5 -16t15.5 -39q0 -24 -15 -40t-38 -16q-24 0 -40 16t-16 40q0 22 16.5 38.5t39.5 16.5z" />
    <glyph glyph-name="Yacute" unicode="&#xdd;" horiz-adv-x="625" 
d="M562 618l-201 -333v-216q0 -8 6.5 -14.5t14.5 -7.5l64 -4v-43h-270v43l62 4q22 2 22 22v201l-192 346l-58 12v43h237v-43l-50 -5q-22 -2 -12 -20l141 -261l155 258q4 8 -0.5 14t-11.5 7l-56 7v43h203v-43zM412 928h1q22 0 34 -12t12 -33t-23 -40l-153 -97h-56l132 155
l4.5 4.5l4.5 4.5t4.5 4t5 4t5 3t6 3t6.5 2t8 1.5t9 0.5z" />
    <glyph glyph-name="Thorn" unicode="&#xde;" horiz-adv-x="578" 
d="M265 183q81 -1 120.5 39.5t39.5 124.5q0 83 -42 119.5t-129 32.5h-25q-14 -2 -22 -3v-309l22 -2q20 -2 36 -2zM278 132v-2q-45 0 -71 5v-68q0 -9 6.5 -14.5t15.5 -6.5l58 -4v-43h-255v43l51 4q9 1 15.5 6.5t6.5 14.5v533q0 9 -6.5 14.5t-15.5 6.5l-51 4v43h255v-43
l-58 -4q-9 -1 -15.5 -6.5t-6.5 -14.5v-56l68 -1q63 -1 108.5 -10t82 -30.5t55 -61t18.5 -96.5q0 -80 -42.5 -130t-113.5 -71q-48 -14 -105 -12z" />
    <glyph glyph-name="germandbls" unicode="&#xdf;" horiz-adv-x="627" 
d="M478 469l1 2q-93 0 -93 -76q0 -32 33 -59q19 -16 58 -38t67.5 -45t41.5 -54q9 -21 9 -48q0 -56 -29.5 -94t-77.5 -55q-32 -12 -67 -12q-26 0 -76 12q-21 4 -42 12v134h54l9 -87q25 -25 60 -25q37 0 60.5 24t23.5 61q0 47 -56 84q-14 10 -47.5 29t-57 36t-38.5 38
q-16 22 -16 54q0 56 34 90.5t87 46.5l4 26q0 4 2.5 21t2.5 25q0 75 -56 105q-19 10 -45 10q-76 0 -108.5 -64t-32.5 -160v-397q0 -21 15 -24l51 -4v-38h-227v38l48 5q8 1 14 8t6 15v387q0 105 45.5 175.5t126.5 97.5q36 12 80 12q83 0 129 -42.5t46 -123.5q0 -49 -14 -93
q-3 -9 -3 -11q-2 0 -9 1t-13 1z" />
    <glyph glyph-name="agrave" unicode="&#xe0;" horiz-adv-x="508" 
d="M133 130l-1 -1q0 -36 20.5 -59.5t54.5 -23.5q26 0 82 23q23 11 41 24v173q-66 -16 -106 -33q-39 -17 -60 -33q-31 -25 -31 -70zM264 493v1q80 0 119 -36.5t39 -113.5v-280q0 -19 21 -21l48 -3v-39h-148l-13 59q-71 -55 -138 -69q-15 -3 -30 -3q-88 0 -119 78
q-10 23 -10 56q0 51 26.5 78t76.5 48q64 28 194 56v43q0 99 -93 99q-41 0 -71 -13v-87h-73q-37 0 -37 29q0 57 67 89q60 29 141 29zM104 688l-1 1q0 21 12.5 33t33.5 12q14 0 25 -4.5t14 -7.5l15 -15l133 -155h-57l-152 97q-23 14 -23 39z" />
    <glyph glyph-name="aacute" unicode="&#xe1;" horiz-adv-x="508" 
d="M133 130l-1 -1q0 -36 20.5 -59.5t54.5 -23.5q26 0 82 23q23 11 41 24v173q-66 -16 -106 -33q-39 -17 -60 -33q-31 -25 -31 -70zM264 493v1q80 0 119 -36.5t39 -113.5v-280q0 -19 21 -21l48 -3v-39h-148l-13 59q-71 -55 -138 -69q-15 -3 -30 -3q-88 0 -119 78
q-10 23 -10 56q0 51 26.5 78t76.5 48q64 28 194 56v43q0 99 -93 99q-41 0 -71 -13v-87h-73q-37 0 -37 29q0 57 67 89q60 29 141 29zM347 733h1q22 0 34 -12t12 -33t-23 -40l-153 -97h-56l132 155l4.5 4.5l4.5 4.5t4.5 4t5 4t5 3t6 3t6.5 2t8 1.5t9 0.5z" />
    <glyph glyph-name="acircumflex" unicode="&#xe2;" horiz-adv-x="508" 
d="M133 130l-1 -1q0 -36 20.5 -59.5t54.5 -23.5q26 0 82 23q23 11 41 24v173q-66 -16 -106 -33q-39 -17 -60 -33q-31 -25 -31 -70zM264 493v1q80 0 119 -36.5t39 -113.5v-280q0 -19 21 -21l48 -3v-39h-148l-13 59q-71 -55 -138 -69q-15 -3 -30 -3q-88 0 -119 78
q-10 23 -10 56q0 51 26.5 78t76.5 48q64 28 194 56v43q0 99 -93 99q-41 0 -71 -13v-87h-73q-37 0 -37 29q0 57 67 89q60 29 141 29zM352 551l-103 99l-104 -99h-61l126 169h76l126 -169h-60z" />
    <glyph glyph-name="atilde" unicode="&#xe3;" horiz-adv-x="508" 
d="M133 130l-1 -1q0 -36 20.5 -59.5t54.5 -23.5q26 0 82 23q23 11 41 24v173q-66 -16 -106 -33q-39 -17 -60 -33q-31 -25 -31 -70zM264 493v1q80 0 119 -36.5t39 -113.5v-280q0 -19 21 -21l48 -3v-39h-148l-13 59q-71 -55 -138 -69q-15 -3 -30 -3q-88 0 -119 78
q-10 23 -10 56q0 51 26.5 78t76.5 48q64 28 194 56v43q0 99 -93 99q-41 0 -71 -13v-87h-73q-37 0 -37 29q0 57 67 89q60 29 141 29zM329 647l-1 -1q21 0 36 14t17 34h40q-20 -76 -72 -101q-19 -9 -43 -9q-17 0 -31.5 5.5t-30.5 15.5t-24 14q-28 13 -53 13q-20 0 -35 -14.5
t-17 -33.5h-40q20 76 72 101q19 9 43 9q17 0 31 -5t31 -16t23 -14q26 -12 54 -12z" />
    <glyph glyph-name="adieresis" unicode="&#xe4;" horiz-adv-x="508" 
d="M133 130l-1 -1q0 -36 20.5 -59.5t54.5 -23.5q26 0 82 23q23 11 41 24v173q-66 -16 -106 -33q-39 -17 -60 -33q-31 -25 -31 -70zM264 493v1q80 0 119 -36.5t39 -113.5v-280q0 -19 21 -21l48 -3v-39h-148l-13 59q-71 -55 -138 -69q-15 -3 -30 -3q-88 0 -119 78
q-10 23 -10 56q0 51 26.5 78t76.5 48q64 28 194 56v43q0 99 -93 99q-41 0 -71 -13v-87h-73q-37 0 -37 29q0 57 67 89q60 29 141 29zM145 696q23 0 38.5 -16t15.5 -39t-15.5 -39.5t-38.5 -16.5t-39 16t-16 39t16 39.5t39 16.5zM353 696q22 0 37.5 -16t15.5 -39q0 -24 -15 -40
t-38 -16q-24 0 -40 16t-16 40q0 22 16.5 38.5t39.5 16.5z" />
    <glyph glyph-name="aring" unicode="&#xe5;" horiz-adv-x="508" 
d="M133 130l-1 -1q0 -36 20.5 -59.5t54.5 -23.5q26 0 82 23q23 11 41 24v173q-66 -16 -106 -33q-39 -17 -60 -33q-31 -25 -31 -70zM264 493v1q80 0 119 -36.5t39 -113.5v-280q0 -19 21 -21l48 -3v-39h-148l-13 59q-71 -55 -138 -69q-15 -3 -30 -3q-88 0 -119 78
q-10 23 -10 56q0 51 26.5 78t76.5 48q64 28 194 56v43q0 99 -93 99q-41 0 -71 -13v-87h-73q-37 0 -37 29q0 57 67 89q60 29 141 29zM318 669v-1q0 31 -20 51t-50 20q-45 0 -64 -43q-6 -12 -6 -27q0 -30 20 -50t50 -20t50 20t20 50zM367 668q0 -38 -21 -67t-52 -42
q-21 -9 -46 -9q-77 0 -110 73q-9 21 -9 45q0 39 20.5 67.5t52.5 42.5q21 9 47 9q77 0 109 -73q9 -21 9 -46z" />
    <glyph glyph-name="ae" unicode="&#xe6;" horiz-adv-x="721" 
d="M588 329h1q0 79 -47 108q-16 10 -39 10q-95 0 -95 -148h180v30zM131 133v-2q0 -39 19.5 -62t56.5 -23q31 0 72 23q18 10 37 24v173q-106 -28 -148 -59q-37 -26 -37 -74zM554 53l1 -1q29 0 55.5 9t41.5 18.5t37 27.5v-60q-84 -62 -166 -62q-70 0 -135 38q-27 17 -47 38
q-76 -60 -143 -73q-16 -3 -33 -3q-60 0 -94.5 35.5t-34.5 95.5q0 43 16 68.5t48 44.5q33 19 87 36q57 17 130 36v41q0 52 -19.5 76.5t-67.5 24.5q-35 0 -63 -13v-87h-70q-20 0 -29 6t-9 23q0 56 64 90q54 28 132 28q89 0 119 -40q3 -5 14 -18q50 59 134 59q83 0 124.5 -56
t41.5 -147v-10q0 -8 -1 -11q0 -8 -1 -13h-277v-133q68 -68 145 -68z" />
    <glyph glyph-name="ccedilla" unicode="&#xe7;" horiz-adv-x="465" 
d="M300 -59v-2q34 0 53 -18.5t19 -52.5q0 -47 -32.5 -71t-84.5 -24q-38 0 -73 10v39q36 -8 61 -8q64 0 64 41q0 37 -47 37q-9 0 -23 -6v101q-70 6 -118 46t-69 103q-16 45 -16 100q0 90 40 152t109 88q45 17 92 17q106 0 143 -57q12 -19 12 -43q0 -27 -16.5 -43t-42.5 -16
q-22 0 -50 17v87q-20 13 -42 13q-100 0 -133 -121q-10 -36 -10 -81q0 -137 94 -184q32 -15 72 -15q64 0 130 43v-57q-86 -45 -156 -48v-51q16 4 24 4z" />
    <glyph glyph-name="egrave" unicode="&#xe8;" horiz-adv-x="490" 
d="M131 261l-1 -1q0 -96 41 -154t126 -58q10 0 20 1t18 2.5t18 5t16 5.5t16.5 7t14.5 7t15 9t13.5 8t14 8.5t12.5 8.5v-61q-70 -43 -140 -57q-27 -5 -50 -5q-78 0 -132 37.5t-80 100.5q-19 45 -19 110q0 89 38 151t103 90q43 18 94 18q91 0 139 -55t48 -150v-13
q0 -10 -1 -15h-324zM355 327q0 53 -24.5 85t-72.5 32q-56 0 -87.5 -39.5t-35.5 -99.5h220v22zM116 687l-1 1q0 21 12.5 33t33.5 12q14 0 25 -4.5t14 -7.5l15 -15l133 -155h-57l-152 97q-23 14 -23 39z" />
    <glyph glyph-name="eacute" unicode="&#xe9;" horiz-adv-x="490" 
d="M131 261l-1 -1q0 -96 41 -154t126 -58q10 0 20 1t18 2.5t18 5t16 5.5t16.5 7t14.5 7t15 9t13.5 8t14 8.5t12.5 8.5v-61q-70 -43 -140 -57q-27 -5 -50 -5q-78 0 -132 37.5t-80 100.5q-19 45 -19 110q0 89 38 151t103 90q43 18 94 18q91 0 139 -55t48 -150v-13
q0 -10 -1 -15h-324zM355 327q0 53 -24.5 85t-72.5 32q-56 0 -87.5 -39.5t-35.5 -99.5h220v22zM359 732h1q22 0 34 -12t12 -33t-23 -40l-153 -97h-56l132 155l4.5 4.5l4.5 4.5t4.5 4t5 4t5 3t6 3t6.5 2t8 1.5t9 0.5z" />
    <glyph glyph-name="ecircumflex" unicode="&#xea;" horiz-adv-x="490" 
d="M131 261l-1 -1q0 -96 41 -154t126 -58q10 0 20 1t18 2.5t18 5t16 5.5t16.5 7t14.5 7t15 9t13.5 8t14 8.5t12.5 8.5v-61q-70 -43 -140 -57q-27 -5 -50 -5q-78 0 -132 37.5t-80 100.5q-19 45 -19 110q0 89 38 151t103 90q43 18 94 18q91 0 139 -55t48 -150v-13
q0 -10 -1 -15h-324zM355 327q0 53 -24.5 85t-72.5 32q-56 0 -87.5 -39.5t-35.5 -99.5h220v22zM364 550l-103 99l-104 -99h-61l126 169h76l126 -169h-60z" />
    <glyph glyph-name="edieresis" unicode="&#xeb;" horiz-adv-x="490" 
d="M131 261l-1 -1q0 -96 41 -154t126 -58q10 0 20 1t18 2.5t18 5t16 5.5t16.5 7t14.5 7t15 9t13.5 8t14 8.5t12.5 8.5v-61q-70 -43 -140 -57q-27 -5 -50 -5q-78 0 -132 37.5t-80 100.5q-19 45 -19 110q0 89 38 151t103 90q43 18 94 18q91 0 139 -55t48 -150v-13
q0 -10 -1 -15h-324zM355 327q0 53 -24.5 85t-72.5 32q-56 0 -87.5 -39.5t-35.5 -99.5h220v22zM157 695q23 0 38.5 -16t15.5 -39t-15.5 -39.5t-38.5 -16.5t-39 16t-16 39t16 39.5t39 16.5zM365 695q22 0 37.5 -16t15.5 -39q0 -24 -15 -40t-38 -16q-24 0 -40 16t-16 40
q0 22 16.5 38.5t39.5 16.5z" />
    <glyph glyph-name="igrave" unicode="&#xec;" horiz-adv-x="303" 
d="M34 0v39l49 3q21 2 21 21v357h-69v35l122 38h40v-430q0 -19 21 -21l51 -3v-39h-235zM7 688l-1 1q0 21 12.5 33t33.5 12q14 0 25 -4.5t14 -7.5l15 -15l133 -155h-57l-152 97q-23 14 -23 39z" />
    <glyph glyph-name="iacute" unicode="&#xed;" horiz-adv-x="303" 
d="M34 0v39l49 3q21 2 21 21v357h-69v35l122 38h40v-430q0 -19 21 -21l51 -3v-39h-235zM250 733h1q22 0 34 -12t12 -33t-23 -40l-153 -97h-56l132 155l4.5 4.5l4.5 4.5t4.5 4t5 4t5 3t6 3t6.5 2t8 1.5t9 0.5z" />
    <glyph glyph-name="icircumflex" unicode="&#xee;" horiz-adv-x="303" 
d="M34 0v39l49 3q21 2 21 21v357h-69v35l122 38h40v-430q0 -19 21 -21l51 -3v-39h-235zM255 551l-103 99l-104 -99h-61l126 169h76l126 -169h-60z" />
    <glyph glyph-name="idieresis" unicode="&#xef;" horiz-adv-x="303" 
d="M34 0v39l49 3q21 2 21 21v357h-69v35l122 38h40v-430q0 -19 21 -21l51 -3v-39h-235zM48 696q23 0 38.5 -16t15.5 -39t-15.5 -39.5t-38.5 -16.5t-39 16t-16 39t16 39.5t39 16.5zM256 696q22 0 37.5 -16t15.5 -39q0 -24 -15 -40t-38 -16q-24 0 -40 16t-16 40
q0 22 16.5 38.5t39.5 16.5z" />
    <glyph glyph-name="eth" unicode="&#xf0;" horiz-adv-x="539" 
d="M408 251h-1q0 116 -39 179l-26 10q-26 10 -50 10q-79 0 -117 -58t-38 -149q0 -141 73 -192q26 -18 63 -18q68 0 105 69q30 57 30 149zM504 271h1q0 -95 -37 -163.5t-104 -98.5q-45 -20 -94 -20q-83 0 -138.5 42t-80.5 111q-17 48 -17 102q0 85 39.5 145t106.5 87
q44 18 96 18q22 0 60 -12q2 0 5 -1q1 -1 2 -1q-15 27 -67 94q-3 3 -5 6.5t-3 5.5l-2 2l-127 -76l-22 40l115 69l-35 40l-84 11v28l123 37l72 -74l109 65l23 -40l-102 -62q121 -136 156 -274q10 -37 10 -81z" />
    <glyph glyph-name="ntilde" unicode="&#xf1;" horiz-adv-x="566" 
d="M348 494h1q66 0 100 -41t34 -113v-276q0 -19 21 -21l44 -3v-39h-221v39l42 3q21 2 21 21v260q0 97 -96 97q-56 0 -110 -29v-328q0 -19 21 -21l42 -3v-39h-226v39l49 3q21 2 21 21v347h-70v33l122 38h41v-50q75 44 128 57q22 5 36 5zM365 647l-1 -1q21 0 36 14t17 34h40
q-20 -76 -72 -101q-19 -9 -43 -9q-17 0 -31.5 5.5t-30.5 15.5t-24 14q-28 13 -53 13q-20 0 -35 -14.5t-17 -33.5h-40q20 76 72 101q19 9 43 9q17 0 31 -5t31 -16t23 -14q26 -12 54 -12z" />
    <glyph glyph-name="ograve" unicode="&#xf2;" horiz-adv-x="543" 
d="M406 241h-1q0 139 -74 191q-25 17 -58 17q-99 0 -127 -129q-8 -40 -8 -78q0 -138 74 -190q26 -18 60 -18q98 0 126 129q8 40 8 78zM509 240v-2q0 -84 -38 -144t-102 -88q-42 -19 -99 -19q-84 0 -139.5 41.5t-80.5 110.5q-16 45 -16 100q0 85 37.5 145.5t102.5 89.5
q45 20 99 20q84 0 139.5 -42.5t80.5 -112.5q16 -45 16 -99zM127 686l-1 1q0 21 12.5 33t33.5 12q14 0 25 -4.5t14 -7.5l15 -15l133 -155h-57l-152 97q-23 14 -23 39z" />
    <glyph glyph-name="oacute" unicode="&#xf3;" horiz-adv-x="543" 
d="M406 241h-1q0 139 -74 191q-25 17 -58 17q-99 0 -127 -129q-8 -40 -8 -78q0 -138 74 -190q26 -18 60 -18q98 0 126 129q8 40 8 78zM509 240v-2q0 -84 -38 -144t-102 -88q-42 -19 -99 -19q-84 0 -139.5 41.5t-80.5 110.5q-16 45 -16 100q0 85 37.5 145.5t102.5 89.5
q45 20 99 20q84 0 139.5 -42.5t80.5 -112.5q16 -45 16 -99zM370 731h1q22 0 34 -12t12 -33t-23 -40l-153 -97h-56l132 155l4.5 4.5l4.5 4.5t4.5 4t5 4t5 3t6 3t6.5 2t8 1.5t9 0.5z" />
    <glyph glyph-name="ocircumflex" unicode="&#xf4;" horiz-adv-x="543" 
d="M406 241h-1q0 139 -74 191q-25 17 -58 17q-99 0 -127 -129q-8 -40 -8 -78q0 -138 74 -190q26 -18 60 -18q98 0 126 129q8 40 8 78zM509 240v-2q0 -84 -38 -144t-102 -88q-42 -19 -99 -19q-84 0 -139.5 41.5t-80.5 110.5q-16 45 -16 100q0 85 37.5 145.5t102.5 89.5
q45 20 99 20q84 0 139.5 -42.5t80.5 -112.5q16 -45 16 -99zM375 549l-103 99l-104 -99h-61l126 169h76l126 -169h-60z" />
    <glyph glyph-name="otilde" unicode="&#xf5;" horiz-adv-x="543" 
d="M406 241h-1q0 139 -74 191q-25 17 -58 17q-99 0 -127 -129q-8 -40 -8 -78q0 -138 74 -190q26 -18 60 -18q98 0 126 129q8 40 8 78zM509 240v-2q0 -84 -38 -144t-102 -88q-42 -19 -99 -19q-84 0 -139.5 41.5t-80.5 110.5q-16 45 -16 100q0 85 37.5 145.5t102.5 89.5
q45 20 99 20q84 0 139.5 -42.5t80.5 -112.5q16 -45 16 -99zM352 645l-1 -1q21 0 36 14t17 34h40q-20 -76 -72 -101q-19 -9 -43 -9q-17 0 -31.5 5.5t-30.5 15.5t-24 14q-28 13 -53 13q-20 0 -35 -14.5t-17 -33.5h-40q20 76 72 101q19 9 43 9q17 0 31 -5t31 -16t23 -14
q26 -12 54 -12z" />
    <glyph glyph-name="odieresis" unicode="&#xf6;" horiz-adv-x="543" 
d="M406 241h-1q0 139 -74 191q-25 17 -58 17q-99 0 -127 -129q-8 -40 -8 -78q0 -138 74 -190q26 -18 60 -18q98 0 126 129q8 40 8 78zM509 240v-2q0 -84 -38 -144t-102 -88q-42 -19 -99 -19q-84 0 -139.5 41.5t-80.5 110.5q-16 45 -16 100q0 85 37.5 145.5t102.5 89.5
q45 20 99 20q84 0 139.5 -42.5t80.5 -112.5q16 -45 16 -99zM168 694q23 0 38.5 -16t15.5 -39t-15.5 -39.5t-38.5 -16.5t-39 16t-16 39t16 39.5t39 16.5zM376 694q22 0 37.5 -16t15.5 -39q0 -24 -15 -40t-38 -16q-24 0 -40 16t-16 40q0 22 16.5 38.5t39.5 16.5z" />
    <glyph glyph-name="divide" unicode="&#xf7;" horiz-adv-x="1000" 
d="M500 199q26 0 43 -17t17 -43t-17 -42.5t-43 -16.5t-43 16.5t-17 42.5t17 43t43 17zM200 269v62h600v-62h-600zM500 521q26 0 43 -17.5t17 -42.5q0 -26 -17 -43t-43 -17t-43 17t-17 43t17 43t43 17z" />
    <glyph glyph-name="oslash" unicode="&#xf8;" horiz-adv-x="543" 
d="M190 71v1q34 -38 82 -38q98 0 126 129q8 40 8 78q0 91 -34 148zM344 424l1 -1q-29 26 -71 26q-99 0 -127 -129q-8 -40 -8 -78q0 -76 26 -131zM410 454l1 -1q101 -72 101 -215q0 -84 -38 -144t-102 -88q-42 -19 -99 -19q-62 0 -114 27l-55 -97l-35 21l56 98
q-89 71 -89 203q0 85 37.5 145.5t102.5 89.5q45 20 99 20q56 0 99 -20l50 87l36 -20z" />
    <glyph glyph-name="ugrave" unicode="&#xf9;" horiz-adv-x="568" 
d="M280 56l2 -2q38 0 107 30v335h-70v34l122 39h41v-430q0 -9 6.5 -14.5t15.5 -6.5l44 -3v-39h-159v57q-59 -44 -116 -61q-21 -7 -45 -7q-138 0 -138 162v271h-70v34l123 39h40v-325q0 -113 97 -113zM141 686l-1 1q0 21 12.5 33t33.5 12q14 0 25 -4.5t14 -7.5l15 -15
l133 -155h-57l-152 97q-23 14 -23 39z" />
    <glyph glyph-name="uacute" unicode="&#xfa;" horiz-adv-x="568" 
d="M280 56l2 -2q38 0 107 30v335h-70v34l122 39h41v-430q0 -9 6.5 -14.5t15.5 -6.5l44 -3v-39h-159v57q-59 -44 -116 -61q-21 -7 -45 -7q-138 0 -138 162v271h-70v34l123 39h40v-325q0 -113 97 -113zM384 731h1q22 0 34 -12t12 -33t-23 -40l-153 -97h-56l132 155l4.5 4.5
l4.5 4.5t4.5 4t5 4t5 3t6 3t6.5 2t8 1.5t9 0.5z" />
    <glyph glyph-name="ucircumflex" unicode="&#xfb;" horiz-adv-x="568" 
d="M280 56l2 -2q38 0 107 30v335h-70v34l122 39h41v-430q0 -9 6.5 -14.5t15.5 -6.5l44 -3v-39h-159v57q-59 -44 -116 -61q-21 -7 -45 -7q-138 0 -138 162v271h-70v34l123 39h40v-325q0 -113 97 -113zM389 549l-103 99l-104 -99h-61l126 169h76l126 -169h-60z" />
    <glyph glyph-name="udieresis" unicode="&#xfc;" horiz-adv-x="568" 
d="M280 56l2 -2q38 0 107 30v335h-70v34l122 39h41v-430q0 -9 6.5 -14.5t15.5 -6.5l44 -3v-39h-159v57q-59 -44 -116 -61q-21 -7 -45 -7q-138 0 -138 162v271h-70v34l123 39h40v-325q0 -113 97 -113zM182 694q23 0 38.5 -16t15.5 -39t-15.5 -39.5t-38.5 -16.5t-39 16t-16 39
t16 39.5t39 16.5zM390 694q22 0 37.5 -16t15.5 -39q0 -24 -15 -40t-38 -16q-24 0 -40 16t-16 40q0 22 16.5 38.5t39.5 16.5z" />
    <glyph glyph-name="yacute" unicode="&#xfd;" horiz-adv-x="529" 
d="M468 437l-191 -468q-30 -72 -62 -121q-47 -77 -117 -77q-51 0 -68 36q-5 12 -5 21q0 33 32 60l94 -43q45 45 84 156l-170 436l-55 6v39h221v-39l-48 -3q-8 -1 -13 -7.5t-2 -14.5l116 -295l119 295q3 8 -2 14.5t-12 7.5l-47 3v39h178v-39zM374 733h1q22 0 34 -12t12 -33
t-23 -40l-153 -97h-56l132 155l4.5 4.5l4.5 4.5t4.5 4t5 4t5 3t6 3t6.5 2t8 1.5t9 0.5z" />
    <glyph glyph-name="thorn" unicode="&#xfe;" horiz-adv-x="559" 
d="M183 50l1 1q46 -16 81 -16q117 0 151 125q10 34 10 75q0 129 -80 174q-27 15 -61 15q-31 0 -70 -15q-18 -6 -32 -15v-344zM273 -11h1q-40 0 -89 9v-149q0 -18 22 -20l59 -6v-39h-243v39l48 6q21 2 21 20v818h-69v33l123 38h39v-305q42 34 94 52q27 9 56 9q79 0 133 -67
q57 -70 57 -179q0 -91 -39 -152.5t-108 -88.5q-46 -18 -105 -18z" />
    <glyph glyph-name="ydieresis" unicode="&#xff;" horiz-adv-x="529" 
d="M468 437l-191 -468q-30 -72 -62 -121q-47 -77 -117 -77q-51 0 -68 36q-5 12 -5 21q0 33 32 60l94 -43q45 45 84 156l-170 436l-55 6v39h221v-39l-48 -3q-8 -1 -13 -7.5t-2 -14.5l116 -295l119 295q3 8 -2 14.5t-12 7.5l-47 3v39h178v-39zM172 696q23 0 38.5 -16t15.5 -39
t-15.5 -39.5t-38.5 -16.5t-39 16t-16 39t16 39.5t39 16.5zM380 696q22 0 37.5 -16t15.5 -39q0 -24 -15 -40t-38 -16q-24 0 -40 16t-16 40q0 22 16.5 38.5t39.5 16.5z" />
    <glyph glyph-name="Amacron" unicode="&#x100;" horiz-adv-x="673" 
d="M314 558l-97 -262h195zM431 0v44l58 5q4 0 8 6t2 11l-69 183h-231l-66 -180q-2 -6 3 -13t11 -7l59 -5v-43h-201v43l58 12l233 632h75l232 -617q3 -11 6.5 -14.5t14.5 -5.5l45 -8v-43h-238zM166 782v63h335v-63h-335z" />
    <glyph glyph-name="amacron" unicode="&#x101;" horiz-adv-x="508" 
d="M133 130l-1 -1q0 -36 20.5 -59.5t54.5 -23.5q26 0 82 23q23 11 41 24v173q-66 -16 -106 -33q-39 -17 -60 -33q-31 -25 -31 -70zM264 493v1q80 0 119 -36.5t39 -113.5v-280q0 -19 21 -21l48 -3v-39h-148l-13 59q-71 -55 -138 -69q-15 -3 -30 -3q-88 0 -119 78
q-10 23 -10 56q0 51 26.5 78t76.5 48q64 28 194 56v43q0 99 -93 99q-41 0 -71 -13v-87h-73q-37 0 -37 29q0 57 67 89q60 29 141 29zM81 586v63h335v-63h-335z" />
    <glyph glyph-name="Abreve" unicode="&#x102;" horiz-adv-x="673" 
d="M314 558l-97 -262h195zM431 0v44l58 5q4 0 8 6t2 11l-69 183h-231l-66 -180q-2 -6 3 -13t11 -7l59 -5v-43h-201v43l58 12l233 632h75l232 -617q3 -11 6.5 -14.5t14.5 -5.5l45 -8v-43h-238zM333 814h1q44 0 72.5 21.5t36.5 59.5h40q0 -47 -23.5 -83t-60.5 -53
q-27 -13 -66 -13q-105 0 -140 96q-9 27 -9 53h39q8 -38 37 -59.5t73 -21.5z" />
    <glyph glyph-name="abreve" unicode="&#x103;" horiz-adv-x="508" 
d="M133 130l-1 -1q0 -36 20.5 -59.5t54.5 -23.5q26 0 82 23q23 11 41 24v173q-66 -16 -106 -33q-39 -17 -60 -33q-31 -25 -31 -70zM264 493v1q80 0 119 -36.5t39 -113.5v-280q0 -19 21 -21l48 -3v-39h-148l-13 59q-71 -55 -138 -69q-15 -3 -30 -3q-88 0 -119 78
q-10 23 -10 56q0 51 26.5 78t76.5 48q64 28 194 56v43q0 99 -93 99q-41 0 -71 -13v-87h-73q-37 0 -37 29q0 57 67 89q60 29 141 29zM248 618h1q44 0 72.5 21.5t36.5 59.5h40q0 -47 -23.5 -83t-60.5 -53q-27 -13 -66 -13q-105 0 -140 96q-9 27 -9 53h39q8 -38 37 -59.5
t73 -21.5z" />
    <glyph glyph-name="Aogonek" unicode="&#x104;" horiz-adv-x="673" 
d="M575 -141v1q15 0 41 18l24 -40q-27 -14 -60 -24q-13 -4 -26 -4q-100 0 -100 73q0 71 68 118h-91v43l58 5q4 0 8 6t2 11l-69 183h-231l-66 -180q-2 -6 3 -13t11 -7l59 -5v-43h-201v43l58 12l233 632h75l232 -617q3 -11 6.5 -14.5t14.5 -5.5l45 -8v-43h-99q-53 -40 -53 -92
q0 -49 58 -49zM314 559l-97 -262h195z" />
    <glyph glyph-name="aogonek" unicode="&#x105;" horiz-adv-x="508" 
d="M398 -141v1q13 0 41 18l24 -40q-27 -14 -60 -24q-13 -4 -26 -4q-100 0 -100 73q0 71 68 118h-1l-13 59q-71 -55 -138 -69q-15 -3 -30 -3q-88 0 -119 78q-10 23 -10 56q0 51 26.5 78t76.5 48q64 28 194 56v43q0 99 -93 99q-41 0 -71 -13v-87h-73q-37 0 -37 29q0 57 67 89
q60 29 141 29q80 0 119 -36.5t39 -113.5v-280q0 -19 21 -21l48 -3v-39h-99q-53 -40 -53 -92q0 -49 58 -49zM133 131l-1 -1q0 -36 20.5 -59.5t54.5 -23.5q26 0 82 23q23 11 41 24v173q-66 -16 -106 -33q-39 -16 -60 -33q-31 -25 -31 -70z" />
    <glyph glyph-name="Cacute" unicode="&#x106;" horiz-adv-x="626" 
d="M389 687l4 -1q14 0 29 -1t26 -2t26.5 -4.5t23.5 -5t24.5 -6t22.5 -6t24.5 -7.5t22.5 -7v-157h-60l-15 91q-1 4 -3 8t-3.5 6t-6 5t-6.5 4l-7 3.5l-7 3.5q-42 20 -87 20q-86 0 -142 -45.5t-81 -121.5q-18 -56 -18 -127q0 -214 147 -278q47 -21 105 -21q45 0 73 14q6 3 7 3
q14 6 19 20l23 109h58v-162q-15 -8 -63 -20q-72 -19 -137 -19q-215 0 -308 180q-41 80 -41 173q0 154 97 253q96 98 253 98zM469 927h1q22 0 34 -12t12 -33t-23 -40l-153 -97h-56l132 155l4.5 4.5l4.5 4.5t4.5 4t5 4t5 3t6 3t6.5 2t8 1.5t9 0.5z" />
    <glyph glyph-name="cacute" unicode="&#x107;" horiz-adv-x="465" 
d="M302 51l-1 -1q64 0 130 43v-57q-90 -49 -168 -49q-82 0 -135.5 41t-77.5 109q-16 45 -16 100q0 90 40 152t109 88q45 17 92 17q106 0 143 -57q12 -20 12 -43q0 -27 -16.5 -43t-42.5 -16q-22 0 -50 17v87q-20 13 -42 13q-100 0 -133 -121q-10 -36 -10 -81q0 -137 94 -184
q32 -15 72 -15zM367 732h1q22 0 34 -12t12 -33t-23 -40l-153 -97h-56l132 155l4.5 4.5l4.5 4.5t4.5 4t5 4t5 3t6 3t6.5 2t8 1.5t9 0.5z" />
    <glyph glyph-name="Ccircumflex" unicode="&#x108;" horiz-adv-x="626" 
d="M389 687l4 -1q14 0 29 -1t26 -2t26.5 -4.5t23.5 -5t24.5 -6t22.5 -6t24.5 -7.5t22.5 -7v-157h-60l-15 91q-1 4 -3 8t-3.5 6t-6 5t-6.5 4l-7 3.5l-7 3.5q-42 20 -87 20q-86 0 -142 -45.5t-81 -121.5q-18 -56 -18 -127q0 -214 147 -278q47 -21 105 -21q45 0 73 14q6 3 7 3
q14 6 19 20l23 109h58v-162q-15 -8 -63 -20q-72 -19 -137 -19q-215 0 -308 180q-41 80 -41 173q0 154 97 253q96 98 253 98zM474 745l-103 99l-104 -99h-61l126 169h76l126 -169h-60z" />
    <glyph glyph-name="ccircumflex" unicode="&#x109;" horiz-adv-x="465" 
d="M302 51l-1 -1q64 0 130 43v-57q-90 -49 -168 -49q-82 0 -135.5 41t-77.5 109q-16 45 -16 100q0 90 40 152t109 88q45 17 92 17q106 0 143 -57q12 -20 12 -43q0 -27 -16.5 -43t-42.5 -16q-22 0 -50 17v87q-20 13 -42 13q-100 0 -133 -121q-10 -36 -10 -81q0 -137 94 -184
q32 -15 72 -15zM372 550l-103 99l-104 -99h-61l126 169h76l126 -169h-60z" />
    <glyph glyph-name="Cdotaccent" unicode="&#x10a;" horiz-adv-x="626" 
d="M389 687l4 -1q14 0 29 -1t26 -2t26.5 -4.5t23.5 -5t24.5 -6t22.5 -6t24.5 -7.5t22.5 -7v-157h-60l-15 91q-1 4 -3 8t-3.5 6t-6 5t-6.5 4l-7 3.5l-7 3.5q-42 20 -87 20q-86 0 -142 -45.5t-81 -121.5q-18 -56 -18 -127q0 -214 147 -278q47 -21 105 -21q45 0 73 14q6 3 7 3
q14 6 19 20l23 109h58v-162q-15 -8 -63 -20q-72 -19 -137 -19q-215 0 -308 180q-41 80 -41 173q0 154 97 253q96 98 253 98zM371 892q24 0 40 -16t16 -41q0 -24 -16 -40t-40 -16t-40 16t-16 40q0 25 16 41t40 16z" />
    <glyph glyph-name="cdotaccent" unicode="&#x10b;" horiz-adv-x="465" 
d="M302 51l-1 -1q64 0 130 43v-57q-90 -49 -168 -49q-82 0 -135.5 41t-77.5 109q-16 45 -16 100q0 90 40 152t109 88q45 17 92 17q106 0 143 -57q12 -20 12 -43q0 -27 -16.5 -43t-42.5 -16q-22 0 -50 17v87q-20 13 -42 13q-100 0 -133 -121q-10 -36 -10 -81q0 -137 94 -184
q32 -15 72 -15zM268 697q24 0 40 -16t16 -41q0 -24 -16 -40t-40 -16t-40 16t-16 40q0 25 16 41t40 16z" />
    <glyph glyph-name="Ccaron" unicode="&#x10c;" horiz-adv-x="626" 
d="M389 687l4 -1q14 0 29 -1t26 -2t26.5 -4.5t23.5 -5t24.5 -6t22.5 -6t24.5 -7.5t22.5 -7v-157h-60l-15 91q-1 4 -3 8t-3.5 6t-6 5t-6.5 4l-7 3.5l-7 3.5q-42 20 -87 20q-86 0 -142 -45.5t-81 -121.5q-18 -56 -18 -127q0 -214 147 -278q47 -21 105 -21q45 0 73 14q6 3 7 3
q14 6 19 20l23 109h58v-162q-15 -8 -63 -20q-72 -19 -137 -19q-215 0 -308 180q-41 80 -41 173q0 154 97 253q96 98 253 98zM408 745h-76l-126 169h61l104 -99l103 99h60z" />
    <glyph glyph-name="ccaron" unicode="&#x10d;" horiz-adv-x="465" 
d="M302 51l-1 -1q64 0 130 43v-57q-90 -49 -168 -49q-82 0 -135.5 41t-77.5 109q-16 45 -16 100q0 90 40 152t109 88q45 17 92 17q106 0 143 -57q12 -20 12 -43q0 -27 -16.5 -43t-42.5 -16q-22 0 -50 17v87q-20 13 -42 13q-100 0 -133 -121q-10 -36 -10 -81q0 -137 94 -184
q32 -15 72 -15zM306 550h-76l-126 169h61l104 -99l103 99h60z" />
    <glyph glyph-name="Dcaron" unicode="&#x10e;" horiz-adv-x="695" 
d="M289 49q255 0 255 286q0 288 -260 288h-76v-575zM657 337h1q0 -132 -62 -214.5t-172 -110.5q-50 -12 -113 -12h-278v43l53 4q22 2 22 22v533q0 20 -22 22l-53 4v43h258q126 0 213 -47.5t126 -137.5q27 -63 27 -149zM376 746h-76l-126 169h61l104 -99l103 99h60z" />
    <glyph glyph-name="dcaron" unicode="&#x10f;" horiz-adv-x="684" 
d="M579 752v-1q34 0 52.5 -22t18.5 -59q0 -53 -35 -84t-89 -41v29q37 11 54.5 31.5t17.5 63.5h-59q-5 0 -10 13.5t-5 22.5q0 22 16 34.5t39 12.5zM278 55v1q45 0 103 35v340q-45 15 -85 15q-59 0 -97 -32.5t-54 -85.5q-12 -38 -12 -84q0 -133 83 -175q28 -14 62 -14z
M289 494q12 0 93 -12v183h-76v33l129 39h40v-673q0 -19 21 -21l43 -3v-39h-157v53q-61 -46 -113 -60q-21 -6 -43 -6q-93 0 -146 78q-46 66 -46 162q0 88 38.5 150t104.5 93q49 23 112 23z" />
    <glyph glyph-name="Dcroat" unicode="&#x110;" horiz-adv-x="695" 
d="M14 377h94v225q0 20 -22 22l-53 4v43h258q126 0 213 -47.5t126 -137.5q27 -63 27 -149q0 -132 -62 -214.5t-172 -110.5q-49 -12 -113 -12h-278v43l53 4q22 2 22 22v257h-93v51zM290 49q255 0 255 286q0 288 -260 288h-76v-246h158v-51h-158v-278z" />
    <glyph glyph-name="dcroat" unicode="&#x111;" horiz-adv-x="563" 
d="M278 56v1q45 0 103 35v340q-45 15 -85 15q-59 0 -97 -32.5t-54 -85.5q-12 -37 -12 -84q0 -133 83 -175q28 -14 62 -14zM289 495q12 0 93 -12v58h-145v50h145v75h-76v33l129 39h40v-147h90v-50h-90v-476q0 -19 21 -21l43 -3v-39h-157v53q-61 -46 -113 -60q-21 -6 -43 -6
q-93 0 -146 78q-46 66 -46 162q0 88 38.5 150t104.5 93q49 23 112 23z" />
    <glyph glyph-name="Emacron" unicode="&#x112;" horiz-adv-x="583" 
d="M376 306h1q0 5 -6.5 11.5t-11.5 6.5h-150v-275h253q6 0 11 6.5t6 12.5l18 99h54v-167h-519v43l52 4q22 2 22 22v533q0 20 -22 22l-52 4v43h486v-149h-60l-15 82q-1 7 -6 13t-12 6h-217v-249h150q6 0 12 5.5t6 11.5l10 69h51v-223h-51zM125 781v63h335v-63h-335z" />
    <glyph glyph-name="emacron" unicode="&#x113;" horiz-adv-x="490" 
d="M131 261l-1 -1q0 -96 41 -154t126 -58q10 0 20 1t18 2.5t18 5t16 5.5t16.5 7t14.5 7t15 9t13.5 8t14 8.5t12.5 8.5v-61q-70 -43 -140 -57q-27 -5 -50 -5q-78 0 -132 37.5t-80 100.5q-19 45 -19 110q0 89 38 151t103 90q43 18 94 18q91 0 139 -55t48 -150v-13
q0 -10 -1 -15h-324zM355 327q0 53 -24.5 85t-72.5 32q-56 0 -87.5 -39.5t-35.5 -99.5h220v22zM93 585v63h335v-63h-335z" />
    <glyph glyph-name="Ebreve" unicode="&#x114;" horiz-adv-x="583" 
d="M376 306h1q0 5 -6.5 11.5t-11.5 6.5h-150v-275h253q6 0 11 6.5t6 12.5l18 99h54v-167h-519v43l52 4q22 2 22 22v533q0 20 -22 22l-52 4v43h486v-149h-60l-15 82q-1 7 -6 13t-12 6h-217v-249h150q6 0 12 5.5t6 11.5l10 69h51v-223h-51zM292 813h1q44 0 72.5 21.5
t36.5 59.5h40q0 -47 -23.5 -83t-60.5 -53q-27 -13 -66 -13q-105 0 -140 96q-9 27 -9 53h39q8 -38 37 -59.5t73 -21.5z" />
    <glyph glyph-name="ebreve" unicode="&#x115;" horiz-adv-x="490" 
d="M131 261l-1 -1q0 -96 41 -154t126 -58q10 0 20 1t18 2.5t18 5t16 5.5t16.5 7t14.5 7t15 9t13.5 8t14 8.5t12.5 8.5v-61q-70 -43 -140 -57q-27 -5 -50 -5q-78 0 -132 37.5t-80 100.5q-19 45 -19 110q0 89 38 151t103 90q43 18 94 18q91 0 139 -55t48 -150v-13
q0 -10 -1 -15h-324zM355 327q0 53 -24.5 85t-72.5 32q-56 0 -87.5 -39.5t-35.5 -99.5h220v22zM260 617h1q44 0 72.5 21.5t36.5 59.5h40q0 -47 -23.5 -83t-60.5 -53q-27 -13 -66 -13q-105 0 -140 96q-9 27 -9 53h39q8 -38 37 -59.5t73 -21.5z" />
    <glyph glyph-name="Edotaccent" unicode="&#x116;" horiz-adv-x="583" 
d="M376 306h1q0 5 -6.5 11.5t-11.5 6.5h-150v-275h253q6 0 11 6.5t6 12.5l18 99h54v-167h-519v43l52 4q22 2 22 22v533q0 20 -22 22l-52 4v43h486v-149h-60l-15 82q-1 7 -6 13t-12 6h-217v-249h150q6 0 12 5.5t6 11.5l10 69h51v-223h-51zM293 893q24 0 40 -16t16 -41
q0 -24 -16 -40t-40 -16t-40 16t-16 40q0 25 16 41t40 16z" />
    <glyph glyph-name="edotaccent" unicode="&#x117;" horiz-adv-x="490" 
d="M131 261l-1 -1q0 -96 41 -154t126 -58q10 0 20 1t18 2.5t18 5t16 5.5t16.5 7t14.5 7t15 9t13.5 8t14 8.5t12.5 8.5v-61q-70 -43 -140 -57q-27 -5 -50 -5q-78 0 -132 37.5t-80 100.5q-19 45 -19 110q0 89 38 151t103 90q43 18 94 18q91 0 139 -55t48 -150v-13
q0 -10 -1 -15h-324zM355 327q0 53 -24.5 85t-72.5 32q-56 0 -87.5 -39.5t-35.5 -99.5h220v22zM261 697q24 0 40 -16t16 -41q0 -24 -16 -40t-40 -16t-40 16t-16 40q0 25 16 41t40 16z" />
    <glyph glyph-name="Eogonek" unicode="&#x118;" horiz-adv-x="583" 
d="M435 -141h1q13 0 41 18l24 -40q-27 -13 -60 -24q-13 -4 -26 -4q-100 0 -100 73q0 71 68 118h-350v43l52 4q22 2 22 22v533q0 20 -22 22l-52 4v43h486v-149h-60l-15 82q-1 7 -6 13t-12 6h-217v-249h150q6 0 12 5.5t6 11.5l10 69h51v-223h-51l-10 69q0 5 -6.5 11.5
t-11.5 6.5h-150v-275h253q6 0 11 6.5t6 12.5l18 99h54v-167h-121q-53 -40 -53 -92q0 -49 58 -49z" />
    <glyph glyph-name="eogonek" unicode="&#x119;" horiz-adv-x="490" 
d="M131 261l-2 -1q0 -96 41 -154t126 -58q10 0 20 1t18 2.5t18 5t16 5.5t16.5 7t14.5 7t15 9t13.5 8t14 8.5t12.5 8.5v-61q-36 -22 -74 -38q-85 -43 -85 -104q0 -49 58 -49q15 0 41 18l24 -40q-29 -14 -59 -24q-13 -4 -27 -4q-100 0 -100 73q0 36 32 77l31 31q-20 -2 -30 -2
q-78 0 -132 37.5t-80 100.5q-19 45 -19 110q0 89 38 151t103 90q43 18 94 18q91 0 139 -55t48 -150v-13q0 -10 -1 -15h-324zM354 327q0 53 -24.5 85t-72.5 32q-56 0 -87.5 -39.5t-35.5 -99.5h220v22z" />
    <glyph glyph-name="Ecaron" unicode="&#x11a;" horiz-adv-x="583" 
d="M376 306h1q0 5 -6.5 11.5t-11.5 6.5h-150v-275h253q6 0 11 6.5t6 12.5l18 99h54v-167h-519v43l52 4q22 2 22 22v533q0 20 -22 22l-52 4v43h486v-149h-60l-15 82q-1 7 -6 13t-12 6h-217v-249h150q6 0 12 5.5t6 11.5l10 69h51v-223h-51zM330 746h-76l-126 169h61l104 -99
l103 99h60z" />
    <glyph glyph-name="ecaron" unicode="&#x11b;" horiz-adv-x="490" 
d="M131 261l-1 -1q0 -96 41 -154t126 -58q10 0 20 1t18 2.5t18 5t16 5.5t16.5 7t14.5 7t15 9t13.5 8t14 8.5t12.5 8.5v-61q-70 -43 -140 -57q-27 -5 -50 -5q-78 0 -132 37.5t-80 100.5q-19 45 -19 110q0 89 38 151t103 90q43 18 94 18q91 0 139 -55t48 -150v-13
q0 -10 -1 -15h-324zM355 327q0 53 -24.5 85t-72.5 32q-56 0 -87.5 -39.5t-35.5 -99.5h220v22zM298 550h-76l-126 169h61l104 -99l103 99h60z" />
    <glyph glyph-name="Gcircumflex" unicode="&#x11c;" horiz-adv-x="694" 
d="M598 24v-1q-107 -40 -210 -40q-161 0 -258 107q-91 100 -91 246q0 123 56.5 205.5t154.5 119.5q66 25 151 25q66 0 150 -22l46 -12v-162h-60l-16 90q-1 16 -19 24l-17 8q-43 18 -87 18q-88 0 -145 -44.5t-82 -120.5q-18 -54 -18 -124q0 -216 151 -281q48 -21 106 -21
q37 0 78 13q8 3 9 3v200q0 19 -21 21l-67 5v43h261v-43l-51 -5q-21 -2 -21 -21v-231zM478 745l-103 99l-104 -99h-61l126 169h76l126 -169h-60z" />
    <glyph glyph-name="gcircumflex" unicode="&#x11d;" horiz-adv-x="524" 
d="M200 27l-1 -2q-76 -29 -76 -94q0 -70 72 -105q24 -12 59 -12q48 0 83 21.5t50 56.5q9 21 9 39q0 22 -10 37t-31 24.5t-36 13.5t-42 9q-12 2 -38.5 5.5t-38.5 6.5zM246 451l-1 -1q-47 0 -71 -34.5t-24 -88.5q0 -82 54 -111q17 -10 41 -10q45 0 69 35.5t24 87.5
q0 81 -53 112q-16 10 -39 10zM255 491h-1q12 0 23.5 -1.5t20 -3t20.5 -5.5t17 -6t18.5 -7.5t16.5 -6.5h135v-49h-100q27 -43 27 -90q0 -76 -66 -122q-63 -43 -151 -37q-15 -25 -10 -59q1 -8 3 -9q66 -6 105.5 -12t85 -25.5t66.5 -51.5q14 -22 14 -51q0 -72 -76 -130
q-77 -58 -184 -58q-133 0 -175 86q-13 25 -13 56q0 51 29 81.5t77 39.5q-10 25 -10 46q0 20 12 44q11 23 38 51q-84 20 -113 95q-10 24 -10 55q0 121 119 158q38 12 82 12zM348 548l-103 99l-104 -99h-61l126 169h76l126 -169h-60z" />
    <glyph glyph-name="Gbreve" unicode="&#x11e;" horiz-adv-x="694" 
d="M598 24v-1q-107 -40 -210 -40q-161 0 -258 107q-91 100 -91 246q0 123 56.5 205.5t154.5 119.5q66 25 151 25q66 0 150 -22l46 -12v-162h-60l-16 90q-1 16 -19 24l-17 8q-43 18 -87 18q-88 0 -145 -44.5t-82 -120.5q-18 -54 -18 -124q0 -216 151 -281q48 -21 106 -21
q37 0 78 13q8 3 9 3v200q0 19 -21 21l-67 5v43h261v-43l-51 -5q-21 -2 -21 -21v-231zM374 812h1q44 0 72.5 21.5t36.5 59.5h40q0 -47 -23.5 -83t-60.5 -53q-27 -13 -66 -13q-105 0 -140 96q-9 27 -9 53h39q8 -38 37 -59.5t73 -21.5z" />
    <glyph glyph-name="gbreve" unicode="&#x11f;" horiz-adv-x="524" 
d="M200 27l-1 -2q-76 -29 -76 -94q0 -70 72 -105q24 -12 59 -12q48 0 83 21.5t50 56.5q9 21 9 39q0 22 -10 37t-31 24.5t-36 13.5t-42 9q-12 2 -38.5 5.5t-38.5 6.5zM246 451l-1 -1q-47 0 -71 -34.5t-24 -88.5q0 -82 54 -111q17 -10 41 -10q45 0 69 35.5t24 87.5
q0 81 -53 112q-16 10 -39 10zM255 491h-1q12 0 23.5 -1.5t20 -3t20.5 -5.5t17 -6t18.5 -7.5t16.5 -6.5h135v-49h-100q27 -43 27 -90q0 -76 -66 -122q-63 -43 -151 -37q-15 -25 -10 -59q1 -8 3 -9q66 -6 105.5 -12t85 -25.5t66.5 -51.5q14 -22 14 -51q0 -72 -76 -130
q-77 -58 -184 -58q-133 0 -175 86q-13 25 -13 56q0 51 29 81.5t77 39.5q-10 25 -10 46q0 20 12 44q11 23 38 51q-84 20 -113 95q-10 24 -10 55q0 121 119 158q38 12 82 12zM244 615h1q44 0 72.5 21.5t36.5 59.5h40q0 -47 -23.5 -83t-60.5 -53q-27 -13 -66 -13
q-105 0 -140 96q-9 27 -9 53h39q8 -38 37 -59.5t73 -21.5z" />
    <glyph glyph-name="Gdotaccent" unicode="&#x120;" horiz-adv-x="694" 
d="M598 24v-1q-107 -40 -210 -40q-161 0 -258 107q-91 100 -91 246q0 123 56.5 205.5t154.5 119.5q66 25 151 25q66 0 150 -22l46 -12v-162h-60l-16 90q-1 16 -19 24l-17 8q-43 18 -87 18q-88 0 -145 -44.5t-82 -120.5q-18 -54 -18 -124q0 -216 151 -281q48 -21 106 -21
q37 0 78 13q8 3 9 3v200q0 19 -21 21l-67 5v43h261v-43l-51 -5q-21 -2 -21 -21v-231zM374 892q24 0 40 -16t16 -41q0 -24 -16 -40t-40 -16t-40 16t-16 40q0 25 16 41t40 16z" />
    <glyph glyph-name="gdotaccent" unicode="&#x121;" horiz-adv-x="524" 
d="M200 27l-1 -2q-76 -29 -76 -94q0 -70 72 -105q24 -12 59 -12q48 0 83 21.5t50 56.5q9 21 9 39q0 22 -10 37t-31 24.5t-36 13.5t-42 9q-12 2 -38.5 5.5t-38.5 6.5zM246 451l-1 -1q-47 0 -71 -34.5t-24 -88.5q0 -82 54 -111q17 -10 41 -10q45 0 69 35.5t24 87.5
q0 81 -53 112q-16 10 -39 10zM255 491h-1q12 0 23.5 -1.5t20 -3t20.5 -5.5t17 -6t18.5 -7.5t16.5 -6.5h135v-49h-100q27 -43 27 -90q0 -76 -66 -122q-63 -43 -151 -37q-15 -25 -10 -59q1 -8 3 -9q66 -6 105.5 -12t85 -25.5t66.5 -51.5q14 -22 14 -51q0 -72 -76 -130
q-77 -58 -184 -58q-133 0 -175 86q-13 25 -13 56q0 51 29 81.5t77 39.5q-10 25 -10 46q0 20 12 44q11 23 38 51q-84 20 -113 95q-10 24 -10 55q0 121 119 158q38 12 82 12zM244 695q24 0 40 -16t16 -41q0 -24 -16 -40t-40 -16t-40 16t-16 40q0 25 16 41t40 16z" />
    <glyph glyph-name="Gcedilla" unicode="&#x122;" horiz-adv-x="694" 
d="M598 24v-1q-107 -40 -210 -40q-161 0 -258 107q-91 100 -91 246q0 123 56.5 205.5t154.5 119.5q66 25 151 25q66 0 150 -22l46 -12v-162h-60l-16 90q-1 16 -19 24l-17 8q-43 18 -87 18q-88 0 -145 -44.5t-82 -120.5q-18 -54 -18 -124q0 -216 151 -281q48 -21 106 -21
q37 0 78 13q8 3 9 3v200q0 19 -21 21l-67 5v43h261v-43l-51 -5q-21 -2 -21 -21v-231zM366 -62v-1q34 0 52.5 -22t18.5 -59q0 -74 -75 -110q-23 -11 -49 -15v30q38 11 55 31t17 62h-59q-15 15 -15 37q0 21 16 34t39 13z" />
    <glyph glyph-name="gcedilla" unicode="&#x123;" horiz-adv-x="524" 
d="M200 27l-1 -2q-76 -29 -76 -94q0 -70 72 -105q24 -12 59 -12q48 0 83 21.5t50 56.5q9 21 9 39q0 22 -10 37t-31 24.5t-36 13.5t-42 9q-12 2 -38.5 5.5t-38.5 6.5zM246 451l-1 -1q-47 0 -71 -34.5t-24 -88.5q0 -82 54 -111q17 -10 41 -10q45 0 69 35.5t24 87.5
q0 81 -53 112q-16 10 -39 10zM255 491h-1q12 0 23.5 -1.5t20 -3t20.5 -5.5t17 -6t18.5 -7.5t16.5 -6.5h135v-49h-100q27 -43 27 -90q0 -76 -66 -122q-63 -43 -151 -37q-15 -25 -10 -59q1 -8 3 -9q66 -6 105.5 -12t85 -25.5t66.5 -51.5q14 -22 14 -51q0 -72 -76 -130
q-77 -58 -184 -58q-133 0 -175 86q-13 25 -13 56q0 51 29 81.5t77 39.5q-10 25 -10 46q0 20 12 44q11 23 38 51q-84 20 -113 95q-10 24 -10 55q0 121 119 158q38 12 82 12zM252 548v1q-34 0 -52.5 22t-18.5 59q0 53 35 84t89 41v-29q-37 -11 -54.5 -31.5t-17.5 -62.5h59
q15 -15 15 -37t-15.5 -34.5t-39.5 -12.5z" />
    <glyph glyph-name="Hcircumflex" unicode="&#x124;" horiz-adv-x="743" 
d="M458 0v43l57 4q8 1 14.5 7.5t6.5 14.5v258h-329v-258q0 -20 21 -22l57 -4v-43h-253v43l52 4q22 2 22 22v533q0 19 -22 21l-52 4v44h253v-44l-57 -4q-21 -2 -21 -21v-225h329v225q0 8 -6.5 14t-14.5 7l-57 4v44h253v-44l-52 -4q-22 -2 -22 -21v-533q0 -20 22 -22l52 -4
v-43h-253zM476 746l-103 99l-104 -99h-61l126 169h76l126 -169h-60z" />
    <glyph glyph-name="hcircumflex" unicode="&#x125;" horiz-adv-x="574" 
d="M235 766l-103 99l-104 -99h-60l126 169h75l126 -169h-60zM348 494l-1 1q65 0 100.5 -40.5t35.5 -110.5v-279q0 -9 6.5 -14.5t15.5 -6.5l45 -3v-39h-223v39l41 3q9 1 15.5 6.5t6.5 14.5v258q0 99 -99 99q-56 0 -109 -29v-328q0 -19 20 -21l43 -3v-39h-225v39l48 3
q21 2 21 21v601h-75v33l128 39h40v-305q77 43 123 55q24 6 43 6z" />
    <glyph glyph-name="Hbar" unicode="&#x126;" horiz-adv-x="743" 
d="M536 377v100h-329v-100h329zM637 477v-408q0 -20 22 -22l52 -4v-43h-253v43l57 4q8 1 14.5 7.5t6.5 14.5v258h-329v-258q0 -20 21 -22l57 -4v-43h-253v43l52 4q22 2 22 22v408h-74v50h74v75q0 19 -22 21l-52 4v44h253v-44l-57 -4q-21 -2 -21 -21v-75h329v75q0 8 -6.5 14
t-14.5 7l-57 4v44h253v-44l-52 -4q-22 -2 -22 -21v-75h74v-50h-74z" />
    <glyph glyph-name="hbar" unicode="&#x127;" horiz-adv-x="574" 
d="M348 494l-1 1q65 0 100.5 -40.5t35.5 -110.5v-279q0 -9 6.5 -14.5t15.5 -6.5l45 -3v-39h-223v39l41 3q9 1 15.5 6.5t6.5 14.5v258q0 99 -99 99q-56 0 -109 -29v-328q0 -19 20 -21l43 -3v-39h-225v39l48 3q21 2 21 21v461h-89v50h89v90h-75v33l128 39h40v-162h115v-50
h-115v-93q77 43 123 55q24 6 43 6z" />
    <glyph glyph-name="Itilde" unicode="&#x128;" horiz-adv-x="330" 
d="M33 0v43l60 4q21 2 21 22v533q0 19 -21 21l-60 4v44h264v-44l-61 -4q-8 -1 -14.5 -7t-6.5 -14v-533q0 -8 6.5 -14.5t14.5 -7.5l61 -4v-43h-264zM246 842l-1 -1q21 0 36 14t17 34h40q-20 -76 -72 -101q-20 -9 -43 -9q-17 0 -31.5 5.5t-30.5 15.5t-24 14q-28 13 -53 13
q-20 0 -35 -14.5t-17 -33.5h-40q20 76 72 101q20 9 43 9q17 0 31 -5t31 -16t23 -14q26 -12 54 -12z" />
    <glyph glyph-name="itilde" unicode="&#x129;" horiz-adv-x="303" 
d="M34 0v39l49 3q21 2 21 21v357h-69v35l122 38h40v-430q0 -19 21 -21l51 -3v-39h-235zM232 647l-1 -1q21 0 36 14t17 34h40q-20 -76 -72 -101q-19 -9 -43 -9q-17 0 -31.5 5.5t-30.5 15.5t-24 14q-28 13 -53 13q-20 0 -35 -14.5t-17 -33.5h-40q20 76 72 101q20 9 43 9
q17 0 31 -5t31 -16t23 -14q26 -12 54 -12z" />
    <glyph glyph-name="Imacron" unicode="&#x12a;" horiz-adv-x="330" 
d="M33 0v43l60 4q21 2 21 22v533q0 19 -21 21l-60 4v44h264v-44l-61 -4q-8 -1 -14.5 -7t-6.5 -14v-533q0 -8 6.5 -14.5t14.5 -7.5l61 -4v-43h-264zM46 781v63h237v-63h-237z" />
    <glyph glyph-name="imacron" unicode="&#x12b;" horiz-adv-x="303" 
d="M34 0v39l49 3q21 2 21 21v357h-69v35l122 38h40v-430q0 -19 21 -21l51 -3v-39h-235zM33 586v63h237v-63h-237z" />
    <glyph glyph-name="Ibreve" unicode="&#x12c;" horiz-adv-x="330" 
d="M33 0v43l60 4q21 2 21 22v533q0 19 -21 21l-60 4v44h264v-44l-61 -4q-8 -1 -14.5 -7t-6.5 -14v-533q0 -8 6.5 -14.5t14.5 -7.5l61 -4v-43h-264zM165 813h1q44 0 72.5 21.5t36.5 59.5h40q0 -47 -23.5 -83t-60.5 -53q-27 -13 -66 -13q-105 0 -140 96q-9 27 -9 53h39
q8 -38 37 -59.5t73 -21.5z" />
    <glyph glyph-name="ibreve" unicode="&#x12d;" horiz-adv-x="303" 
d="M34 0v39l49 3q21 2 21 21v357h-69v35l122 38h40v-430q0 -19 21 -21l51 -3v-39h-235zM151 618h1q44 0 72.5 21.5t36.5 59.5h40q0 -47 -23.5 -83t-60.5 -53q-27 -13 -66 -13q-105 0 -140 96q-9 27 -9 53h39q8 -38 37 -59.5t73 -21.5z" />
    <glyph glyph-name="Iogonek" unicode="&#x12e;" horiz-adv-x="330" 
d="M198 -141v1q13 0 41 18l24 -40q-27 -14 -60 -24q-13 -4 -26 -4q-100 0 -100 73q0 71 68 118h-112v43l60 4q21 2 21 22v533q0 19 -21 21l-60 4v44h264v-44l-61 -4q-8 -1 -14.5 -7t-6.5 -14v-533q0 -8 6.5 -14.5t14.5 -7.5l61 -4v-43h-105q-52 -40 -52 -93q0 -49 58 -49z
" />
    <glyph glyph-name="iogonek" unicode="&#x12f;" horiz-adv-x="303" 
d="M184 -141q13 0 41 18l24 -40q-27 -13 -60 -24q-13 -4 -26 -4q-100 0 -100 73q0 71 68 118h-97v39l49 3q21 2 21 21v357h-69v35l122 38h40v-430q0 -19 21 -21l51 -3v-39h-90q-53 -40 -53 -92q0 -49 58 -49zM95 647q0 26 18 43.5t44 17.5t43.5 -17.5t17.5 -43.5t-17.5 -44
t-43.5 -18t-44 18t-18 44z" />
    <glyph glyph-name="Idotaccent" unicode="&#x130;" horiz-adv-x="330" 
d="M33 0v43l60 4q21 2 21 22v533q0 19 -21 21l-60 4v44h264v-44l-61 -4q-8 -1 -14.5 -7t-6.5 -14v-533q0 -8 6.5 -14.5t14.5 -7.5l61 -4v-43h-264zM165 893q24 0 40 -16t16 -41q0 -24 -16 -40t-40 -16t-40 16t-16 40q0 25 16 41t40 16z" />
    <glyph glyph-name="dotlessi" unicode="&#x131;" horiz-adv-x="303" 
d="M34 0v39l49 3q21 2 21 21v357h-69v35l122 38h40v-430q0 -19 21 -21l51 -3v-39h-235z" />
    <glyph glyph-name="IJ" unicode="&#x132;" horiz-adv-x="814" 
d="M33 0v43l60 4q21 2 21 22v533q0 19 -21 21l-60 4v44h264v-44l-61 -4q-8 -1 -14.5 -7t-6.5 -14v-533q0 -8 6.5 -14.5t14.5 -7.5l61 -4v-43h-264zM483 35v-1q39 0 65 16.5t38.5 48t17.5 66t5 80.5v356q0 20 -21 22l-63 4v43h264v-43l-58 -4q-8 -1 -14.5 -7.5t-6.5 -14.5
v-349q0 -130 -51.5 -199.5t-168.5 -69.5q-60 0 -121 23q-13 5 -14 6v171h60l22 -122q4 -26 46 -26z" />
    <glyph glyph-name="ij" unicode="&#x133;" horiz-adv-x="595" 
d="M34 0v39l49 3q21 2 21 21v357h-69v35l122 38h40v-430q0 -19 21 -21l51 -3v-39h-235zM95 647q0 26 18 43.5t44 17.5t43.5 -17.5t17.5 -43.5t-17.5 -44t-43.5 -18t-44 18t-18 44zM364 -183q48 27 48 162v444h-71v33l123 38h41v-430q0 -141 -39 -200q-61 -93 -166 -93
q-76 0 -76 55q0 39 43 58zM455 708q27 0 44 -17t17 -44t-17 -44.5t-44 -17.5q-26 0 -44 18t-18 44t18 43.5t44 17.5z" />
    <glyph glyph-name="Jcircumflex" unicode="&#x134;" horiz-adv-x="484" 
d="M153 35v-1q39 0 65 16.5t38.5 48t17.5 66t5 80.5v356q0 20 -21 22l-63 4v43h264v-43l-58 -4q-8 -1 -14.5 -7.5t-6.5 -14.5v-349q0 -130 -51.5 -199.5t-168.5 -69.5q-60 0 -121 23q-13 5 -14 6v171h60l22 -122q4 -26 46 -26zM434 745l-103 99l-104 -99h-61l126 169h76
l126 -169h-60z" />
    <glyph glyph-name="jcircumflex" unicode="&#x135;" horiz-adv-x="291" 
d="M61 -183q48 27 48 162v444h-71v33l123 38h41v-430q0 -141 -39 -200q-61 -93 -166 -93q-76 0 -76 55q0 39 43 58zM262 551l-103 99l-104 -99h-61l126 169h76l126 -169h-60z" />
    <glyph glyph-name="Kcedilla" unicode="&#x136;" horiz-adv-x="638" 
d="M463 0v32l-186 267h-70v-229q0 -20 22 -22l57 -4v-43h-254v43l53 4q21 2 21 22v533q0 20 -21 22l-53 4v43h254v-43l-57 -4q-22 -2 -22 -22v-262h36l218 266q3 5 -0.5 10.5t-7.5 6.5l-51 5v43h212v-43q-26 -1 -56 -6q-10 -1 -12 -3l-204 -244l224 -328l72 -5v-43h-175z
M327 -60v-1q34 0 52.5 -22t18.5 -59q0 -74 -75 -110q-23 -11 -49 -15v30q38 11 55 31t17 62h-59q-15 15 -15 37q0 21 16 34t39 13z" />
    <glyph glyph-name="kcedilla" unicode="&#x137;" horiz-adv-x="534" 
d="M364 0v39l-125 188h-56v-163q0 -19 21 -21l43 -3v-39h-227v39l49 3q21 2 21 21v601h-76v33l128 39h41v-481h20l147 166q4 6 1 11t-9 6l-41 4v39h194v-39l-64 -7l-132 -141l172 -250l53 -6v-39h-160zM261 -61v-1q34 0 52.5 -22t18.5 -59q0 -74 -75 -110q-23 -11 -49 -15
v30q38 11 55 31t17 62h-59q-15 15 -15 37q0 21 16 34t39 13z" />
    <glyph glyph-name="kgreenlandic" unicode="&#x138;" horiz-adv-x="534" 
d="M200 256h3l147 166q5 5 1.5 10.5t-9.5 6.5l-41 4v39h194v-39l-64 -7l-132 -141l172 -250l53 -6v-39h-160v39l-125 188h-39v29zM183 227v-163q0 -9 6 -15t15 -7l43 -3v-39h-227v39l49 3q9 1 15 7t6 15v601h-76v33l128 39h41v-481v-29z" />
    <glyph glyph-name="Lacute" unicode="&#x139;" horiz-adv-x="530" 
d="M27 0v43l58 4q21 2 21 22v533q0 20 -21 22l-58 4v43h255v-43l-53 -4q-22 -2 -22 -22v-553h210q8 0 14.5 5t7.5 12l16 120h58v-186h-486zM369 928h1q22 0 34 -12t12 -33t-23 -40l-153 -97h-56l132 155l4.5 4.5l4.5 4.5t4.5 4t5 4t5 3t6 3t6.5 2t8 1.5t9 0.5z" />
    <glyph glyph-name="lacute" unicode="&#x13a;" horiz-adv-x="296" 
d="M195 63q0 -7 7 -14t14 -7l54 -3v-39h-243v39l53 3q7 0 14.5 7t7.5 14v602h-76v33l128 39h41v-674zM247 967h1q22 0 34 -12t12 -33t-23 -40l-153 -97h-56l132 155l4.5 4.5l4.5 4.5t4.5 4t5 4t5 3t6 3t6.5 2t8 1.5t9 0.5z" />
    <glyph glyph-name="Lcedilla" unicode="&#x13b;" horiz-adv-x="530" 
d="M27 0v43l58 4q21 2 21 22v533q0 20 -21 22l-58 4v43h255v-43l-53 -4q-22 -2 -22 -22v-553h210q8 0 14.5 5t7.5 12l16 120h58v-186h-486zM262 -61v-1q34 0 52.5 -22t18.5 -59q0 -74 -75 -110q-23 -11 -49 -15v30q38 11 55 31t17 62h-59q-15 15 -15 37q0 21 16 34t39 13z
" />
    <glyph glyph-name="lcedilla" unicode="&#x13c;" horiz-adv-x="296" 
d="M195 63q0 -7 7 -14t14 -7l54 -3v-39h-243v39l53 3q7 0 14.5 7t7.5 14v602h-76v33l128 39h41v-674zM140 -61v-1q34 0 52.5 -22t18.5 -59q0 -74 -75 -110q-23 -11 -49 -15v30q38 11 55 31t17 62h-59q-15 15 -15 37q0 21 16 34t39 13z" />
    <glyph glyph-name="Lcaron" unicode="&#x13d;" horiz-adv-x="530" 
d="M400 713q34 0 52.5 -22t18.5 -59q0 -54 -35 -84.5t-89 -40.5v29q38 11 55 31t17 63h-59q-5 0 -10 13.5t-5 22.5q0 22 16 34.5t39 12.5zM27 0v43l58 4q21 2 21 22v533q0 20 -21 22l-58 4v43h255v-43l-53 -4q-22 -2 -22 -22v-553h210q8 0 14.5 5t7.5 12l16 120h58v-186
h-486z" />
    <glyph glyph-name="lcaron" unicode="&#x13e;" horiz-adv-x="407" 
d="M303 752v-1q34 0 52.5 -22t18.5 -59q0 -54 -35 -84.5t-89 -40.5v29q37 11 54.5 31.5t17.5 63.5h-59q-7 0 -11 12.5t-4 23.5q0 22 15.5 34.5t39.5 12.5zM195 62q0 -7 7 -14t14 -7l54 -3v-39h-243v39l53 3q7 0 14.5 7t7.5 14v602h-76v33l128 39h41v-674z" />
    <glyph glyph-name="Ldot" unicode="&#x13f;" horiz-adv-x="668" 
d="M27 0v43l58 4q21 2 21 22v533q0 20 -21 22l-58 4v43h255v-43l-53 -4q-22 -2 -22 -22v-553h210q8 0 14.5 5t7.5 12l16 120h58v-186h-486zM600 399q26 0 42.5 -16.5t16.5 -42.5t-16.5 -42.5t-42.5 -16.5t-42.5 16.5t-16.5 42.5t16.5 42.5t42.5 16.5z" />
    <glyph glyph-name="ldot" unicode="&#x140;" horiz-adv-x="435" 
d="M195 63q0 -7 7 -14t14 -7l54 -3v-39h-243v39l53 3q7 0 14.5 7t7.5 14v602h-76v33l128 39h41v-674zM366 399q26 0 42.5 -16.5t16.5 -42.5t-16.5 -42.5t-42.5 -16.5t-42.5 16.5t-16.5 42.5t16.5 42.5t42.5 16.5z" />
    <glyph glyph-name="Lslash" unicode="&#x141;" horiz-adv-x="530" 
d="M26 0v43l59 4q21 2 21 22v217l-71 -48l-25 41l96 66v257q0 19 -21 21l-59 5v43h262v-43l-59 -5q-22 -2 -22 -21v-190l95 63l27 -39l-122 -82v-305h206q24 0 26 21l17 116h57v-186h-487z" />
    <glyph glyph-name="lslash" unicode="&#x142;" horiz-adv-x="296" 
d="M194 366v-302q0 -9 7 -14.5t16 -6.5l52 -3v-39h-243v39l55 3q21 2 21 21v239l-86 -60l-25 41l111 77v304h-77v33l131 39h38v-313l86 58l27 -41z" />
    <glyph glyph-name="Nacute" unicode="&#x143;" horiz-adv-x="721" 
d="M636 624q-21 -2 -21 -22v-602h-78l-372 560v-491q0 -20 21 -22l57 -4v-43h-216v43l57 4q22 2 22 22v533q0 20 -22 22l-59 4v43h198v-25l333 -503v459q0 8 -6.5 14.5t-14.5 7.5l-57 4v43h214v-43zM457 928h1q22 0 34 -12t12 -33t-23 -40l-153 -97h-56l132 155l4.5 4.5
l4.5 4.5t4.5 4t5 4t5 3t6 3t6.5 2t8 1.5t9 0.5z" />
    <glyph glyph-name="nacute" unicode="&#x144;" horiz-adv-x="566" 
d="M348 494h1q66 0 100 -41t34 -113v-276q0 -19 21 -21l44 -3v-39h-221v39l42 3q21 2 21 21v260q0 97 -96 97q-56 0 -110 -29v-328q0 -19 21 -21l42 -3v-39h-226v39l49 3q21 2 21 21v347h-70v33l122 38h41v-50q75 44 128 57q22 5 36 5zM383 733h1q22 0 34 -12t12 -33
t-23 -40l-153 -97h-56l132 155l4.5 4.5l4.5 4.5t4.5 4t5 4t5 3t6 3t6.5 2t8 1.5t9 0.5z" />
    <glyph glyph-name="Ncedilla" unicode="&#x145;" horiz-adv-x="721" 
d="M636 624q-21 -2 -21 -22v-602h-78l-372 560v-491q0 -20 21 -22l57 -4v-43h-216v43l57 4q22 2 22 22v533q0 20 -22 22l-59 4v43h198v-25l333 -503v459q0 8 -6.5 14.5t-14.5 7.5l-57 4v43h214v-43zM350 -61v-1q34 0 52.5 -22t18.5 -59q0 -74 -75 -110q-23 -11 -49 -15v30
q38 11 55 31t17 62h-59q-15 15 -15 37q0 21 16 34t39 13z" />
    <glyph glyph-name="ncedilla" unicode="&#x146;" horiz-adv-x="566" 
d="M348 494h1q66 0 100 -41t34 -113v-276q0 -19 21 -21l44 -3v-39h-221v39l42 3q21 2 21 21v260q0 97 -96 97q-56 0 -110 -29v-328q0 -19 21 -21l42 -3v-39h-226v39l49 3q21 2 21 21v347h-70v33l122 38h41v-50q75 44 128 57q22 5 36 5zM276 -61v-1q34 0 52.5 -22t18.5 -59
q0 -74 -75 -110q-23 -11 -49 -15v30q38 11 55 31t17 62h-59q-15 15 -15 37q0 21 16 34t39 13z" />
    <glyph glyph-name="Ncaron" unicode="&#x147;" horiz-adv-x="721" 
d="M636 624q-21 -2 -21 -22v-602h-78l-372 560v-491q0 -20 21 -22l57 -4v-43h-216v43l57 4q22 2 22 22v533q0 20 -22 22l-59 4v43h198v-25l333 -503v459q0 8 -6.5 14.5t-14.5 7.5l-57 4v43h214v-43zM396 746h-76l-126 169h61l104 -99l103 99h60z" />
    <glyph glyph-name="ncaron" unicode="&#x148;" horiz-adv-x="566" 
d="M348 494h1q66 0 100 -41t34 -113v-276q0 -19 21 -21l44 -3v-39h-221v39l42 3q21 2 21 21v260q0 97 -96 97q-56 0 -110 -29v-328q0 -19 21 -21l42 -3v-39h-226v39l49 3q21 2 21 21v347h-70v33l122 38h41v-50q75 44 128 57q22 5 36 5zM322 551h-76l-126 169h61l104 -99
l103 99h60z" />
    <glyph glyph-name="napostrophe" unicode="&#x149;" horiz-adv-x="693" 
d="M126 676q0 -50 -34 -82.5t-90 -42.5v30q40 12 56 32t16 61h-59q-15 15 -15 36q0 22 16 34.5t39 12.5q33 0 52 -21t19 -60zM673 0h-221v39l42 3q21 2 21 22v260q0 49 -22.5 73t-73.5 24q-54 0 -110 -29v-328q0 -20 21 -22l42 -3v-39h-226v39l49 3q21 2 21 22v347h-70v33
l122 38h41v-50q109 62 165 62q65 0 99.5 -40t34.5 -114v-276q0 -20 21 -22l44 -3v-39z" />
    <glyph glyph-name="Eng" unicode="&#x14a;" horiz-adv-x="727" 
d="M383 604q-84 0 -175 -71v-464q0 -20 21 -22l62 -4v-43h-256v43l51 4q21 2 21 22v535q0 17 -20 19l-58 5v43h179v-81q31 24 49 37t48 29t60 24q25 7 57 7q71 0 122.5 -34t75.5 -89q18 -40 18 -91v-494q0 -73 -33.5 -122.5t-91.5 -71.5q-37 -15 -84 -15q-71 0 -91 48
q-6 14 -6 27q0 41 37 59q7 4 11 4l78 -87q45 0 62 31.5t17 87.5v513q0 52 -25 88t-66 52q-30 11 -63 11z" />
    <glyph glyph-name="eng" unicode="&#x14b;" horiz-adv-x="566" 
d="M355 494l-1 -1q68 0 103 -41t35 -113v-356q0 -78 -35.5 -129t-96.5 -71q-38 -12 -76 -12q-35 0 -57 16.5t-22 48.5q0 19 10 36t24 25q8 5 11 5l81 -84q26 0 47 36q24 40 24 100v370q0 98 -100 98q-62 0 -118 -29v-329q0 -7 7.5 -13.5t14.5 -7.5l41 -4v-38h-226v38l48 4
q7 1 14.5 7.5t7.5 13.5v348h-71v33l123 38h41v-50q76 43 133 56q23 5 38 5z" />
    <glyph glyph-name="Omacron" unicode="&#x14c;" horiz-adv-x="730" 
d="M576 334l1 -1q0 202 -118 272q-39 24 -91 24q-104 0 -161 -87q-52 -78 -52 -206q0 -201 117 -273q39 -24 92 -24q103 0 160 88q52 80 52 207zM693 334v2q0 -148 -90 -248q-92 -103 -237 -103q-146 0 -237 100q-90 100 -90 252q0 149 89 248q91 102 238 102
q145 0 238 -104q89 -99 89 -249zM199 782v63h335v-63h-335z" />
    <glyph glyph-name="omacron" unicode="&#x14d;" horiz-adv-x="543" 
d="M406 241h-1q0 139 -74 191q-25 17 -58 17q-99 0 -127 -129q-8 -40 -8 -78q0 -138 74 -190q26 -18 60 -18q98 0 126 129q8 40 8 78zM509 240v-2q0 -84 -38 -144t-102 -88q-42 -19 -99 -19q-84 0 -139.5 41.5t-80.5 110.5q-16 45 -16 100q0 85 37.5 145.5t102.5 89.5
q45 20 99 20q84 0 139.5 -42.5t80.5 -112.5q16 -45 16 -99zM104 584v63h335v-63h-335z" />
    <glyph glyph-name="Obreve" unicode="&#x14e;" horiz-adv-x="730" 
d="M576 334l1 -1q0 202 -118 272q-39 24 -91 24q-104 0 -161 -87q-52 -78 -52 -206q0 -201 117 -273q39 -24 92 -24q103 0 160 88q52 80 52 207zM693 334v2q0 -148 -90 -248q-92 -103 -237 -103q-146 0 -237 100q-90 100 -90 252q0 149 89 248q91 102 238 102
q145 0 238 -104q89 -99 89 -249zM366 814h1q44 0 72.5 21.5t36.5 59.5h40q0 -47 -23.5 -83t-60.5 -53q-27 -13 -66 -13q-105 0 -140 96q-9 27 -9 53h39q8 -38 37 -59.5t73 -21.5z" />
    <glyph glyph-name="obreve" unicode="&#x14f;" horiz-adv-x="543" 
d="M406 241h-1q0 139 -74 191q-25 17 -58 17q-99 0 -127 -129q-8 -40 -8 -78q0 -138 74 -190q26 -18 60 -18q98 0 126 129q8 40 8 78zM509 240v-2q0 -84 -38 -144t-102 -88q-42 -19 -99 -19q-84 0 -139.5 41.5t-80.5 110.5q-16 45 -16 100q0 85 37.5 145.5t102.5 89.5
q45 20 99 20q84 0 139.5 -42.5t80.5 -112.5q16 -45 16 -99zM271 616h1q44 0 72.5 21.5t36.5 59.5h40q0 -47 -23.5 -83t-60.5 -53q-27 -13 -66 -13q-105 0 -140 96q-9 27 -9 53h39q8 -38 37 -59.5t73 -21.5z" />
    <glyph glyph-name="Ohungarumlaut" unicode="&#x150;" horiz-adv-x="730" 
d="M576 334l1 -1q0 202 -118 272q-39 24 -91 24q-104 0 -161 -87q-52 -78 -52 -206q0 -201 117 -273q39 -24 92 -24q103 0 160 88q52 80 52 207zM693 334v2q0 -148 -90 -248q-92 -103 -237 -103q-146 0 -237 100q-90 100 -90 252q0 149 89 248q91 102 238 102
q145 0 238 -104q89 -99 89 -249zM377 929v-1q22 0 34 -12t12 -33q0 -24 -24 -39l-151 -97h-57l133 155l4.5 4.5l4.5 4.5t4.5 4t5 4t5 3t6 3t6.5 2t8 1.5t9 0.5zM572 928v1q22 0 34 -12t12 -33q0 -24 -23 -41l-152 -97h-57l134 155q21 27 52 27z" />
    <glyph glyph-name="ohungarumlaut" unicode="&#x151;" horiz-adv-x="543" 
d="M406 241h-1q0 139 -74 191q-25 17 -58 17q-99 0 -127 -129q-8 -40 -8 -78q0 -138 74 -190q26 -18 60 -18q98 0 126 129q8 40 8 78zM509 240v-2q0 -84 -38 -144t-102 -88q-42 -19 -99 -19q-84 0 -139.5 41.5t-80.5 110.5q-16 45 -16 100q0 85 37.5 145.5t102.5 89.5
q45 20 99 20q84 0 139.5 -42.5t80.5 -112.5q16 -45 16 -99zM282 731v-1q22 0 34 -12t12 -33q0 -24 -24 -39l-151 -97h-57l133 155l4.5 4.5l4.5 4.5t4.5 4t5 4t5 3t6 3t6.5 2t8 1.5t9 0.5zM477 730v1q22 0 34 -12t12 -33q0 -24 -23 -41l-152 -97h-57l134 155q21 27 52 27z
" />
    <glyph glyph-name="OE" unicode="&#x152;" horiz-adv-x="999" 
d="M508 334l1 -1q0 211 -89 273q-34 24 -87 24q-54 0 -91 -23.5t-55 -68t-25 -92t-7 -110.5q0 -211 88 -273q35 -24 87 -24q54 0 91 24t55 68t25 92t7 111zM793 305l1 -1q0 5 -6.5 11.5t-11.5 6.5h-150v-275h253q6 0 11.5 6.5t6.5 12.5l17 99h54v-167h-445v55
q-73 -71 -189 -71q-110 0 -178.5 57.5t-96.5 154.5q-18 64 -18 141q0 118 41.5 201t120.5 123q55 27 130 27q117 0 190 -71v55h412v-149h-60l-15 82q-1 7 -6 13t-12 6h-217v-249h150q6 0 12 5.5t6 11.5l10 69h51v-223h-51z" />
    <glyph glyph-name="oe" unicode="&#x153;" horiz-adv-x="819" 
d="M437 87v-1q-34 -46 -75 -72.5t-101 -26.5q-104 0 -167 75q-60 70 -60 177q0 84 35.5 144t96.5 89q43 20 96 20q95 0 154 -61q18 -18 26 -33q57 95 167 95q87 0 131.5 -55.5t44.5 -149.5v-13q0 -10 -1 -15h-301q0 -138 86 -188q31 -18 78 -18q49 0 109 37q14 9 29 20v-61
q-90 -62 -171 -62q-112 0 -177 99zM389 238h-1q0 142 -69 191q-25 17 -55 17q-93 0 -119 -126q-7 -34 -7 -76q0 -140 71 -193q23 -17 54 -17q61 0 95 62q31 56 31 142zM684 327v1q0 80 -48 108q-16 9 -37 9q-51 0 -78 -40.5t-33 -99.5h196v22z" />
    <glyph glyph-name="Racute" unicode="&#x154;" horiz-adv-x="648" 
d="M257 347h-1q86 0 129 32t43 110q0 72 -46 102.5t-130 30.5h-46v-274h21q5 0 15 -0.5t15 -0.5zM537 493v-3q0 -131 -164 -167q101 -25 124 -113q3 -10 8.5 -35t9 -38.5t11 -31t17.5 -28.5q31 -37 105 -37v-45q-1 0 -25 -6t-42 -6q-110 0 -144 100q-6 16 -16.5 55.5t-21 66
t-26.5 45.5q-41 49 -121 49q-7 0 -21 -1t-20 -1h-5v-228q0 -20 21 -22l53 -4v-43h-249v43l52 4q22 2 22 22v533q0 20 -22 22l-52 4v43h261q55 0 97.5 -8.5t77 -28t52.5 -55t18 -86.5zM392 925h1q22 0 34 -12t12 -33t-23 -40l-153 -97h-56l132 155l4.5 4.5l4.5 4.5t4.5 4t5 4
t5 3t6 3t6.5 2t8 1.5t9 0.5z" />
    <glyph glyph-name="racute" unicode="&#x155;" horiz-adv-x="391" 
d="M320 494q25 0 61 -15v-99h-39q-25 27 -54 27q-24 0 -49 -16q-26 -17 -51 -46v-281q0 -19 21 -21l66 -3v-39h-250v38l49 4q21 2 21 21v347h-72v33l124 38h41v-89q64 71 96 90q19 11 36 11zM315 733h1q22 0 34 -12t12 -33t-23 -40l-153 -97h-56l132 155l4.5 4.5l4.5 4.5
t4.5 4t5 4t5 3t6 3t6.5 2t8 1.5t9 0.5z" />
    <glyph glyph-name="Rcedilla" unicode="&#x156;" horiz-adv-x="648" 
d="M257 347h-1q86 0 129 32t43 110q0 72 -46 102.5t-130 30.5h-46v-274h21q5 0 15 -0.5t15 -0.5zM537 493v-3q0 -131 -164 -167q101 -25 124 -113q3 -10 8.5 -35t9 -38.5t11 -31t17.5 -28.5q31 -37 105 -37v-45q-1 0 -25 -6t-42 -6q-110 0 -144 100q-6 16 -16.5 55.5t-21 66
t-26.5 45.5q-41 49 -121 49q-7 0 -21 -1t-20 -1h-5v-228q0 -20 21 -22l53 -4v-43h-249v43l52 4q22 2 22 22v533q0 20 -22 22l-52 4v43h261q55 0 97.5 -8.5t77 -28t52.5 -55t18 -86.5zM285 -64v-1q34 0 52.5 -22t18.5 -59q0 -74 -75 -110q-23 -11 -49 -15v30q38 11 55 31
t17 62h-59q-15 15 -15 37q0 21 16 34t39 13z" />
    <glyph glyph-name="rcedilla" unicode="&#x157;" horiz-adv-x="391" 
d="M320 494q25 0 61 -15v-99h-39q-25 27 -54 27q-24 0 -49 -16q-26 -17 -51 -46v-281q0 -19 21 -21l66 -3v-39h-250v38l49 4q21 2 21 21v347h-72v33l124 38h41v-89q64 71 96 90q19 11 36 11zM134 -61v-1q34 0 52.5 -22t18.5 -59q0 -74 -75 -110q-23 -11 -49 -15v30
q38 11 55 31t17 62h-59q-15 15 -15 37q0 21 16 34t39 13z" />
    <glyph glyph-name="Rcaron" unicode="&#x158;" horiz-adv-x="648" 
d="M257 347h-1q86 0 129 32t43 110q0 72 -46 102.5t-130 30.5h-46v-274h21q5 0 15 -0.5t15 -0.5zM537 493v-3q0 -131 -164 -167q101 -25 124 -113q3 -10 8.5 -35t9 -38.5t11 -31t17.5 -28.5q31 -37 105 -37v-45q-1 0 -25 -6t-42 -6q-110 0 -144 100q-6 16 -16.5 55.5t-21 66
t-26.5 45.5q-41 49 -121 49q-7 0 -21 -1t-20 -1h-5v-228q0 -20 21 -22l53 -4v-43h-249v43l52 4q22 2 22 22v533q0 20 -22 22l-52 4v43h261q55 0 97.5 -8.5t77 -28t52.5 -55t18 -86.5zM331 743h-76l-126 169h61l104 -99l103 99h60z" />
    <glyph glyph-name="rcaron" unicode="&#x159;" horiz-adv-x="391" 
d="M320 494q25 0 61 -15v-99h-39q-25 27 -54 27q-24 0 -49 -16q-26 -17 -51 -46v-281q0 -19 21 -21l66 -3v-39h-250v38l49 4q21 2 21 21v347h-72v33l124 38h41v-89q64 71 96 90q19 11 36 11zM254 551h-76l-126 169h61l104 -99l103 99h60z" />
    <glyph glyph-name="Sacute" unicode="&#x15a;" horiz-adv-x="520" 
d="M281 687l2 1q63 0 176 -34v-156h-57l-15 96q-1 9 -15 16q-2 0 -7 4q-26 19 -82 19q-90 0 -120 -71q-9 -21 -9 -47q0 -45 36 -76q27 -24 103 -56.5t81 -34.5q51 -27 80 -63.5t29 -96.5q0 -84 -62 -139q-70 -64 -203 -64q-56 0 -130 18q-27 7 -48 18v177h63l13 -113
q0 -3 1.5 -6t3.5 -6t3.5 -5t5 -4t5.5 -3l6 -3t6 -2.5t7 -2.5t6 -2q34 -12 73 -12q102 0 136 68q11 24 11 51q0 52 -61 94q-15 10 -33 19.5t-46.5 22.5t-35.5 17q-32 16 -45.5 23t-39.5 24.5t-37.5 33.5t-21.5 42t-10 57q0 70 38.5 116t100.5 66q44 14 92 14zM376 929h1
q22 0 34 -12t12 -33t-23 -40l-153 -97h-56l132 155l4.5 4.5l4.5 4.5t4.5 4t5 4t5 3t6 3t6.5 2t8 1.5t9 0.5z" />
    <glyph glyph-name="sacute" unicode="&#x15b;" horiz-adv-x="397" 
d="M213 446l-1 -2q-38 0 -59.5 -17t-21.5 -50q0 -21 9.5 -36.5t19 -22.5t29.5 -18q7 -4 55.5 -27t73 -41.5t36.5 -45.5q9 -19 9 -43q0 -78 -52.5 -117.5t-138.5 -39.5q-71 0 -139 25v133h51l12 -85q42 -28 89 -28q39 0 64.5 21t25.5 57q0 33 -18.5 51t-52.5 35
q-7 4 -34.5 16.5t-40 19t-32 19.5t-31.5 27t-19 31t-7 40q0 72 49.5 108.5t130.5 36.5q50 0 108 -15q15 -3 21 -7v-118h-52l-8 70q-33 23 -76 23zM306 731h1q22 0 34 -12t12 -33t-23 -40l-153 -97h-56l132 155l4.5 4.5l4.5 4.5t4.5 4t5 4t5 3t6 3t6.5 2t8 1.5t9 0.5z" />
    <glyph glyph-name="Scircumflex" unicode="&#x15c;" horiz-adv-x="520" 
d="M281 687l2 1q63 0 176 -34v-156h-57l-15 96q-1 9 -15 16q-2 0 -7 4q-26 19 -82 19q-90 0 -120 -71q-9 -21 -9 -47q0 -45 36 -76q27 -24 103 -56.5t81 -34.5q51 -27 80 -63.5t29 -96.5q0 -84 -62 -139q-70 -64 -203 -64q-56 0 -130 18q-27 7 -48 18v177h63l13 -113
q0 -3 1.5 -6t3.5 -6t3.5 -5t5 -4t5.5 -3l6 -3t6 -2.5t7 -2.5t6 -2q34 -12 73 -12q102 0 136 68q11 24 11 51q0 52 -61 94q-15 10 -33 19.5t-46.5 22.5t-35.5 17q-32 16 -45.5 23t-39.5 24.5t-37.5 33.5t-21.5 42t-10 57q0 70 38.5 116t100.5 66q44 14 92 14zM381 747
l-103 99l-104 -99h-61l126 169h76l126 -169h-60z" />
    <glyph glyph-name="scircumflex" unicode="&#x15d;" horiz-adv-x="397" 
d="M213 446l-1 -2q-38 0 -59.5 -17t-21.5 -50q0 -21 9.5 -36.5t19 -22.5t29.5 -18q7 -4 55.5 -27t73 -41.5t36.5 -45.5q9 -19 9 -43q0 -78 -52.5 -117.5t-138.5 -39.5q-71 0 -139 25v133h51l12 -85q42 -28 89 -28q39 0 64.5 21t25.5 57q0 33 -18.5 51t-52.5 35
q-7 4 -34.5 16.5t-40 19t-32 19.5t-31.5 27t-19 31t-7 40q0 72 49.5 108.5t130.5 36.5q50 0 108 -15q15 -3 21 -7v-118h-52l-8 70q-33 23 -76 23zM311 549l-103 99l-104 -99h-61l126 169h76l126 -169h-60z" />
    <glyph glyph-name="Scedilla" unicode="&#x15e;" horiz-adv-x="520" 
d="M284 -59l2 2q72 0 72 -71q0 -47 -32.5 -71t-83.5 -24q-39 0 -74 10v39q36 -8 61 -8q64 0 64 41q0 37 -47 37q-9 0 -23 -6v96h-4q-56 0 -130 18q-27 8 -48 18v177h63l13 -113q0 -3 1.5 -6t3.5 -6t3.5 -5t5 -4t5.5 -3l6 -3t6 -2.5t7 -2.5t6 -2q34 -12 73 -12q102 0 136 68
q11 24 11 51q0 52 -61 94q-15 10 -33 19.5t-46.5 22.5t-35.5 17q-32 16 -45.5 23t-39.5 24.5t-37.5 33.5t-21.5 42t-10 57q0 70 38.5 116t100.5 66q44 14 92 14q63 0 176 -34v-156h-57l-15 96q-1 9 -15 16q-2 0 -7 4q-26 19 -82 19q-90 0 -120 -71q-9 -21 -9 -47
q0 -45 36 -76q27 -24 103 -56.5t81 -34.5q51 -27 80 -63.5t29 -96.5q0 -84 -62 -139q-61 -56 -159 -63v-49q16 4 23 4z" />
    <glyph glyph-name="scedilla" unicode="&#x15f;" horiz-adv-x="397" 
d="M229 -59l-1 -2q71 0 71 -71q0 -47 -32 -71t-84 -24q-39 0 -74 10v39q36 -8 61 -8q64 0 64 41q0 37 -47 37q-10 0 -22 -6v100q-65 0 -132 25v133h51l12 -85q42 -28 89 -28q39 0 64.5 21t25.5 57q0 33 -18.5 51t-52.5 35q-7 4 -34.5 16.5t-40 19t-32 19.5t-31.5 27t-19 31
t-7 40q0 72 49.5 108.5t130.5 36.5q50 0 108 -15q15 -3 21 -7v-118h-52l-8 70q-33 23 -76 23q-38 0 -59.5 -17t-21.5 -50q0 -21 9.5 -36.5t19 -22.5t29.5 -18q7 -4 55.5 -27t73 -41.5t36.5 -45.5q9 -20 9 -43q0 -58 -30 -95t-81 -51q-17 -5 -48 -10v-52q16 4 24 4z" />
    <glyph glyph-name="Scaron" unicode="&#x160;" horiz-adv-x="520" 
d="M281 687l2 1q63 0 176 -34v-156h-57l-15 96q-1 9 -15 16q-2 0 -7 4q-26 19 -82 19q-90 0 -120 -71q-9 -21 -9 -47q0 -45 36 -76q27 -24 103 -56.5t81 -34.5q51 -27 80 -63.5t29 -96.5q0 -84 -62 -139q-70 -64 -203 -64q-56 0 -130 18q-27 7 -48 18v177h63l13 -113
q0 -3 1.5 -6t3.5 -6t3.5 -5t5 -4t5.5 -3l6 -3t6 -2.5t7 -2.5t6 -2q34 -12 73 -12q102 0 136 68q11 24 11 51q0 52 -61 94q-15 10 -33 19.5t-46.5 22.5t-35.5 17q-32 16 -45.5 23t-39.5 24.5t-37.5 33.5t-21.5 42t-10 57q0 70 38.5 116t100.5 66q44 14 92 14zM315 747h-76
l-126 169h61l104 -99l103 99h60z" />
    <glyph glyph-name="scaron" unicode="&#x161;" horiz-adv-x="397" 
d="M213 446l-1 -2q-38 0 -59.5 -17t-21.5 -50q0 -21 9.5 -36.5t19 -22.5t29.5 -18q7 -4 55.5 -27t73 -41.5t36.5 -45.5q9 -19 9 -43q0 -78 -52.5 -117.5t-138.5 -39.5q-71 0 -139 25v133h51l12 -85q42 -28 89 -28q39 0 64.5 21t25.5 57q0 33 -18.5 51t-52.5 35
q-7 4 -34.5 16.5t-40 19t-32 19.5t-31.5 27t-19 31t-7 40q0 72 49.5 108.5t130.5 36.5q50 0 108 -15q15 -3 21 -7v-118h-52l-8 70q-33 23 -76 23zM245 549h-76l-126 169h61l104 -99l103 99h60z" />
    <glyph glyph-name="uni0162" unicode="&#x162;" horiz-adv-x="599" 
d="M343 -59q34 0 53 -18.5t19 -52.5q0 -47 -32.5 -71t-84.5 -24q-38 0 -73 10v39q36 -8 61 -8q64 0 64 41q0 37 -47 37q-9 0 -23 -6v112h-116v43l64 4q21 2 21 22v553h-144q-15 0 -17 -17l-14 -94h-58v160h567v-160h-59l-14 94q-2 17 -17 17h-143v-553q0 -20 21 -22l64 -4
v-43h-116v-63q16 4 24 4z" />
    <glyph glyph-name="uni0163" unicode="&#x163;" horiz-adv-x="339" 
d="M223 -59q72 0 72 -71q0 -47 -32.5 -71t-83.5 -24q-39 0 -74 10v39q36 -8 61 -8q64 0 64 41q0 37 -47 37q-9 0 -23 -6v104q-37 8 -53 33.5t-16 74.5v332h-64v33l68 32l45 106h44v-121h141v-50h-141v-279q0 -53 17.5 -81t62.5 -28q38 0 69 17v-40q-70 -33 -133 -33v-51
q16 4 23 4z" />
    <glyph glyph-name="Tcaron" unicode="&#x164;" horiz-adv-x="599" 
d="M524 511l-14 94q-2 17 -17 17h-143v-553q0 -20 21 -22l64 -4v-43h-271v43l64 4q21 2 21 22v553h-144q-15 0 -17 -17l-14 -94h-58v160h567v-160h-59zM337 746h-76l-126 169h61l104 -99l103 99h60z" />
    <glyph glyph-name="tcaron" unicode="&#x165;" horiz-adv-x="339" 
d="M283 752q34 0 52.5 -22t18.5 -59q0 -54 -35 -84.5t-90 -40.5v29q38 11 55.5 31t17.5 63h-59q-7 0 -11 12.5t-4 23.5q0 22 15.5 34.5t39.5 12.5zM264 44h-1q38 0 69 17v-40q-70 -33 -134 -33q-57 0 -82 26.5t-25 85.5v332h-64v33l68 32l45 106h44v-121h141v-50h-141v-279
q0 -53 17.5 -81t62.5 -28z" />
    <glyph glyph-name="Tbar" unicode="&#x166;" horiz-adv-x="599" 
d="M524 511l-14 94q-2 17 -17 17h-143v-245h140v-51h-140v-257q0 -20 21 -22l64 -4v-43h-271v43l64 4q21 2 21 22v257h-140v51h140v245h-144q-15 0 -17 -17l-14 -94h-58v160h567v-160h-59z" />
    <glyph glyph-name="tbar" unicode="&#x167;" horiz-adv-x="339" 
d="M264 44h-1q38 0 69 17v-40q-70 -33 -134 -33q-57 0 -82 26.5t-25 85.5v122h-64v50h64v160h-64v33l68 32l45 106h44v-121h141v-50h-141v-160h141v-50h-141v-69q0 -53 17.5 -81t62.5 -28z" />
    <glyph glyph-name="Utilde" unicode="&#x168;" horiz-adv-x="711" 
d="M376 51q91 0 131 49.5t40 147.5v354q0 20 -22 22l-57 4v43h217v-43l-58 -4q-21 -2 -21 -22v-380q0 -238 -257 -238q-244 0 -244 238v380q0 20 -21 22l-53 4v43h254v-43l-57 -4q-21 -2 -21 -22v-354q0 -100 38.5 -148.5t130.5 -48.5zM447 842l-1 -1q21 0 36 14t17 34h40
q-20 -76 -72 -101q-19 -9 -43 -9q-17 0 -31.5 5.5t-30.5 15.5t-24 14q-28 13 -53 13q-20 0 -35 -14.5t-17 -33.5h-40q20 76 72 101q20 9 43 9q17 0 31 -5t31 -16t23 -14q26 -12 54 -12z" />
    <glyph glyph-name="utilde" unicode="&#x169;" horiz-adv-x="568" 
d="M280 56l2 -2q38 0 107 30v335h-70v34l122 39h41v-430q0 -9 6.5 -14.5t15.5 -6.5l44 -3v-39h-159v57q-59 -44 -116 -61q-21 -7 -45 -7q-138 0 -138 162v271h-70v34l123 39h40v-325q0 -113 97 -113zM366 645l-1 -1q21 0 36 14t17 34h40q-20 -76 -72 -101q-19 -9 -43 -9
q-17 0 -31.5 5.5t-30.5 15.5t-24 14q-28 13 -53 13q-20 0 -35 -14.5t-17 -33.5h-40q20 76 72 101q19 9 43 9q17 0 31 -5t31 -16t23 -14q26 -12 54 -12z" />
    <glyph glyph-name="Umacron" unicode="&#x16a;" horiz-adv-x="711" 
d="M376 51q91 0 131 49.5t40 147.5v354q0 20 -22 22l-57 4v43h217v-43l-58 -4q-21 -2 -21 -22v-380q0 -238 -257 -238q-244 0 -244 238v380q0 20 -21 22l-53 4v43h254v-43l-57 -4q-21 -2 -21 -22v-354q0 -100 38.5 -148.5t130.5 -48.5zM199 781v63h335v-63h-335z" />
    <glyph glyph-name="umacron" unicode="&#x16b;" horiz-adv-x="568" 
d="M280 56l2 -2q38 0 107 30v335h-70v34l122 39h41v-430q0 -9 6.5 -14.5t15.5 -6.5l44 -3v-39h-159v57q-59 -44 -116 -61q-21 -7 -45 -7q-138 0 -138 162v271h-70v34l123 39h40v-325q0 -113 97 -113zM118 584v63h335v-63h-335z" />
    <glyph glyph-name="Ubreve" unicode="&#x16c;" horiz-adv-x="711" 
d="M376 51q91 0 131 49.5t40 147.5v354q0 20 -22 22l-57 4v43h217v-43l-58 -4q-21 -2 -21 -22v-380q0 -238 -257 -238q-244 0 -244 238v380q0 20 -21 22l-53 4v43h254v-43l-57 -4q-21 -2 -21 -22v-354q0 -100 38.5 -148.5t130.5 -48.5zM366 813h1q44 0 72.5 21.5t36.5 59.5
h40q0 -47 -23.5 -83t-60.5 -53q-27 -13 -66 -13q-105 0 -140 96q-9 27 -9 53h39q8 -38 37 -59.5t73 -21.5z" />
    <glyph glyph-name="ubreve" unicode="&#x16d;" horiz-adv-x="568" 
d="M280 56l2 -2q38 0 107 30v335h-70v34l122 39h41v-430q0 -9 6.5 -14.5t15.5 -6.5l44 -3v-39h-159v57q-59 -44 -116 -61q-21 -7 -45 -7q-138 0 -138 162v271h-70v34l123 39h40v-325q0 -113 97 -113zM285 616h1q44 0 72.5 21.5t36.5 59.5h40q0 -47 -23.5 -83t-60.5 -53
q-27 -13 -66 -13q-105 0 -140 96q-9 27 -9 53h39q8 -38 37 -59.5t73 -21.5z" />
    <glyph glyph-name="Uring" unicode="&#x16e;" horiz-adv-x="711" 
d="M376 51q91 0 131 49.5t40 147.5v354q0 20 -22 22l-57 4v43h217v-43l-58 -4q-21 -2 -21 -22v-380q0 -238 -257 -238q-244 0 -244 238v380q0 20 -21 22l-53 4v43h254v-43l-57 -4q-21 -2 -21 -22v-354q0 -100 38.5 -148.5t130.5 -48.5zM437 864v-1q0 31 -20 51t-50 20
q-45 0 -64 -43q-6 -12 -6 -27q0 -30 20 -50t50 -20t50 20t20 50zM486 863q0 -38 -21 -67t-52 -42q-21 -9 -46 -9q-77 0 -110 73q-9 21 -9 45q0 39 20.5 67.5t52.5 42.5q21 9 47 9q77 0 109 -73q9 -21 9 -46z" />
    <glyph glyph-name="uring" unicode="&#x16f;" horiz-adv-x="568" 
d="M280 56l2 -2q38 0 107 30v335h-70v34l122 39h41v-430q0 -9 6.5 -14.5t15.5 -6.5l44 -3v-39h-159v57q-59 -44 -116 -61q-21 -7 -45 -7q-138 0 -138 162v271h-70v34l123 39h40v-325q0 -113 97 -113zM356 667v-1q0 31 -20 51t-50 20q-45 0 -64 -43q-6 -12 -6 -27
q0 -30 20 -50t50 -20t50 20t20 50zM405 666q0 -38 -21 -67t-52 -42q-21 -9 -46 -9q-77 0 -110 73q-9 21 -9 45q0 39 20.5 67.5t52.5 42.5q21 9 47 9q77 0 109 -73q9 -21 9 -46z" />
    <glyph glyph-name="Uhungarumlaut" unicode="&#x170;" horiz-adv-x="711" 
d="M376 51q91 0 131 49.5t40 147.5v354q0 20 -22 22l-57 4v43h217v-43l-58 -4q-21 -2 -21 -22v-380q0 -238 -257 -238q-244 0 -244 238v380q0 20 -21 22l-53 4v43h254v-43l-57 -4q-21 -2 -21 -22v-354q0 -100 38.5 -148.5t130.5 -48.5zM377 928v-1q22 0 34 -12t12 -33
q0 -24 -24 -39l-151 -97h-57l133 155l4.5 4.5l4.5 4.5t4.5 4t5 4t5 3t6 3t6.5 2t8 1.5t9 0.5zM572 927v1q22 0 34 -12t12 -33q0 -24 -23 -41l-152 -97h-57l134 155q21 27 52 27z" />
    <glyph glyph-name="uhungarumlaut" unicode="&#x171;" horiz-adv-x="568" 
d="M280 56l2 -2q38 0 107 30v335h-70v34l122 39h41v-430q0 -9 6.5 -14.5t15.5 -6.5l44 -3v-39h-159v57q-59 -44 -116 -61q-21 -7 -45 -7q-138 0 -138 162v271h-70v34l123 39h40v-325q0 -113 97 -113zM296 731v-1q22 0 34 -12t12 -33q0 -24 -24 -39l-151 -97h-57l133 155
l4.5 4.5l4.5 4.5t4.5 4t5 4t5 3t6 3t6.5 2t8 1.5t9 0.5zM491 730v1q22 0 34 -12t12 -33q0 -24 -23 -41l-152 -97h-57l134 155q21 27 52 27z" />
    <glyph glyph-name="Uogonek" unicode="&#x172;" horiz-adv-x="711" 
d="M421 -141v1q15 0 41 18l24 -40q-29 -14 -59 -24q-13 -4 -27 -4q-100 0 -100 73q0 58 48 100q1 0 1 2q-244 0 -244 238v380q0 20 -21 22l-53 4v43h254v-43l-57 -4q-21 -2 -21 -22v-354q0 -100 38.5 -148.5t130.5 -48.5q91 0 131 49.5t40 147.5v354q0 20 -22 22l-57 4v43
h217v-43l-58 -4q-21 -2 -21 -22v-380q0 -216 -206 -236q-2 -5 -9.5 -13t-8.5 -10q-19 -27 -19 -56q0 -49 58 -49z" />
    <glyph glyph-name="uogonek" unicode="&#x173;" horiz-adv-x="568" 
d="M442 -141l2 -2q13 0 41 18l24 -40q-27 -13 -60 -24q-13 -4 -26 -4q-100 0 -100 73q0 71 68 118v57q-59 -44 -116 -61q-21 -7 -45 -7q-138 0 -138 162v271h-70v34l123 39h40v-325q0 -113 97 -113q38 0 107 30v335h-70v34l122 39h41v-430q0 -9 6.5 -14.5t15.5 -6.5l44 -3
v-39h-111q-53 -40 -53 -92q0 -49 58 -49z" />
    <glyph glyph-name="Wcircumflex" unicode="&#x174;" horiz-adv-x="931" 
d="M860 616l-153 -633h-73l-167 554l-164 -554h-72l-163 632l-58 12v43h229v-43l-60 -6q-15 -2 -10 -19l119 -451l157 520h77l161 -536l111 467q3 18 -14 20l-63 6v43h204v-43zM584 745l-103 99l-104 -99h-61l126 169h76l126 -169h-60z" />
    <glyph glyph-name="wcircumflex" unicode="&#x175;" horiz-adv-x="783" 
d="M722 437l-137 -438h-71l-118 374l-132 -374h-71l-128 437l-55 6v39h219v-39l-47 -3q-8 -1 -12.5 -7t-2.5 -14l83 -311l129 375h71l116 -375l92 311q5 20 -14 22l-46 3v39h175v-39zM509 550l-103 99l-104 -99h-61l126 169h76l126 -169h-60z" />
    <glyph glyph-name="Ycircumflex" unicode="&#x176;" horiz-adv-x="625" 
d="M562 618l-201 -333v-216q0 -8 6.5 -14.5t14.5 -7.5l64 -4v-43h-270v43l62 4q22 2 22 22v201l-192 346l-58 12v43h237v-43l-50 -5q-22 -2 -12 -20l141 -261l155 258q4 8 -0.5 14t-11.5 7l-56 7v43h203v-43zM417 746l-103 99l-104 -99h-61l126 169h76l126 -169h-60z" />
    <glyph glyph-name="ycircumflex" unicode="&#x177;" horiz-adv-x="529" 
d="M468 437l-191 -468q-30 -72 -62 -121q-47 -77 -117 -77q-51 0 -68 36q-5 12 -5 21q0 33 32 60l94 -43q45 45 84 156l-170 436l-55 6v39h221v-39l-48 -3q-8 -1 -13 -7.5t-2 -14.5l116 -295l119 295q3 8 -2 14.5t-12 7.5l-47 3v39h178v-39zM379 551l-103 99l-104 -99h-61
l126 169h76l126 -169h-60z" />
    <glyph glyph-name="Ydieresis" unicode="&#x178;" horiz-adv-x="625" 
d="M562 618l-201 -333v-216q0 -8 6.5 -14.5t14.5 -7.5l64 -4v-43h-270v43l62 4q22 2 22 22v201l-192 346l-58 12v43h237v-43l-50 -5q-22 -2 -12 -20l141 -261l155 258q4 8 -0.5 14t-11.5 7l-56 7v43h203v-43zM210 891q23 0 38.5 -16t15.5 -39t-15.5 -39.5t-38.5 -16.5
t-39 16t-16 39t16 39.5t39 16.5zM418 891q22 0 37.5 -16t15.5 -39q0 -24 -15 -40t-38 -16q-24 0 -40 16t-16 40q0 22 16.5 38.5t39.5 16.5z" />
    <glyph glyph-name="Zacute" unicode="&#x179;" horiz-adv-x="575" 
d="M39 0v44l372 577h-260q-13 0 -17 -17l-15 -93h-59v160h471v-46l-373 -574h285q13 0 17 18l17 116h59v-185h-497zM397 928h1q22 0 34 -12t12 -33t-23 -40l-153 -97h-56l132 155l4.5 4.5l4.5 4.5t4.5 4t5 4t5 3t6 3t6.5 2t8 1.5t9 0.5z" />
    <glyph glyph-name="zacute" unicode="&#x17a;" horiz-adv-x="461" 
d="M34 0l1 53l265 382h-174q-7 0 -13 -7t-7 -14l-10 -74h-51v142h370v-41l-274 -393h202q7 0 13 8t8 16l10 79h54v-151h-394zM336 733h1q22 0 34 -12t12 -33t-23 -40l-153 -97h-56l132 155l4.5 4.5l4.5 4.5t4.5 4t5 4t5 3t6 3t6.5 2t8 1.5t9 0.5z" />
    <glyph glyph-name="Zdotaccent" unicode="&#x17b;" horiz-adv-x="575" 
d="M39 0v44l372 577h-260q-13 0 -17 -17l-15 -93h-59v160h471v-46l-373 -574h285q13 0 17 18l17 116h59v-185h-497zM298 893q24 0 40 -16t16 -41q0 -24 -16 -40t-40 -16t-40 16t-16 40q0 25 16 41t40 16z" />
    <glyph glyph-name="zdotaccent" unicode="&#x17c;" horiz-adv-x="461" 
d="M34 0l1 53l265 382h-174q-7 0 -13 -7t-7 -14l-10 -74h-51v142h370v-41l-274 -393h202q7 0 13 8t8 16l10 79h54v-151h-394zM237 698q24 0 40 -16t16 -41q0 -24 -16 -40t-40 -16t-40 16t-16 40q0 25 16 41t40 16z" />
    <glyph glyph-name="Zcaron" unicode="&#x17d;" horiz-adv-x="575" 
d="M39 0v44l372 577h-260q-13 0 -17 -17l-15 -93h-59v160h471v-46l-373 -574h285q13 0 17 18l17 116h59v-185h-497zM336 746h-76l-126 169h61l104 -99l103 99h60z" />
    <glyph glyph-name="zcaron" unicode="&#x17e;" horiz-adv-x="461" 
d="M34 0l1 53l265 382h-174q-7 0 -13 -7t-7 -14l-10 -74h-51v142h370v-41l-274 -393h202q7 0 13 8t8 16l10 79h54v-151h-394zM275 551h-76l-126 169h61l104 -99l103 99h60z" />
    <glyph glyph-name="longs" unicode="&#x17f;" horiz-adv-x="326" 
d="M193 64v-1q0 -9 6 -15.5t15 -6.5l59 -3v-39h-243v39l49 3q21 2 21 21v412q0 123 68 199q57 62 136 62q61 0 81 -37q6 -10 6 -22q0 -19 -10.5 -32t-25.5 -18l-10 -3q-4 4 -25 18q-48 33 -68 47q-59 -32 -59 -150v-474zM30 432v50h141v-50h-141z" />
    <glyph glyph-name="uni0180" unicode="&#x180;" horiz-adv-x="555" 
d="M183 456h-1q83 37 139 37q73 0 120.5 -39t66.5 -103q12 -42 12 -88q0 -185 -157 -243q-55 -20 -129 -20h-144v539h-83v51h83v75h-76v33l130 39h39v-147h121v-51h-121v-83zM231 47q97 0 142 48t45 148q0 89 -37.5 140t-116.5 51q-33 0 -82 -15v-371q11 0 17 -1h32z" />
    <glyph glyph-name="uni0181" unicode="&#x181;" horiz-adv-x="676" 
d="M372 671q226 0 226 -161q0 -115 -145 -154q123 0 168 -84q17 -31 17 -74q0 -102 -70 -150t-184 -48h-280v43l50 4q10 1 17.5 7t7.5 15v534q0 21 -21 21h-38q-43 0 -59 -24l42 -71q-27 -30 -64 -30q-23 0 -39 19.5t-16 44.5q0 108 163 108h225zM340 49h-2q94 0 142 31
t48 110q0 132 -162 132q-15 0 -45.5 -3t-43.5 -3v-264l24 -2q7 -1 21 -1h18zM312 368h1q86 0 130.5 31t44.5 105q0 64 -41.5 94.5t-112.5 26.5q-9 -1 -26 -1q-18 -2 -32 -2v-253h14q8 0 12 -1h10z" />
    <glyph glyph-name="uni0182" unicode="&#x182;" horiz-adv-x="604" 
d="M258 46h-1q96 0 147.5 31.5t51.5 112.5q0 79 -46 105.5t-140 26.5q-31 0 -63 -5v-269q10 0 16 -1q5 0 17 -0.5t18 -0.5zM206 365l1 -1q57 5 73 5q199 0 261 -89q24 -34 24 -87q0 -47 -16 -82t-42.5 -56t-66.5 -33.5t-82 -17t-96 -4.5h-239v43l61 4q21 2 21 21v535
q0 19 -21 21l-53 4v43h449v-156h-55l-13 90q-2 19 -17 19h-168q-9 0 -15 -6.5t-6 -14.5v-238z" />
    <glyph glyph-name="uni0183" unicode="&#x183;" horiz-adv-x="555" 
d="M183 457h-1q83 37 138 37q74 0 121.5 -39t66.5 -103q12 -42 12 -88q0 -186 -157 -244q-55 -20 -129 -20h-144v737h376v-156h-55l-13 90q-2 19 -17 19h-177q-9 0 -15 -6.5t-6 -14.5v-212zM231 47q97 0 142 48.5t45 148.5q0 88 -38 139.5t-115 51.5q-28 0 -83 -16v-371
q11 0 17 -1h32z" />
    <glyph glyph-name="uni0184" unicode="&#x184;" horiz-adv-x="604" 
d="M258 46h-1q96 0 147.5 31.5t51.5 112.5q0 79 -46 105.5t-140 26.5q-31 0 -63 -5v-269q10 0 16 -1q5 0 17 -0.5t18 -0.5zM206 365l1 -1q57 5 73 5q199 0 261 -89q24 -34 24 -87q0 -47 -16 -82t-42.5 -56t-66.5 -33.5t-82 -17t-96 -4.5h-239v43l61 4q21 2 21 21v356l-74 92
l175 171v-322z" />
    <glyph glyph-name="uni0185" unicode="&#x185;" horiz-adv-x="555" 
d="M183 457h-1q83 37 138 37q74 0 121.5 -39t66.5 -103q12 -42 12 -88q0 -186 -157 -244q-55 -20 -129 -20h-144v519l-76 67l169 170v-299zM231 47q97 0 142 48.5t45 148.5q0 88 -38 139.5t-115 51.5q-28 0 -83 -16v-371q11 0 17 -1h32z" />
    <glyph glyph-name="uni0186" unicode="&#x186;" horiz-adv-x="626" 
d="M238 -16h-1q-23 0 -43.5 2t-43.5 7t-35.5 8t-40 11.5t-36.5 10.5v157h60l16 -91q1 -4 3 -8t3.5 -6t5.5 -4.5t6 -3.5t7.5 -3.5t7.5 -3.5q42 -20 86 -20q86 0 141.5 44.5t81.5 119.5q18 54 18 126q0 214 -147 280q-47 21 -105 21q-43 0 -74 -13q-21 -8 -26 -23l-23 -109
h-59v162q2 0 18 6q84 32 181 32q215 0 308 -180q41 -80 41 -173q0 -121 -56 -203.5t-152 -120.5q-63 -25 -142 -25z" />
    <glyph glyph-name="uni0187" unicode="&#x187;" horiz-adv-x="626" 
d="M506 671l4 -1q14 173 165 173q69 0 89 -38q6 -11 6 -24q0 -43 -43 -56l-91 69q-25 -9 -34 -28t-10 -56v-63v-157h-60l-15 91q-1 4 -3 8t-3.5 6t-6 5t-6.5 4l-7 3.5l-7 3.5q-42 20 -87 20q-86 0 -142 -45.5t-81 -121.5q-18 -56 -18 -127q0 -214 147 -278q47 -21 105 -21
q45 0 73 14q6 3 7 3q14 6 19 20l23 109h58v-162q-15 -8 -63 -20q-72 -19 -137 -19q-215 0 -308 180q-41 80 -41 173q0 154 97 253q96 98 253 98q55 0 117 -16z" />
    <glyph glyph-name="uni0188" unicode="&#x188;" horiz-adv-x="476" 
d="M345 484h-1q13 46 47.5 74t88.5 28q55 0 73 -30q6 -9 6 -19q0 -34 -35 -45l-72 54q-25 -9 -30.5 -30.5t-5.5 -70.5q14 -18 14 -53q0 -27 -16 -42.5t-43 -15.5q-24 0 -50 16v88q-20 13 -42 13q-100 0 -133 -121q-10 -36 -10 -81q0 -137 94 -184q32 -15 72 -15q58 0 130 47
v-57q-33 -18 -50.5 -26t-51.5 -17.5t-67 -9.5q-82 0 -135.5 41t-77.5 109q-16 45 -16 100q0 90 40 152t109 88q45 17 92 17q38 0 70 -10z" />
    <glyph glyph-name="uni0189" unicode="&#x189;" horiz-adv-x="695" 
d="M14 377h94v225q0 20 -22 22l-53 4v43h258q126 0 213 -47.5t126 -137.5q27 -63 27 -149q0 -132 -62 -214.5t-172 -110.5q-49 -12 -113 -12h-278v43l53 4q22 2 22 22v257h-93v51zM290 49q255 0 255 286q0 288 -260 288h-76v-246h158v-51h-158v-278z" />
    <glyph glyph-name="uni018A" unicode="&#x18a;" horiz-adv-x="768" 
d="M361 49q255 0 255 286q0 288 -260 288h-77v-575zM-16 563l-1 -1q0 108 163 108h215q127 0 213 -47.5t126 -137.5q28 -62 28 -149q0 -132 -62 -214t-173 -110q-51 -12 -112 -12h-277v43l52 4q8 1 15.5 7.5t7.5 13.5v535q0 21 -21 21h-38q-43 0 -59 -24l42 -71
q-27 -30 -64 -30q-23 0 -39 19.5t-16 44.5z" />
    <glyph glyph-name="uni018B" unicode="&#x18b;" horiz-adv-x="612" 
d="M333 322q-91 0 -138.5 -31.5t-47.5 -110.5q0 -34 10 -58t26.5 -38.5t43.5 -23t54.5 -11.5t65.5 -3h18q11 0 16 1q11 0 16 1v269q-50 5 -64 5zM397 603l1 1q0 8 -6 14.5t-15 6.5h-168q-15 0 -17 -19l-12 -90h-55v156h448v-43l-52 -4q-21 -2 -21 -21v-535q0 -19 21 -21
l61 -4v-43h-240q-69 0 -117.5 6.5t-93.5 25t-68 57t-23 96.5q0 90 85 139q78 45 200 45q35 0 72 -5v238z" />
    <glyph glyph-name="uni018C" unicode="&#x18c;" horiz-adv-x="563" 
d="M278 56v1q45 0 103 35v340q-45 15 -85 15q-59 0 -97 -32.5t-54 -85.5q-12 -37 -12 -84q0 -133 83 -175q28 -14 62 -14zM182 691q-5 0 -10 -5t-5 -10l-14 -94h-55v156h376v-673q0 -19 21 -21l43 -3v-39h-157v53q-61 -46 -113 -60q-21 -6 -43 -6q-93 0 -146 78
q-46 66 -46 162q0 88 38.5 150t104.5 93q49 23 112 23q12 0 93 -12v187q0 8 -6.5 14.5t-14.5 6.5h-178z" />
    <glyph glyph-name="uni018D" unicode="&#x18d;" horiz-adv-x="519" 
d="M136 265l1 2q0 -62 27 -105t73 -83q99 48 134 128q14 33 14 72q0 123 -74 159q-24 11 -48 11q-66 0 -96.5 -52t-30.5 -132zM66 -139l1 -3q0 27 16.5 43t43.5 16t38 -7l21 -79q45 -35 86 -35q51 0 76 39q8 13 8 29q0 17 -13 33q-22 27 -88 69q-65 41 -119 88
q-60 52 -87 123q-14 37 -14 80q0 109 71 177q64 59 151 59q153 0 209 -116q20 -42 20 -99q0 -84 -67 -147q-54 -50 -146 -84q11 -8 34.5 -25t41 -30t31.5 -26q49 -43 49 -83q0 -49 -28 -81.5t-72 -46.5q-30 -9 -61 -9q-94 0 -152 39q-50 34 -50 76z" />
    <glyph glyph-name="uni018E" unicode="&#x18e;" horiz-adv-x="583" 
d="M207 391q0 -6 6 -11.5t12 -5.5h150v249h-217q-7 0 -12 -6t-6 -13l-15 -82h-60v149h486v-43l-52 -4q-22 -2 -22 -22v-533q0 -20 22 -22l52 -4v-43h-519v167h54l18 -99q1 -5 6.5 -12t11.5 -7h253v275h-150q-5 0 -11.5 -6.5t-6.5 -11.5l-10 -69h-51v223h51z" />
    <glyph glyph-name="uni018F" unicode="&#x18f;" horiz-adv-x="662" 
d="M155 273l1 -31q0 -68 27 -116t75 -71q32 -16 75 -16q75 0 124 82q40 65 47 152h-349zM64 602v-1q91 85 234 85q125 0 221 -85q106 -94 106 -266q0 -116 -46.5 -200t-127.5 -124q-54 -27 -118 -27q-145 0 -219 81t-74 231q0 3 0.5 11t0.5 12q0 10 1 16h466q0 215 -129 273
q-39 17 -80 17q-90 0 -176 -57q-30 -20 -59 -50v84z" />
    <glyph glyph-name="uni0190" unicode="&#x190;" horiz-adv-x="559" 
d="M467 160v-3q26 0 42 -15t16 -40q0 -45 -60 -81q-62 -40 -160 -40q-266 0 -266 208q0 111 117 150q33 10 71 12q-76 22 -115 68q-33 40 -33 93q0 123 130 161q39 12 86 12q159 0 204 -79q14 -26 14 -55q0 -26 -17.5 -43t-43.5 -17q-28 0 -44 16v95q-3 2 -12.5 8t-15.5 9
q-30 15 -63 15q-87 0 -118 -76q-10 -23 -10 -56q0 -63 37.5 -96t105.5 -33h10q6 0 9 1h8v-59q-6 0 -25 1.5t-30 1.5q-71 0 -113 -31.5t-42 -96.5q0 -105 97 -144q32 -12 72 -12q37 0 82 28l34 92q8 6 33 6z" />
    <glyph glyph-name="uni0191" unicode="&#x191;" horiz-adv-x="541" 
d="M28 -179v-2q45 0 62 31.5t17 87.5v662q0 20 -21 22l-61 4v43h486v-159h-59l-14 92q-2 18 -17 18h-214v-260h154q6 0 11.5 6t6.5 12l9 70h50v-225h-50l-9 70q-1 5 -6.5 11.5t-11.5 6.5h-154v-334q0 -72 -33.5 -121.5t-90.5 -71.5q-37 -15 -84 -15q-71 0 -91 48
q-6 13 -6 27q0 40 38 60q7 4 11 4z" />
    <glyph glyph-name="florin" unicode="&#x192;" horiz-adv-x="326" 
d="M41 -182v-2q58 32 58 151v454h-64v35l64 18q0 123 68 199q57 62 136 62q61 0 81 -37q6 -10 6 -22q0 -19 -10.5 -32t-25.5 -18l-10 -3q-4 4 -25 18q-48 33 -68 47q-58 -32 -58 -150l-1 -64h124v-51h-124v-380q0 -179 -108 -246q-42 -27 -95 -27q-36 0 -61 15t-25 45
q0 39 45 53q0 -1 16 -12q69 -48 77 -53z" />
    <glyph glyph-name="uni0193" unicode="&#x193;" horiz-adv-x="694" 
d="M516 673h2q14 171 164 171q69 0 89 -38q6 -10 6 -24q0 -42 -43 -57l-91 69q-25 -9 -34 -28t-10 -56v-63v-157h-60l-16 90q-1 4 -3 8t-3.5 6t-6.5 5t-6 4t-8 4l-7 3q-42 20 -87 20q-177 0 -231 -165q-18 -54 -18 -124q0 -216 151 -281q48 -21 106 -21q37 0 78 13q8 3 9 3
v200q0 19 -21 21l-67 5v43h261v-43l-51 -5q-21 -2 -21 -21v-231q-107 -40 -210 -40q-161 0 -258 107q-91 100 -91 246q0 158 98 254t261 96q63 0 118 -14z" />
    <glyph glyph-name="uni0194" unicode="&#x194;" horiz-adv-x="666" 
d="M327 42l1 1q17 0 27.5 9.5t10.5 25.5q0 3 -2 9l-4 10q-5 8 -10.5 18.5t-11.5 23.5t-10 20q-29 -47 -37 -62q-5 -12 -5 -20q0 -15 12 -25t29 -10zM590 627l-203 -365q31 -62 71 -136q13 -24 13 -39q0 -65 -69 -93q-24 -9 -57 -9q-54 0 -87.5 21.5t-33.5 66.5q0 22 10 40
l61 108l-213 407l-71 5v39h264v-39l-56 -3q-8 -1 -14 -6t-2 -12l151 -287l163 287q4 7 0 12t-11 6l-58 3v39h210v-39z" />
    <glyph glyph-name="uni0195" unicode="&#x195;" horiz-adv-x="869" 
d="M591 51l-2 2q98 0 98 113v257h-70v34l122 39h41v-323q0 -63 -30.5 -106t-81.5 -63q-38 -15 -87 -15q-90 0 -140.5 45.5t-50.5 131.5v157q0 99 -99 99q-56 0 -109 -29v-328q0 -19 20 -21l43 -3v-39h-225v39l48 3q21 2 21 21v601h-75v33l128 39h40v-305q77 43 123 55
q24 6 43 6q65 0 100.5 -40.5t35.5 -110.5v-174q0 -60 25.5 -89t81.5 -29z" />
    <glyph glyph-name="uni0196" unicode="&#x196;" horiz-adv-x="410" 
d="M291 64v1q23 -1 38.5 19t26.5 49h54q-20 -72 -76 -114q-44 -35 -92 -35q-70 0 -100 38t-30 116v464q0 19 -21 21l-63 5v43h190v-535q0 -67 48 -71q9 -1 25 -1z" />
    <glyph glyph-name="uni0197" unicode="&#x197;" horiz-adv-x="330" 
d="M215 326v-257q0 -8 6.5 -14.5t14.5 -7.5l61 -4v-43h-264v43l60 4q21 2 21 22v257h-108v51h108v225q0 19 -21 21l-60 4v44h264v-44l-61 -4q-8 -1 -14.5 -7t-6.5 -14v-225h109v-51h-109z" />
    <glyph glyph-name="uni0198" unicode="&#x198;" horiz-adv-x="638" 
d="M697 618h-1q0 -39 -47 -55l-91 66q-5 -2 -19 -15q-12 -10 -30 -32l-168 -206l223 -328l73 -5v-43h-176v31l-185 267h-70v-229q0 -20 21 -22l57 -4v-43h-253v43l53 4q21 2 21 22v533q0 20 -21 22l-53 4v43h253v-43l-57 -4q-21 -2 -21 -22v-262h36l204 248q24 31 41 48
t50.5 34t72.5 17q61 0 81 -45q6 -12 6 -24z" />
    <glyph glyph-name="uni0199" unicode="&#x199;" horiz-adv-x="535" 
d="M242 688l-1 -1q-59 -32 -59 -150v-282h21l148 165q4 5 0 11t-9 7l-41 4v39h194v-39l-64 -8l-132 -140l172 -250l53 -6v-39h-155v39l-130 188h-57v-163q0 -19 21 -21l44 -4v-39h-227v39l49 4q20 2 20 21v400q0 97 35 166.5t102 95.5q30 12 67 12q61 0 81 -38q6 -11 6 -21
q0 -19 -11 -32.5t-26 -18.5q-8 -3 -9 -4z" />
    <glyph glyph-name="uni019A" unicode="&#x19a;" horiz-adv-x="296" 
d="M195 326v-262q0 -7 7 -13.5t14 -7.5l54 -4v-39h-243v39l55 4q7 1 14 7.5t7 13.5v262h-103v50h103v289h-77v33l128 39h41v-361h102v-50h-102z" />
    <glyph glyph-name="uni019B" unicode="&#x19b;" horiz-adv-x="645" 
d="M272 554l166 -413q20 -49 36 -68q15 -19 33 -19q13 0 28 9l43 85q32 0 53 -39q6 -11 6 -21q0 -57 -28 -79.5t-90 -22.5q-29 0 -51 10t-37 30t-24 37.5t-20 44.5l-98 243l-182 -353h-96l235 456q-3 9 -11 27.5t-11 27.5l-127 -111v72l105 92q-16 34 -30 46t-27 12
q-10 0 -28 -10l-44 -85q-32 0 -53 39q-6 10 -6 21q0 57 28 79.5t90 22.5q43 0 70 -21t48 -61l93 82v-72z" />
    <glyph glyph-name="uni019C" unicode="&#x19c;" horiz-adv-x="1077" 
d="M678 -16l-1 1q-104 0 -155 81q-36 -27 -56 -40t-59 -27t-79 -14q-71 0 -122.5 34t-75.5 89q-18 40 -18 91v404q0 20 -21 22l-62 4v43h256v-43l-51 -4q-21 -2 -21 -22v-384q0 -52 25 -88t66 -52q30 -11 63 -11q23 0 68 15q34 12 67 30q-12 37 -12 85v404q0 8 -6.5 14.5
t-14.5 7.5l-62 4v43h256v-43l-51 -4q-21 -2 -21 -22v-384q0 -151 126 -151q21 0 37.5 3t35.5 13.5t25 14t28 21.5t23 19v464q0 8 -6.5 14.5t-14.5 7.5l-62 4v43h256v-43l-51 -4q-21 -2 -21 -22v-535q0 -17 20 -19l58 -5v-43h-179v81q-10 -8 -31.5 -25.5t-33 -26.5
t-31.5 -20.5t-40 -17.5q-21 -7 -52 -7z" />
    <glyph glyph-name="uni019D" unicode="&#x19d;" horiz-adv-x="721" 
d="M165 -24l-1 -1q0 -97 -43 -151t-132 -54q-59 0 -78 43q-5 13 -5 24q0 40 35 63q8 5 11 5l83 -88q26 0 47 36q24 40 24 100v649q0 20 -22 22l-59 4v43h198v-25l333 -503v459q0 8 -6.5 14.5t-14.5 7.5l-57 4v43h214v-43l-56 -4q-21 -2 -21 -22v-602h-78l-372 560v-584z" />
    <glyph glyph-name="uni019E" unicode="&#x19e;" horiz-adv-x="566" 
d="M348 494h1q66 0 100 -41t34 -113v-494q0 -19 21 -21l44 -3v-39h-221v39l42 3q21 2 21 21v478q0 97 -96 97q-56 0 -110 -29v-328q0 -19 21 -21l42 -3v-39h-226v39l49 3q21 2 21 21v347h-70v33l122 38h41v-50q75 44 128 57q22 5 36 5z" />
    <glyph glyph-name="uni019F" unicode="&#x19f;" horiz-adv-x="730" 
d="M155 310v-1q10 -186 120 -250q37 -21 89 -21q98 0 155 80q51 72 57 192h-421zM576 360h-1q-10 185 -122 248q-37 21 -87 21q-97 0 -154 -80q-51 -70 -57 -189h421zM691 334v2q0 -148 -90 -248q-92 -103 -237 -103q-146 0 -237 100q-90 100 -90 252q0 149 89 248
q91 102 238 102q145 0 238 -104q89 -99 89 -249z" />
    <glyph glyph-name="Ohorn" unicode="&#x1a0;" horiz-adv-x="811" 
d="M577 334l1 -1q0 202 -118 272q-39 24 -91 24q-104 0 -161 -87q-52 -78 -52 -206q0 -201 117 -273q39 -24 92 -24q103 0 160 88q52 80 52 207zM680 857l1 2q55 0 84 -37t29 -98q0 -53 -50 -107q-46 -51 -104 -78q55 -89 55 -203q0 -148 -90 -248q-92 -103 -237 -103
q-146 0 -237 100q-91 99 -91 251q0 105 41.5 182t112.5 121q76 47 173 47q149 0 246 -113q74 46 96 101q9 21 9 44h-91q-29 31 -29 67q0 32 24 52t58 20z" />
    <glyph glyph-name="ohorn" unicode="&#x1a1;" horiz-adv-x="630" 
d="M406 241h-1q0 139 -74 191q-25 17 -58 17q-99 0 -127 -129q-8 -40 -8 -78q0 -138 74 -190q26 -18 60 -18q98 0 126 129q8 40 8 78zM480 482l-2 -3q-22 31 -22 54q0 26 20.5 41.5t48.5 15.5q41 0 62 -30.5t21 -76.5q0 -41 -41 -86q-30 -33 -75 -59q16 -52 16 -100
q0 -84 -38 -144t-102 -88q-42 -19 -99 -19q-84 0 -139.5 41.5t-80.5 110.5q-16 45 -16 100q0 85 37.5 145.5t102.5 89.5q45 20 99 20q143 0 206 -120q48 32 66 72q7 15 7 36h-71z" />
    <glyph glyph-name="uni01A2" unicode="&#x1a2;" horiz-adv-x="897" 
d="M380 40l1 -2q64 0 90.5 34t26.5 104v417q-64 35 -131 35q-104 0 -161 -87q-52 -78 -52 -206q0 -102 35 -173.5t102 -102.5q41 -19 89 -19zM651 644l-1 1q64 0 108 41h46v-836q0 -20 21 -22l61 -4v-43h-264v43l60 4q21 2 21 22v719q-45 -9 -105 -4v-405q0 -62 -35.5 -103
t-91.5 -60q-42 -14 -93 -14q-206 0 -298 179q-41 80 -41 173q0 149 89 248q91 102 238 102q107 0 172 -20q67 -21 113 -21z" />
    <glyph glyph-name="uni01A3" unicode="&#x1a3;" horiz-adv-x="740" 
d="M508 458q52 0 105 24h39v-636q0 -9 6 -15t15 -7l52 -3v-39h-235v39l49 3q21 2 21 21v553q-17 -4 -46 -4t-46 4v-287q0 -55 -56 -90q-53 -34 -141 -34q-84 0 -139.5 41.5t-80.5 110.5q-16 45 -16 100q0 85 37.5 145.5t102.5 89.5q45 20 99 20q65 0 187 -30q24 -6 47 -6z
M272 33v-1q54 0 78.5 26t24.5 81v285q-55 24 -102 24q-99 0 -127 -129q-8 -40 -8 -78q0 -138 74 -190q26 -18 60 -18z" />
    <glyph glyph-name="uni01A4" unicode="&#x1a4;" horiz-adv-x="650" 
d="M336 301q84 0 128 42t44 125q0 154 -177 154h-33q-12 0 -18 -1v-315q8 0 27 -2.5t29 -2.5zM-16 563q0 108 163 108h189q52 0 92.5 -5.5t76 -19t58.5 -36t36 -58t13 -83.5q0 -82 -43.5 -133.5t-115.5 -72.5q-48 -13 -102 -12q-24 0 -62 2q-7 0 -9 2v-186q0 -8 6.5 -14.5
t14.5 -7.5l66 -4v-43h-263v43l52 4q8 1 15.5 8t7.5 14v534q0 21 -21 21h-38q-43 0 -59 -24l42 -71q-27 -30 -64 -30q-23 0 -39 19.5t-16 44.5z" />
    <glyph glyph-name="uni01A5" unicode="&#x1a5;" horiz-adv-x="559" 
d="M183 50h1q46 -16 81 -16q117 0 150 125q9 36 9 75q0 61 -20 107.5t-58 67.5q-27 15 -61 15q-31 0 -70 -15q-18 -6 -32 -15v-344zM476 640h-2q0 -24 -16 -40.5t-40 -16.5q-16 0 -23 5l-34 84q-15 14 -57 14q-79 0 -111 -93q-10 -30 -10 -72v-89q41 33 94 52q27 9 56 9
q79 0 133 -67q57 -70 57 -179q0 -91 -39 -152.5t-108 -88.5q-46 -18 -105 -18q-49 0 -88 9v-149q0 -18 22 -20l59 -6v-39h-243v39l48 6q21 2 21 20v673q0 65 41 127q59 89 170 89q38 0 65.5 -3.5t54.5 -12.5t41 -29.5t14 -51.5z" />
    <glyph glyph-name="uni01A6" unicode="&#x1a6;" horiz-adv-x="617" 
d="M637 -55l-4 -1q-41 -15 -70 -15q-63 0 -106 57q-23 31 -56.5 106t-50.5 103q-37 58 -79 80q-22 11 -43 11h-16v-218q0 -8 6.5 -14.5t14.5 -7.5l61 -4v-43h-264v43l60 4q21 2 21 22v533q0 19 -21 21l-60 4v44h264v-44l-61 -4q-20 -2 -21 -21v-22h63q44 0 74.5 -2
t64.5 -10.5t54.5 -22.5t34 -40t13.5 -62q0 -106 -101 -140q-29 -9 -57 -9q45 -10 72.5 -42.5t51.5 -84.5q5 -11 21.5 -53.5t30 -67t31.5 -42.5q16 -16 39 -16h15q8 0 18 2v-44zM262 336q64 0 101.5 25.5t37.5 80.5q0 89 -144 89h-48v-193q16 -2 53 -2z" />
    <glyph glyph-name="uni01A7" unicode="&#x1a7;" horiz-adv-x="522" 
d="M380 530l1 -3q0 50 -34.5 76.5t-90.5 26.5q-50 0 -75 -12t-28 -27l-19 -96h-57l6 156q83 34 177 34q157 0 208 -91q17 -31 17 -73t-13 -76.5t-39.5 -60t-49.5 -41.5t-59 -35q-12 -6 -38.5 -19t-42 -21.5t-35.5 -21.5t-34 -27q-31 -29 -31 -67q0 -57 39.5 -85.5
t103.5 -28.5q61 0 93 19q24 11 26 27l17 113h63l-6 -177q-77 -37 -179 -37q-130 0 -199 54q-60 48 -60 130q0 63 30 102.5t84 71.5q6 4 83 42.5t105 64.5q37 35 37 82z" />
    <glyph glyph-name="uni01A8" unicode="&#x1a8;" horiz-adv-x="399" 
d="M185 494l1 -1q80 0 128 -31t48 -97q0 -40 -17 -65t-48 -47q-53 -37 -100 -60q-50 -24 -65 -48q-9 -13 -9 -36q0 -35 24.5 -55.5t62.5 -20.5q48 0 90 28l15 85h51l-5 -133q-56 -25 -139 -25q-186 0 -186 137q0 54 46 96q13 12 33 26t34 22.5t41 23.5t35 20q24 14 35.5 28
t11.5 40q0 32 -21.5 48.5t-58.5 16.5q-39 0 -72 -23l-11 -70h-52l4 118q51 23 124 23z" />
    <glyph glyph-name="uni01A9" unicode="&#x1a9;" horiz-adv-x="584" 
d="M39 0v44l214 304l-194 277v46h466v-160h-59l-15 93q-4 17 -17 17h-251l188 -273l-213 -297h295q13 0 17 18l17 116h59v-185h-507z" />
    <glyph glyph-name="uni01AA" unicode="&#x1aa;" horiz-adv-x="511" 
d="M319 502q0 100 -53 133q-18 12 -43 12q-51 0 -73.5 -41t-22.5 -104q0 -98 53 -132q18 -12 42 -12q51 0 74 41t23 103zM542 -102q25 0 40 -18.5t15 -45.5q0 -30 -26 -46.5t-62 -16.5q-137 0 -178 125q-12 38 -12 83v362q-46 -24 -97 -24q-66 0 -110 30t-64 81
q-13 32 -13 74q0 63 30 107t80 64q35 15 78 15q65 0 110.5 -31t65.5 -82q13 -33 13 -73v-523v-14q0 -33 1 -50t5 -40.5t14.5 -37t28.5 -19.5z" />
    <glyph glyph-name="uni01AB" unicode="&#x1ab;" horiz-adv-x="339" 
d="M264 44l1 1q38 0 69 17v-175q0 -115 -127 -115q-69 0 -96 40q-7 10 -7 21q0 41 34 55q8 3 9 4l81 -70q55 0 55 59v121q-31 -14 -85 -14q-57 0 -82 26.5t-25 85.5v332h-64v33l68 32l45 106h44v-121h141v-50h-141v-279q0 -53 17.5 -81t62.5 -28z" />
    <glyph glyph-name="uni01AC" unicode="&#x1ac;" horiz-adv-x="599" 
d="M524 511l-14 94q-2 17 -17 17h-143v-553q0 -20 21 -22l64 -4v-43h-271v43l64 4q21 2 21 22v553h-114q-52 -4 -62 -71l68 -57q-27 -31 -50 -40q-9 -3 -18 -3q-31 0 -48.5 24t-17.5 59q0 93 78 127q23 10 52 10h446v-160h-59z" />
    <glyph glyph-name="uni01AD" unicode="&#x1ad;" horiz-adv-x="339" 
d="M91 497l-2 1q0 240 187 240q61 0 81 -38q6 -10 6 -23q0 -38 -46 -53l-92 66q-42 -23 -42 -127v-81h141v-50h-141v-279q0 -53 17.5 -81t62.5 -28q38 0 69 17v-40q-70 -33 -134 -33q-57 0 -82 26.5t-25 85.5v332h-64v33z" />
    <glyph glyph-name="uni01AE" unicode="&#x1ae;" horiz-adv-x="599" 
d="M455 -229q-206 0 -206 271v580h-144q-15 0 -17 -17l-14 -94h-58v160h567v-160h-59l-14 94q-2 17 -17 17h-143v-643q0 -44 1.5 -68t11 -53.5t28.5 -40.5l97 67q42 -12 42 -57q0 -28 -21 -42t-54 -14z" />
    <glyph glyph-name="Uhorn" unicode="&#x1af;" horiz-adv-x="826" 
d="M617 801l1 1q0 33 22.5 52.5t57.5 19.5q75 0 105 -80q9 -24 9 -55q0 -92 -58 -162q-54 -66 -148 -96v-260q0 -238 -257 -238q-244 0 -244 238v380q0 20 -21 22l-53 4v43h254v-43l-57 -4q-21 -2 -21 -22v-354q0 -100 38.5 -148.5t130.5 -48.5q91 0 131 49.5t40 147.5v354
q0 20 -22 22l-47 4v43h197v-43l-48 -4q-21 -2 -21 -22v-76q66 28 98.5 76t32.5 132h-93q-27 35 -27 68z" />
    <glyph glyph-name="uhorn" unicode="&#x1b0;" horiz-adv-x="647" 
d="M477 583l1 -2q0 26 19 41.5t47 15.5q42 0 66 -31t24 -77t-48 -96q-46 -50 -103 -70v-302q0 -9 6.5 -14.5t15.5 -6.5l44 -3v-39h-159v57q-59 -44 -116 -61q-21 -7 -45 -7q-138 0 -138 162v271h-70v34l123 39h40v-325q0 -113 97 -113q38 0 107 30v335h-70v34l122 39h41v-86
q62 32 85 81q8 19 8 39h-76q-21 29 -21 55z" />
    <glyph glyph-name="uni01B1" unicode="&#x1b1;" horiz-adv-x="683" 
d="M644 312v-2q0 -134 -77 -226q-84 -102 -226 -102t-226 102q-76 93 -76 226q0 74 36 168q28 70 65 118q5 7 3.5 14t-9.5 8l-70 6v45h175q-49 -109 -53 -121q-33 -96 -33 -208q0 -146 57 -227q51 -70 131 -70q81 0 131 71q57 81 57 228q0 166 -70 296q-6 11 -16 33h176v-45
l-71 -6q-7 -1 -9 -8t3 -14q62 -79 91 -199q11 -46 11 -87z" />
    <glyph glyph-name="uni01B2" unicode="&#x1b2;" horiz-adv-x="706" 
d="M667 368v-1q0 -145 -59 -240.5t-171 -129.5q-48 -14 -104 -14q-120 0 -189 94q-38 52 -38 131v396q0 19 -21 21l-56 5v41h178v-442q0 -64 28.5 -106.5t77.5 -60.5q33 -11 66 -11q91 0 155 81q70 89 70 220q0 137 -85 210h-106q-30 20 -30 54q0 32 24.5 51.5t59.5 19.5
q53 0 100 -51q69 -75 92 -196q8 -40 8 -72z" />
    <glyph glyph-name="uni01B3" unicode="&#x1b3;" horiz-adv-x="625" 
d="M-46 563l-2 -1q0 60 36 92t97 32q79 0 111 -41q14 -17 27 -42l122 -261l135 258q4 8 -0.5 14t-11.5 7l-56 7v43h203v-43l-54 -10l-182 -333v-216q0 -8 6.5 -14.5t14.5 -7.5l64 -4v-43h-270v43l62 4q22 2 22 22v201l-167 337q-17 17 -31 17q-32 0 -49 -24l42 -71
q-27 -30 -64 -30q-23 0 -39 19.5t-16 44.5z" />
    <glyph glyph-name="uni01B4" unicode="&#x1b4;" horiz-adv-x="564" 
d="M643 565l-1 2q0 -38 -32 -65l-89 48q-21 -9 -33 -26.5t-27 -49.5q-10 -22 -28 -70l-157 -434q-20 -59 -57 -122q-45 -77 -116 -77q-51 0 -68 36q-5 12 -5 21q0 33 32 60l94 -43q38 38 80 156l-170 437l-55 6v38h221v-38l-48 -3q-8 -1 -13 -7.5t-2 -14.5l114 -291l110 308
q22 65 67 124q30 40 67 59q18 9 38 9q53 0 72 -41q6 -12 6 -22z" />
    <glyph glyph-name="uni01B5" unicode="&#x1b5;" horiz-adv-x="575" 
d="M343 336l-185 -285h285q13 0 17 18l17 116h59v-185h-497v44l188 292h-100v50h133l151 235h-260q-13 0 -17 -17l-15 -93h-59v160h471v-46l-156 -239h100v-50h-132z" />
    <glyph glyph-name="uni01B6" unicode="&#x1b6;" horiz-adv-x="461" 
d="M34 0l1 53l117 169h-61v50h96l113 163h-174q-7 0 -13 -7t-7 -14l-10 -74h-51v142h370v-41l-118 -169h67v-50h-102l-121 -174h202q7 0 13 8t8 16l10 79h54v-151h-394z" />
    <glyph glyph-name="uni01B7" unicode="&#x1b7;" horiz-adv-x="610" 
d="M156 576v1q-9 0 -16 -9t-7 -18l-11 -98h-57v220h476v-72l-237 -299q107 0 187 -73q81 -73 81 -174q0 -116 -94 -199q-58 -52 -138 -74q-37 -10 -81 -10q-77 0 -136 25t-86 71q-15 25 -15 48q0 32 18.5 53.5t49.5 21.5q22 0 38 -10l36 -118q59 -35 97 -35q52 0 99 36
q68 52 91 140q7 25 7 52q0 117 -106 173q-42 22 -82 22q-30 0 -44 -14l-31 35l245 305h-284z" />
    <glyph glyph-name="uni01B8" unicode="&#x1b8;" horiz-adv-x="611" 
d="M515 -10l1 -1q31 0 49.5 -21.5t18.5 -53.5q0 -52 -61 -96q-67 -48 -177 -48q-127 0 -219 79q-94 81 -94 194q0 100 81 179q79 77 187 77l-237 299v72h476v-220h-57l-11 98q0 9 -7 18t-16 9h-284l245 -305l-31 -35q-14 14 -44 14q-65 0 -122 -46q-66 -54 -66 -152
q0 -85 58 -152q60 -72 138 -72q37 0 98 35l36 118q16 10 38 10z" />
    <glyph glyph-name="uni01B9" unicode="&#x1b9;" horiz-adv-x="528" 
d="M439 -57q26 0 43 -16.5t17 -42.5q0 -39 -53 -75q-59 -38 -154 -38q-84 0 -146.5 34.5t-93.5 93.5q-21 39 -21 84q0 82 65 147q67 67 157 67l-194 217v67h402v-183h-52l-10 76q-1 8 -6 14.5t-13 6.5h-233l200 -220l-27 -28q-14 11 -38 11q-52 0 -96 -44q-51 -51 -51 -121
q0 -53 26 -95.5t65 -64.5q28 -16 63 -16q40 0 86 25l31 93q12 8 33 8z" />
    <glyph glyph-name="uni01BA" unicode="&#x1ba;" horiz-adv-x="484" 
d="M391 -57h1q26 0 43 -16.5t17 -42.5q0 -39 -53 -75q-59 -38 -154 -38q-116 0 -151 74q-11 25 -11 53q0 48 44 84q30 24 99 55t93 46q44 27 44 59q0 44 -112 44q-30 0 -93 -18l-8 17l199 212h-233q-8 0 -13 -6.5t-6 -14.5l-10 -76h-52v183h402v-67l-153 -165
q81 0 124 -22.5t43 -88.5q0 -50 -45 -88q-29 -24 -100.5 -54t-97.5 -47q-46 -30 -46 -71q0 -38 52 -58q15 -5 27 -5q40 0 86 25l31 93q12 8 33 8z" />
    <glyph glyph-name="uni01BB" unicode="&#x1bb;" horiz-adv-x="562" 
d="M490 492l1 -3q0 -80 -68 -164h123v-51h-169q-69 -69 -227 -193h296l18 86h49v-171h-469v67q17 14 61 50.5t66 55t54.5 48.5t57.5 56h-214v51h257q58 80 58 155q0 68 -33.5 107.5t-97.5 39.5q-39 0 -73 -18q-6 -3 -8 -3v-111q-17 -17 -49 -17q-27 0 -43.5 16t-16.5 43
q0 63 64 105q61 41 152 41q73 0 123.5 -29.5t72.5 -82.5q15 -34 15 -78z" />
    <glyph glyph-name="uni01BC" unicode="&#x1bc;" horiz-adv-x="556" 
d="M207 624l-1 5q-9 0 -15 -6.5t-6 -14.5v-144q110 0 209 -53q72 -38 105 -109q17 -37 17 -81q0 -84 -44 -137.5t-117 -77.5q-53 -18 -121 -18q-58 0 -105 19t-70 53q-15 21 -15 45q0 25 16.5 41t41.5 16q4 0 16.5 -2.5t15.5 -2.5l33 -92q17 -17 62 -27q12 -3 21 -3
q57 0 96.5 29.5t57.5 76.5q11 30 11 54q0 60 -49 104q-87 80 -271 80v225q0 7 -6.5 13t-14.5 7l-53 4v43h463v-156h-55l-12 90q-1 7 -6 13t-12 6h-192z" />
    <glyph glyph-name="uni01BD" unicode="&#x1bd;" horiz-adv-x="437" 
d="M193 434l-1 -1q-6 0 -10.5 -5t-4.5 -10v-84q78 0 134.5 -30.5t79.5 -86.5q11 -28 11 -62q0 -59 -33.5 -98t-87.5 -57q-37 -12 -82 -12q-99 0 -142 54q-13 16 -13 39q0 39 31 55q10 5 19 5q3 0 24 -3q4 0 5 -1l35 -91q12 -12 54 -12q50 0 78.5 28t28.5 78q0 66 -72 100
q-65 31 -162 31v148q0 13 -15 15l-48 3v45h349v-117h-45l-9 55q-2 14 -12 14h-112z" />
    <glyph glyph-name="uni01BE" unicode="&#x1be;" horiz-adv-x="465" 
d="M296 627h-4q-7 0 -14.5 -6.5t-7.5 -13.5v-145h128v-51h-128v-45q117 -50 146 -147q8 -27 8 -57q0 -64 -35 -105.5t-91 -60.5q-38 -12 -81 -12q-56 0 -100.5 19t-66.5 52q-12 19 -12 37q0 57 53 57q20 0 44 -15l27 -87q26 -18 58 -18q69 0 97 83q9 27 9 60q0 67 -49 122
q-41 46 -96 64v54h-131v51h131v145q0 14 -22 19l-51 5v39h240v-39z" />
    <glyph glyph-name="uni01BF" unicode="&#x1bf;" horiz-adv-x="529" 
d="M183 -33q106 73 160 153t54 170q0 70 -20.5 102t-80.5 32q-23 0 -58 -22q-26 -16 -55 -47v-388zM344 494q77 0 114.5 -47t37.5 -129t-48 -163q-74 -125 -265 -241v-66q0 -18 22 -20l59 -6v-39h-243v39l48 6q21 2 21 20v563h-69v33l123 38h39v-74q48 48 103 72
q30 14 58 14z" />
    <glyph glyph-name="uni01C0" unicode="&#x1c0;" horiz-adv-x="221" 
d="M85 -215v951h51v-951h-51z" />
    <glyph glyph-name="uni01C1" unicode="&#x1c1;" horiz-adv-x="348" 
d="M85 -215v951h51v-951h-51zM212 -215v951h51v-951h-51z" />
    <glyph glyph-name="uni01C2" unicode="&#x1c2;" horiz-adv-x="416" 
d="M183 -215v382h-159v51h159v84h-159v51h159v383h51v-383h158v-51h-158v-84h158v-51h-158v-382h-51z" />
    <glyph glyph-name="uni01C3" unicode="&#x1c3;" horiz-adv-x="230" 
d="M115 111q26 0 44 -17.5t18 -43.5t-18 -44t-44 -18t-43.5 18t-17.5 44q0 27 17 44t44 17zM115 687h-1q61 0 61 -65q0 -12 -2.5 -40t-3.5 -36q-17 -219 -29 -366h-49q-2 26 -16 178.5t-20 239.5q-1 14 -1 24q0 65 61 65z" />
    <glyph glyph-name="uni01C4" unicode="&#x1c4;" horiz-adv-x="1270" 
d="M289 49q255 0 255 286q0 288 -260 288h-76v-575zM657 337h1q0 -132 -62 -214.5t-172 -110.5q-50 -12 -113 -12h-278v43l53 4q22 2 22 22v533q0 20 -22 22l-53 4v43h258q126 0 213 -47.5t126 -137.5q27 -63 27 -149zM736 0v44l372 577h-260q-13 0 -17 -17l-15 -93h-59v160
h471v-46l-373 -574h285q12 0 17 18l17 116h59v-185h-497zM1033 746h-76l-126 169h61l104 -99l103 99h60z" />
    <glyph glyph-name="uni01C5" unicode="&#x1c5;" horiz-adv-x="1157" 
d="M289 49q255 0 255 286q0 288 -260 288h-76v-575zM657 337h1q0 -132 -62 -214.5t-172 -110.5q-50 -12 -113 -12h-278v43l53 4q22 2 22 22v533q0 20 -22 22l-53 4v43h258q126 0 213 -47.5t126 -137.5q27 -63 27 -149zM731 0l1 53l265 382h-174q-7 0 -13 -7t-7 -14l-10 -74
h-51v142h370v-41l-274 -393h202q7 0 13 8t8 16l10 79h54v-151h-394zM972 551h-76l-126 169h61l104 -99l103 99h60z" />
    <glyph glyph-name="uni01C6" unicode="&#x1c6;" horiz-adv-x="1025" 
d="M278 56v1q45 0 103 35v340q-45 15 -85 15q-59 0 -97 -32.5t-54 -85.5q-12 -37 -12 -84q0 -133 83 -175q28 -14 62 -14zM289 495q12 0 93 -12v183h-76v33l129 39h40v-673q0 -19 21 -21l43 -3v-39h-157v53q-61 -46 -113 -60q-21 -6 -43 -6q-93 0 -146 78q-46 66 -46 162
q0 88 38.5 150t104.5 93q49 23 112 23zM598 1l1 53l265 382h-174q-7 0 -13 -7t-7 -14l-10 -74h-51v142h370v-41l-274 -393h202q7 0 13 8t8 16l10 79h54v-151h-394zM839 552h-76l-126 169h61l104 -99l103 99h60z" />
    <glyph glyph-name="uni01C7" unicode="&#x1c7;" horiz-adv-x="1015" 
d="M27 0v43l58 4q21 2 21 22v533q0 20 -21 22l-58 4v43h255v-43l-53 -4q-22 -2 -22 -22v-553h210q8 0 14.5 5t7.5 12l16 120h58v-186h-486zM684 35v-1q39 0 65 16.5t38.5 48t17.5 66t5 80.5v356q0 20 -21 22l-63 4v43h264v-43l-58 -4q-8 -1 -14.5 -7.5t-6.5 -14.5v-349
q0 -130 -51.5 -199.5t-168.5 -69.5q-60 0 -121 23q-13 5 -14 6v171h60l22 -122q4 -26 46 -26z" />
    <glyph glyph-name="uni01C8" unicode="&#x1c8;" horiz-adv-x="822" 
d="M27 0v43l58 4q21 2 21 22v533q0 20 -21 22l-58 4v43h255v-43l-53 -4q-22 -2 -22 -22v-553h210q8 0 14.5 5t7.5 12l16 120h58v-186h-486zM592 -183q48 27 48 162v444h-71v33l123 38h41v-430q0 -141 -39 -200q-61 -93 -166 -93q-76 0 -76 55q0 39 43 58zM683 708
q27 0 44 -17t17 -44t-17 -44.5t-44 -17.5q-26 0 -44 18t-18 44t18 43.5t44 17.5z" />
    <glyph glyph-name="uni01C9" unicode="&#x1c9;" horiz-adv-x="588" 
d="M195 63q0 -7 7 -14t14 -7l54 -3v-39h-243v39l53 3q7 0 14.5 7t7.5 14v602h-76v33l128 39h41v-674zM358 -183q48 27 48 162v444h-71v33l123 38h41v-430q0 -141 -39 -200q-61 -93 -166 -93q-76 0 -76 55q0 39 43 58zM449 708q27 0 44 -17t17 -44t-17 -44.5t-44 -17.5
q-26 0 -44 18t-18 44t18 43.5t44 17.5z" />
    <glyph glyph-name="uni01CA" unicode="&#x1ca;" horiz-adv-x="1206" 
d="M636 624q-21 -2 -21 -22v-602h-78l-372 560v-491q0 -20 21 -22l57 -4v-43h-216v43l57 4q22 2 22 22v533q0 20 -22 22l-59 4v43h198v-25l333 -503v459q0 8 -6.5 14.5t-14.5 7.5l-57 4v43h214v-43zM874 35v-1q39 0 65 16.5t38.5 48t17.5 66t5 80.5v356q0 20 -21 22l-63 4
v43h264v-43l-58 -4q-8 -1 -14.5 -7.5t-6.5 -14.5v-349q0 -130 -51.5 -199.5t-168.5 -69.5q-60 0 -121 23q-13 5 -14 6v171h60l22 -122q4 -26 46 -26z" />
    <glyph glyph-name="uni01CB" unicode="&#x1cb;" horiz-adv-x="1013" 
d="M636 624q-21 -2 -21 -22v-602h-78l-372 560v-491q0 -20 21 -22l57 -4v-43h-216v43l57 4q22 2 22 22v533q0 20 -22 22l-59 4v43h198v-25l333 -503v459q0 8 -6.5 14.5t-14.5 7.5l-57 4v43h214v-43zM782 -183q48 27 48 162v444h-71v33l123 38h41v-430q0 -141 -39 -200
q-61 -93 -166 -93q-76 0 -76 55q0 39 43 58zM873 708q27 0 44 -17t17 -44t-17 -44.5t-44 -17.5q-26 0 -44 18t-18 44t18 43.5t44 17.5z" />
    <glyph glyph-name="uni01CC" unicode="&#x1cc;" horiz-adv-x="858" 
d="M327 494h1q66 0 100 -41t34 -113v-276q0 -19 21 -21l44 -3v-39h-221v39l42 3q21 2 21 21v260q0 97 -96 97q-56 0 -110 -29v-328q0 -19 21 -21l42 -3v-39h-226v39l49 3q21 2 21 21v347h-70v33l122 38h41v-50q75 44 128 57q22 5 36 5zM629 -183q48 27 48 162v444h-71v33
l123 38h41v-430q0 -141 -39 -200q-61 -93 -166 -93q-76 0 -76 55q0 39 43 58zM720 708q27 0 44 -17t17 -44t-17 -44.5t-44 -17.5q-26 0 -44 18t-18 44t18 43.5t44 17.5z" />
    <glyph glyph-name="Acaron" unicode="&#x1cd;" horiz-adv-x="673" 
d="M314 558l-97 -262h195zM431 0v44l58 5q4 0 8 6t2 11l-69 183h-231l-66 -180q-2 -6 3 -13t11 -7l59 -5v-43h-201v43l58 12l233 632h75l232 -617q3 -11 6.5 -14.5t14.5 -5.5l45 -8v-43h-238zM371 747h-76l-126 169h61l104 -99l103 99h60z" />
    <glyph glyph-name="acaron" unicode="&#x1ce;" horiz-adv-x="508" 
d="M133 130l-1 -1q0 -36 20.5 -59.5t54.5 -23.5q26 0 82 23q23 11 41 24v173q-66 -16 -106 -33q-39 -17 -60 -33q-31 -25 -31 -70zM264 493v1q80 0 119 -36.5t39 -113.5v-280q0 -19 21 -21l48 -3v-39h-148l-13 59q-71 -55 -138 -69q-15 -3 -30 -3q-88 0 -119 78
q-10 23 -10 56q0 51 26.5 78t76.5 48q64 28 194 56v43q0 99 -93 99q-41 0 -71 -13v-87h-73q-37 0 -37 29q0 57 67 89q60 29 141 29zM286 551h-76l-126 169h61l104 -99l103 99h60z" />
    <glyph glyph-name="Icaron" unicode="&#x1cf;" horiz-adv-x="330" 
d="M33 0v43l60 4q21 2 21 22v533q0 19 -21 21l-60 4v44h264v-44l-61 -4q-8 -1 -14.5 -7t-6.5 -14v-533q0 -8 6.5 -14.5t14.5 -7.5l61 -4v-43h-264zM203 746h-76l-126 169h61l104 -99l103 99h60z" />
    <glyph glyph-name="icaron" unicode="&#x1d0;" horiz-adv-x="303" 
d="M34 0v39l49 3q21 2 21 21v357h-69v35l122 38h40v-430q0 -19 21 -21l51 -3v-39h-235zM189 551h-76l-126 169h61l104 -99l103 99h60z" />
    <glyph glyph-name="Ocaron" unicode="&#x1d1;" horiz-adv-x="730" 
d="M576 334l1 -1q0 202 -118 272q-39 24 -91 24q-104 0 -161 -87q-52 -78 -52 -206q0 -201 117 -273q39 -24 92 -24q103 0 160 88q52 80 52 207zM693 334v2q0 -148 -90 -248q-92 -103 -237 -103q-146 0 -237 100q-90 100 -90 252q0 149 89 248q91 102 238 102
q145 0 238 -104q89 -99 89 -249zM404 747h-76l-126 169h61l104 -99l103 99h60z" />
    <glyph glyph-name="ocaron" unicode="&#x1d2;" horiz-adv-x="543" 
d="M406 241h-1q0 139 -74 191q-25 17 -58 17q-99 0 -127 -129q-8 -40 -8 -78q0 -138 74 -190q26 -18 60 -18q98 0 126 129q8 40 8 78zM509 240v-2q0 -84 -38 -144t-102 -88q-42 -19 -99 -19q-84 0 -139.5 41.5t-80.5 110.5q-16 45 -16 100q0 85 37.5 145.5t102.5 89.5
q45 20 99 20q84 0 139.5 -42.5t80.5 -112.5q16 -45 16 -99zM309 549h-76l-126 169h61l104 -99l103 99h60z" />
    <glyph glyph-name="Ucaron" unicode="&#x1d3;" horiz-adv-x="711" 
d="M376 51q91 0 131 49.5t40 147.5v354q0 20 -22 22l-57 4v43h217v-43l-58 -4q-21 -2 -21 -22v-380q0 -238 -257 -238q-244 0 -244 238v380q0 20 -21 22l-53 4v43h254v-43l-57 -4q-21 -2 -21 -22v-354q0 -100 38.5 -148.5t130.5 -48.5zM404 746h-76l-126 169h61l104 -99
l103 99h60z" />
    <glyph glyph-name="ucaron" unicode="&#x1d4;" horiz-adv-x="568" 
d="M280 56l2 -2q38 0 107 30v335h-70v34l122 39h41v-430q0 -9 6.5 -14.5t15.5 -6.5l44 -3v-39h-159v57q-59 -44 -116 -61q-21 -7 -45 -7q-138 0 -138 162v271h-70v34l123 39h40v-325q0 -113 97 -113zM323 549h-76l-126 169h61l104 -99l103 99h60z" />
    <glyph glyph-name="uni01D5" unicode="&#x1d5;" horiz-adv-x="711" 
d="M376 51q91 0 131 49.5t40 147.5v354q0 20 -22 22l-57 4v43h217v-43l-58 -4q-21 -2 -21 -22v-380q0 -238 -257 -238q-244 0 -244 238v380q0 20 -21 22l-53 4v43h254v-43l-57 -4q-21 -2 -21 -22v-354q0 -100 38.5 -148.5t130.5 -48.5zM263 891q23 0 38.5 -16t15.5 -39
t-15.5 -39.5t-38.5 -16.5t-39 16t-16 39t16 39.5t39 16.5zM471 891q22 0 37.5 -16t15.5 -39q0 -24 -15 -40t-38 -16q-24 0 -40 16t-16 40q0 22 16.5 38.5t39.5 16.5zM199 977v63h335v-63h-335z" />
    <glyph glyph-name="uni01D6" unicode="&#x1d6;" horiz-adv-x="568" 
d="M280 56l2 -2q38 0 107 30v335h-70v34l122 39h41v-430q0 -9 6.5 -14.5t15.5 -6.5l44 -3v-39h-159v57q-59 -44 -116 -61q-21 -7 -45 -7q-138 0 -138 162v271h-70v34l123 39h40v-325q0 -113 97 -113zM182 694q23 0 38.5 -16t15.5 -39t-15.5 -39.5t-38.5 -16.5t-39 16t-16 39
t16 39.5t39 16.5zM390 694q22 0 37.5 -16t15.5 -39q0 -24 -15 -40t-38 -16q-24 0 -40 16t-16 40q0 22 16.5 38.5t39.5 16.5zM118 779v63h335v-63h-335z" />
    <glyph glyph-name="uni01D7" unicode="&#x1d7;" horiz-adv-x="711" 
d="M376 51q91 0 131 49.5t40 147.5v354q0 20 -22 22l-57 4v43h217v-43l-58 -4q-21 -2 -21 -22v-380q0 -238 -257 -238q-244 0 -244 238v380q0 20 -21 22l-53 4v43h254v-43l-57 -4q-21 -2 -21 -22v-354q0 -100 38.5 -148.5t130.5 -48.5zM263 891q23 0 38.5 -16t15.5 -39
t-15.5 -39.5t-38.5 -16.5t-39 16t-16 39t16 39.5t39 16.5zM471 891q22 0 37.5 -16t15.5 -39q0 -24 -15 -40t-38 -16q-24 0 -40 16t-16 40q0 22 16.5 38.5t39.5 16.5zM465 1124h1q22 0 34 -12t12 -33t-23 -40l-153 -97h-56l132 155l4.5 4.5l4.5 4.5t4.5 4t5 4t5 3t6 3t6.5 2
t8 1.5t9 0.5z" />
    <glyph glyph-name="uni01D8" unicode="&#x1d8;" horiz-adv-x="568" 
d="M280 56l2 -2q38 0 107 30v335h-70v34l122 39h41v-430q0 -9 6.5 -14.5t15.5 -6.5l44 -3v-39h-159v57q-59 -44 -116 -61q-21 -7 -45 -7q-138 0 -138 162v271h-70v34l123 39h40v-325q0 -113 97 -113zM182 694q23 0 38.5 -16t15.5 -39t-15.5 -39.5t-38.5 -16.5t-39 16t-16 39
t16 39.5t39 16.5zM390 694q22 0 37.5 -16t15.5 -39q0 -24 -15 -40t-38 -16q-24 0 -40 16t-16 40q0 22 16.5 38.5t39.5 16.5zM384 926h1q22 0 34 -12t12 -33t-23 -40l-153 -97h-56l132 155l4.5 4.5l4.5 4.5t4.5 4t5 4t5 3t6 3t6.5 2t8 1.5t9 0.5z" />
    <glyph glyph-name="uni01D9" unicode="&#x1d9;" horiz-adv-x="711" 
d="M376 51q91 0 131 49.5t40 147.5v354q0 20 -22 22l-57 4v43h217v-43l-58 -4q-21 -2 -21 -22v-380q0 -238 -257 -238q-244 0 -244 238v380q0 20 -21 22l-53 4v43h254v-43l-57 -4q-21 -2 -21 -22v-354q0 -100 38.5 -148.5t130.5 -48.5zM263 891q23 0 38.5 -16t15.5 -39
t-15.5 -39.5t-38.5 -16.5t-39 16t-16 39t16 39.5t39 16.5zM471 891q22 0 37.5 -16t15.5 -39q0 -24 -15 -40t-38 -16q-24 0 -40 16t-16 40q0 22 16.5 38.5t39.5 16.5zM404 942h-76l-126 169h61l104 -99l103 99h60z" />
    <glyph glyph-name="uni01DA" unicode="&#x1da;" horiz-adv-x="568" 
d="M280 56l2 -2q38 0 107 30v335h-70v34l122 39h41v-430q0 -9 6.5 -14.5t15.5 -6.5l44 -3v-39h-159v57q-59 -44 -116 -61q-21 -7 -45 -7q-138 0 -138 162v271h-70v34l123 39h40v-325q0 -113 97 -113zM182 694q23 0 38.5 -16t15.5 -39t-15.5 -39.5t-38.5 -16.5t-39 16t-16 39
t16 39.5t39 16.5zM390 694q22 0 37.5 -16t15.5 -39q0 -24 -15 -40t-38 -16q-24 0 -40 16t-16 40q0 22 16.5 38.5t39.5 16.5zM323 744h-76l-126 169h61l104 -99l103 99h60z" />
    <glyph glyph-name="uni01DB" unicode="&#x1db;" horiz-adv-x="711" 
d="M376 51q91 0 131 49.5t40 147.5v354q0 20 -22 22l-57 4v43h217v-43l-58 -4q-21 -2 -21 -22v-380q0 -238 -257 -238q-244 0 -244 238v380q0 20 -21 22l-53 4v43h254v-43l-57 -4q-21 -2 -21 -22v-354q0 -100 38.5 -148.5t130.5 -48.5zM263 891q23 0 38.5 -16t15.5 -39
t-15.5 -39.5t-38.5 -16.5t-39 16t-16 39t16 39.5t39 16.5zM471 891q22 0 37.5 -16t15.5 -39q0 -24 -15 -40t-38 -16q-24 0 -40 16t-16 40q0 22 16.5 38.5t39.5 16.5zM222 1079l-1 1q0 21 12.5 33t33.5 12q14 0 25 -4.5t14 -7.5l15 -15l133 -155h-57l-152 97q-23 14 -23 39z
" />
    <glyph glyph-name="uni01DC" unicode="&#x1dc;" horiz-adv-x="568" 
d="M280 56l2 -2q38 0 107 30v335h-70v34l122 39h41v-430q0 -9 6.5 -14.5t15.5 -6.5l44 -3v-39h-159v57q-59 -44 -116 -61q-21 -7 -45 -7q-138 0 -138 162v271h-70v34l123 39h40v-325q0 -113 97 -113zM182 694q23 0 38.5 -16t15.5 -39t-15.5 -39.5t-38.5 -16.5t-39 16t-16 39
t16 39.5t39 16.5zM390 694q22 0 37.5 -16t15.5 -39q0 -24 -15 -40t-38 -16q-24 0 -40 16t-16 40q0 22 16.5 38.5t39.5 16.5zM141 881l-1 1q0 21 12.5 33t33.5 12q14 0 25 -4.5t14 -7.5l15 -15l133 -155h-57l-152 97q-23 14 -23 39z" />
    <glyph glyph-name="uni01DD" unicode="&#x1dd;" horiz-adv-x="490" 
d="M359 221q0 96 -41 154t-126 58q-10 0 -20 -1t-18 -2.5t-18 -5t-16 -5.5t-16.5 -7t-14.5 -7t-15 -9t-13.5 -8t-14 -8.5t-12.5 -8.5v61q68 43 139 57q28 5 51 5q79 0 132.5 -37.5t79.5 -101.5q20 -48 20 -108q0 -89 -38 -151t-103 -90q-43 -18 -94 -18q-90 0 -138.5 55.5
t-48.5 149.5v13q0 10 1 15h324zM134 154q0 -53 24.5 -85t72.5 -32q56 0 87.5 39.5t35.5 99.5h-220v-22z" />
    <glyph glyph-name="uni01DE" unicode="&#x1de;" horiz-adv-x="673" 
d="M314 558l-97 -262h195zM431 0v44l58 5q4 0 8 6t2 11l-69 183h-231l-66 -180q-2 -6 3 -13t11 -7l59 -5v-43h-201v43l58 12l233 632h75l232 -617q3 -11 6.5 -14.5t14.5 -5.5l45 -8v-43h-238zM230 892q23 0 38.5 -16t15.5 -39t-15.5 -39.5t-38.5 -16.5t-39 16t-16 39
t16 39.5t39 16.5zM438 892q22 0 37.5 -16t15.5 -39q0 -24 -15 -40t-38 -16q-24 0 -40 16t-16 40q0 22 16.5 38.5t39.5 16.5zM166 978v63h335v-63h-335z" />
    <glyph glyph-name="uni01DF" unicode="&#x1df;" horiz-adv-x="508" 
d="M133 130l-1 -1q0 -36 20.5 -59.5t54.5 -23.5q26 0 82 23q23 11 41 24v173q-66 -16 -106 -33q-39 -17 -60 -33q-31 -25 -31 -70zM264 493v1q80 0 119 -36.5t39 -113.5v-280q0 -19 21 -21l48 -3v-39h-148l-13 59q-71 -55 -138 -69q-15 -3 -30 -3q-88 0 -119 78
q-10 23 -10 56q0 51 26.5 78t76.5 48q64 28 194 56v43q0 99 -93 99q-41 0 -71 -13v-87h-73q-37 0 -37 29q0 57 67 89q60 29 141 29zM145 696q23 0 38.5 -16t15.5 -39t-15.5 -39.5t-38.5 -16.5t-39 16t-16 39t16 39.5t39 16.5zM353 696q22 0 37.5 -16t15.5 -39q0 -24 -15 -40
t-38 -16q-24 0 -40 16t-16 40q0 22 16.5 38.5t39.5 16.5zM81 781v63h335v-63h-335z" />
    <glyph glyph-name="uni01E0" unicode="&#x1e0;" horiz-adv-x="673" 
d="M314 558l-97 -262h195zM431 0v44l58 5q4 0 8 6t2 11l-69 183h-231l-66 -180q-2 -6 3 -13t11 -7l59 -5v-43h-201v43l58 12l233 632h75l232 -617q3 -11 6.5 -14.5t14.5 -5.5l45 -8v-43h-238zM166 978v63h335v-63h-335zM334 894q24 0 40 -16t16 -41q0 -24 -16 -40t-40 -16
t-40 16t-16 40q0 25 16 41t40 16z" />
    <glyph glyph-name="uni01E1" unicode="&#x1e1;" horiz-adv-x="508" 
d="M133 130l-1 -1q0 -36 20.5 -59.5t54.5 -23.5q26 0 82 23q23 11 41 24v173q-66 -16 -106 -33q-39 -17 -60 -33q-31 -25 -31 -70zM264 493v1q80 0 119 -36.5t39 -113.5v-280q0 -19 21 -21l48 -3v-39h-148l-13 59q-71 -55 -138 -69q-15 -3 -30 -3q-88 0 -119 78
q-10 23 -10 56q0 51 26.5 78t76.5 48q64 28 194 56v43q0 99 -93 99q-41 0 -71 -13v-87h-73q-37 0 -37 29q0 57 67 89q60 29 141 29zM81 781v63h335v-63h-335zM248 698q24 0 40 -16t16 -41q0 -24 -16 -40t-40 -16t-40 16t-16 40q0 25 16 41t40 16z" />
    <glyph glyph-name="uni01E2" unicode="&#x1e2;" horiz-adv-x="933" 
d="M481 625l-203 -326h203v326zM811 49v1q6 0 12 6.5t6 12.5l15 99h57v-167h-495v43l49 4q10 1 18 7t8 15v181h-231l-112 -181q-5 -7 -2.5 -13.5t9.5 -7.5l57 -5v-43h-197v43l53 8l340 552q4 7 -1.5 13t-12.5 7l-49 5v42h530v-149h-58l-14 82q-2 19 -17 19h-194v-249l126 -1
q6 0 11.5 6t6.5 12l9 69h49v-223h-49l-9 70q-1 5 -6.5 11t-11.5 6h-126v-275h229zM370 782v63h335v-63h-335z" />
    <glyph glyph-name="uni01E3" unicode="&#x1e3;" horiz-adv-x="721" 
d="M588 329h1q0 79 -47 108q-16 10 -39 10q-95 0 -95 -148h180v30zM131 133v-2q0 -39 19.5 -62t56.5 -23q31 0 72 23q18 10 37 24v173q-106 -28 -148 -59q-37 -26 -37 -74zM554 53l1 -1q29 0 55.5 9t41.5 18.5t37 27.5v-60q-84 -62 -166 -62q-70 0 -135 38q-27 17 -47 38
q-76 -60 -143 -73q-16 -3 -33 -3q-60 0 -94.5 35.5t-34.5 95.5q0 43 16 68.5t48 44.5q33 19 87 36q57 17 130 36v41q0 52 -19.5 76.5t-67.5 24.5q-35 0 -63 -13v-87h-70q-20 0 -29 6t-9 23q0 56 64 90q54 28 132 28q89 0 119 -40q3 -5 14 -18q50 59 134 59q83 0 124.5 -56
t41.5 -147v-10q0 -8 -1 -11q0 -8 -1 -13h-277v-133q68 -68 145 -68zM211 583v63h335v-63h-335z" />
    <glyph glyph-name="uni01E4" unicode="&#x1e4;" horiz-adv-x="694" 
d="M598 24v-1q-107 -40 -210 -40q-161 0 -258 107q-91 100 -91 246q0 123 56.5 205.5t154.5 119.5q66 25 151 25q66 0 150 -22l46 -12v-162h-60l-16 90q-1 16 -19 24l-17 8q-43 18 -87 18q-88 0 -145 -44.5t-82 -120.5q-18 -54 -18 -124q0 -216 151 -281q48 -21 106 -21
q37 0 78 13q8 3 9 3v89h-137v48h137v63q0 19 -21 21l-67 5v43h261v-43l-51 -5q-21 -2 -21 -21v-63h79v-48h-79v-120z" />
    <glyph glyph-name="uni01E5" unicode="&#x1e5;" horiz-adv-x="524" 
d="M144 -104q32 -79 123 -79q48 0 83 21.5t50 57.5h-256zM212 27q-33 -13 -54 -37q-16 -19 -20 -45h270q-3 18 -15 30.5t-32.5 20.5t-35.5 11.5t-40 8.5q-8 1 -34 4.5t-39 6.5zM259 453l-1 -1q-47 0 -71 -34.5t-24 -88.5q0 -82 54 -111q17 -10 41 -10q45 0 69 35.5t24 87.5
q0 81 -53 112q-16 10 -39 10zM220 124v-1q0 -5 1 -13.5t1 -11.5q66 -6 105.5 -12t85 -25.5t66.5 -51.5q14 -22 14 -51v-6q0 -4 -1 -7h33v-50h-49q-45 -84 -163 -115q-36 -10 -80 -10q-77 0 -128 31.5t-60 93.5h-40v50h43q18 72 103 88q-1 2 -1.5 4.5t-1.5 4.5t-1 3l-3 10
q-2 8 -2 23q0 20 12 44q11 23 38 51q-84 20 -114 95q-10 24 -10 55q0 61 32.5 101t86.5 57q38 12 82 12q12 0 23.5 -1.5t20 -3t20.5 -5.5t17 -6t18.5 -7.5t16.5 -6.5h135v-49h-100q27 -43 27 -90q0 -76 -66 -122q-63 -43 -151 -37q-10 -16 -10 -41z" />
    <glyph glyph-name="Gcaron" unicode="&#x1e6;" horiz-adv-x="694" 
d="M598 24v-1q-107 -40 -210 -40q-161 0 -258 107q-91 100 -91 246q0 123 56.5 205.5t154.5 119.5q66 25 151 25q66 0 150 -22l46 -12v-162h-60l-16 90q-1 16 -19 24l-17 8q-43 18 -87 18q-88 0 -145 -44.5t-82 -120.5q-18 -54 -18 -124q0 -216 151 -281q48 -21 106 -21
q37 0 78 13q8 3 9 3v200q0 19 -21 21l-67 5v43h261v-43l-51 -5q-21 -2 -21 -21v-231zM412 745h-76l-126 169h61l104 -99l103 99h60z" />
    <glyph glyph-name="gcaron" unicode="&#x1e7;" horiz-adv-x="524" 
d="M200 27l-1 -2q-76 -29 -76 -94q0 -70 72 -105q24 -12 59 -12q48 0 83 21.5t50 56.5q9 21 9 39q0 22 -10 37t-31 24.5t-36 13.5t-42 9q-12 2 -38.5 5.5t-38.5 6.5zM246 451l-1 -1q-47 0 -71 -34.5t-24 -88.5q0 -82 54 -111q17 -10 41 -10q45 0 69 35.5t24 87.5
q0 81 -53 112q-16 10 -39 10zM255 491h-1q12 0 23.5 -1.5t20 -3t20.5 -5.5t17 -6t18.5 -7.5t16.5 -6.5h135v-49h-100q27 -43 27 -90q0 -76 -66 -122q-63 -43 -151 -37q-15 -25 -10 -59q1 -8 3 -9q66 -6 105.5 -12t85 -25.5t66.5 -51.5q14 -22 14 -51q0 -72 -76 -130
q-77 -58 -184 -58q-133 0 -175 86q-13 25 -13 56q0 51 29 81.5t77 39.5q-10 25 -10 46q0 20 12 44q11 23 38 51q-84 20 -113 95q-10 24 -10 55q0 121 119 158q38 12 82 12zM282 548h-76l-126 169h61l104 -99l103 99h60z" />
    <glyph glyph-name="Kcaron" unicode="&#x1e8;" horiz-adv-x="638" 
d="M463 0v32l-186 267h-70v-229q0 -20 22 -22l57 -4v-43h-254v43l53 4q21 2 21 22v533q0 20 -21 22l-53 4v43h254v-43l-57 -4q-22 -2 -22 -22v-262h36l218 266q3 5 -0.5 10.5t-7.5 6.5l-51 5v43h212v-43q-26 -1 -56 -6q-10 -1 -12 -3l-204 -244l224 -328l72 -5v-43h-175z
M373 747h-76l-126 169h61l104 -99l103 99h60z" />
    <glyph glyph-name="kcaron" unicode="&#x1e9;" horiz-adv-x="534" 
d="M364 0v39l-125 188h-56v-163q0 -19 21 -21l43 -3v-39h-227v39l49 3q21 2 21 21v601h-76v33l128 39h41v-481h20l147 166q4 6 1 11t-9 6l-41 4v39h194v-39l-64 -7l-132 -141l172 -250l53 -6v-39h-160zM307 766h-76l-126 169h61l104 -99l103 99h60z" />
    <glyph glyph-name="uni01EA" unicode="&#x1ea;" horiz-adv-x="730" 
d="M447 -141l-1 2q15 0 41 18l24 -40q-25 -13 -59 -24q-13 -4 -27 -4q-100 0 -100 73q0 58 48 100q1 0 1 2h-9q-146 0 -237 100q-90 100 -90 252q0 149 89 248q91 102 238 102q145 0 238 -104q89 -99 89 -249q0 -148 -90 -248q-72 -81 -173 -97q-1 -1 -9 -10.5t-9.5 -12
t-7.5 -11.5t-8 -14.5t-4 -15t-2 -18.5q0 -49 58 -49zM575 336l1 -1q0 202 -118 272q-39 24 -91 24q-104 0 -161 -87q-52 -78 -52 -206q0 -201 117 -273q39 -24 92 -24q103 0 160 88q52 80 52 207z" />
    <glyph glyph-name="uni01EB" unicode="&#x1eb;" horiz-adv-x="543" 
d="M406 241h-1q0 139 -74 191q-25 17 -58 17q-99 0 -127 -129q-8 -40 -8 -78q0 -138 74 -190q26 -18 60 -18q98 0 126 129q8 40 8 78zM338 -191l1 -2q-100 0 -100 73q0 55 59 107q-9 -1 -27 -1q-84 0 -139.5 41.5t-80.5 110.5q-16 45 -16 100q0 85 37.5 145.5t102.5 89.5
q45 20 99 20q84 0 139.5 -42.5t80.5 -112.5q16 -45 16 -99q0 -119 -78 -192q-25 -23 -57 -37q-74 -43 -74 -102q0 -49 58 -49q15 0 41 18l24 -40q-29 -14 -59 -24q-13 -4 -27 -4z" />
    <glyph glyph-name="uni01EC" unicode="&#x1ec;" horiz-adv-x="730" 
d="M447 -141l-1 2q15 0 41 18l24 -40q-25 -13 -59 -24q-13 -4 -27 -4q-100 0 -100 73q0 58 48 100q1 0 1 2h-9q-146 0 -237 100q-90 100 -90 252q0 149 89 248q91 102 238 102q145 0 238 -104q89 -99 89 -249q0 -148 -90 -248q-72 -81 -173 -97q-1 -1 -9 -10.5t-9.5 -12
t-7.5 -11.5t-8 -14.5t-4 -15t-2 -18.5q0 -49 58 -49zM575 336l1 -1q0 202 -118 272q-39 24 -91 24q-104 0 -161 -87q-52 -78 -52 -206q0 -201 117 -273q39 -24 92 -24q103 0 160 88q52 80 52 207zM198 782v64h335v-64h-335z" />
    <glyph glyph-name="uni01ED" unicode="&#x1ed;" horiz-adv-x="543" 
d="M339 -191l1 -1q-100 0 -100 73q0 54 58 107q-9 -1 -27 -1q-84 0 -139.5 41.5t-80.5 110.5q-16 45 -16 100q0 85 37.5 145.5t102.5 89.5q45 20 99 20q84 0 139.5 -42.5t80.5 -112.5q16 -45 16 -99q0 -79 -34 -137t-91 -89q-83 -47 -83 -106q0 -49 58 -49q15 0 41 18
l24 -40q-29 -14 -59 -24q-13 -4 -27 -4zM407 240h-1q0 139 -74 191q-25 17 -58 17q-99 0 -127 -129q-8 -40 -8 -78q0 -138 74 -190q25 -18 60 -18q98 0 126 129q8 40 8 78zM104 585v63h335v-63h-335z" />
    <glyph glyph-name="uni01EE" unicode="&#x1ee;" horiz-adv-x="610" 
d="M156 576v1q-9 0 -16 -9t-7 -18l-11 -98h-57v220h476v-72l-237 -299q107 0 187 -73q81 -73 81 -174q0 -116 -94 -199q-58 -52 -138 -74q-37 -10 -81 -10q-77 0 -136 25t-86 71q-15 25 -15 48q0 32 18.5 53.5t49.5 21.5q22 0 38 -10l36 -118q59 -35 97 -35q52 0 99 36
q68 52 91 140q7 25 7 52q0 117 -106 173q-42 22 -82 22q-30 0 -44 -14l-31 35l245 305h-284zM334 747h-76l-126 169h61l104 -99l103 99h60z" />
    <glyph glyph-name="uni01EF" unicode="&#x1ef;" horiz-adv-x="521" 
d="M238 159l-1 -2q-24 0 -38 -11l-27 28l200 220h-233q-8 0 -13 -6.5t-6 -14.5l-10 -76h-52v183h402v-67l-194 -217q90 0 156 -62q65 -61 65 -142q0 -90 -76 -157q-76 -65 -184 -65q-142 0 -193 75q-13 19 -13 39q0 26 17 42.5t43 16.5q21 0 33 -8l31 -93q46 -25 86 -25
q66 0 112 58q42 53 42 119q0 70 -51 121q-44 44 -96 44zM291 549h-76l-126 169h61l104 -99l103 99h60z" />
    <glyph glyph-name="jcaron" unicode="&#x1f0;" horiz-adv-x="291" 
d="M61 -183q48 27 48 162v444h-71v33l123 38h41v-430q0 -141 -39 -200q-61 -93 -166 -93q-76 0 -76 55q0 39 43 58zM196 551h-76l-126 169h61l104 -99l103 99h60z" />
    <glyph glyph-name="uni01F1" unicode="&#x1f1;" horiz-adv-x="1270" 
d="M289 49q255 0 255 286q0 288 -260 288h-76v-575zM657 337h1q0 -132 -62 -214.5t-172 -110.5q-50 -12 -113 -12h-278v43l53 4q22 2 22 22v533q0 20 -22 22l-53 4v43h258q126 0 213 -47.5t126 -137.5q27 -63 27 -149zM736 0v44l372 577h-260q-13 0 -17 -17l-15 -93h-59v160
h471v-46l-373 -574h285q12 0 17 18l17 116h59v-185h-497z" />
    <glyph glyph-name="uni01F2" unicode="&#x1f2;" horiz-adv-x="1157" 
d="M289 49q255 0 255 286q0 288 -260 288h-76v-575zM657 337h1q0 -132 -62 -214.5t-172 -110.5q-50 -12 -113 -12h-278v43l53 4q22 2 22 22v533q0 20 -22 22l-53 4v43h258q126 0 213 -47.5t126 -137.5q27 -63 27 -149zM731 0l1 53l265 382h-174q-7 0 -13 -7t-7 -14l-10 -74
h-51v142h370v-41l-274 -393h202q7 0 13 8t8 16l10 79h54v-151h-394z" />
    <glyph glyph-name="uni01F3" unicode="&#x1f3;" horiz-adv-x="1025" 
d="M278 56v1q45 0 103 35v340q-45 15 -85 15q-59 0 -97 -32.5t-54 -85.5q-12 -37 -12 -84q0 -133 83 -175q28 -14 62 -14zM289 495q12 0 93 -12v183h-76v33l129 39h40v-673q0 -19 21 -21l43 -3v-39h-157v53q-61 -46 -113 -60q-21 -6 -43 -6q-93 0 -146 78q-46 66 -46 162
q0 88 38.5 150t104.5 93q49 23 112 23zM598 1l1 53l265 382h-174q-7 0 -13 -7t-7 -14l-10 -74h-51v142h370v-41l-274 -393h202q7 0 13 8t8 16l10 79h54v-151h-394z" />
    <glyph glyph-name="Gacute" unicode="&#x1f4;" horiz-adv-x="694" 
d="M598 24v-1q-107 -40 -210 -40q-161 0 -258 107q-91 100 -91 246q0 123 56.5 205.5t154.5 119.5q66 25 151 25q66 0 150 -22l46 -12v-162h-60l-16 90q-1 16 -19 24l-17 8q-43 18 -87 18q-88 0 -145 -44.5t-82 -120.5q-18 -54 -18 -124q0 -216 151 -281q48 -21 106 -21
q37 0 78 13q8 3 9 3v200q0 19 -21 21l-67 5v43h261v-43l-51 -5q-21 -2 -21 -21v-231zM473 927h1q22 0 34 -12t12 -33t-23 -40l-153 -97h-56l132 155l4.5 4.5l4.5 4.5t4.5 4t5 4t5 3t6 3t6.5 2t8 1.5t9 0.5z" />
    <glyph glyph-name="gacute" unicode="&#x1f5;" horiz-adv-x="524" 
d="M200 27l-1 -2q-76 -29 -76 -94q0 -70 72 -105q24 -12 59 -12q48 0 83 21.5t50 56.5q9 21 9 39q0 22 -10 37t-31 24.5t-36 13.5t-42 9q-12 2 -38.5 5.5t-38.5 6.5zM246 451l-1 -1q-47 0 -71 -34.5t-24 -88.5q0 -82 54 -111q17 -10 41 -10q45 0 69 35.5t24 87.5
q0 81 -53 112q-16 10 -39 10zM255 491h-1q12 0 23.5 -1.5t20 -3t20.5 -5.5t17 -6t18.5 -7.5t16.5 -6.5h135v-49h-100q27 -43 27 -90q0 -76 -66 -122q-63 -43 -151 -37q-15 -25 -10 -59q1 -8 3 -9q66 -6 105.5 -12t85 -25.5t66.5 -51.5q14 -22 14 -51q0 -72 -76 -130
q-77 -58 -184 -58q-133 0 -175 86q-13 25 -13 56q0 51 29 81.5t77 39.5q-10 25 -10 46q0 20 12 44q11 23 38 51q-84 20 -113 95q-10 24 -10 55q0 121 119 158q38 12 82 12zM343 730h1q22 0 34 -12t12 -33t-23 -40l-153 -97h-56l132 155l4.5 4.5l4.5 4.5t4.5 4t5 4t5 3t6 3
t6.5 2t8 1.5t9 0.5z" />
    <glyph glyph-name="uni01F6" unicode="&#x1f6;" horiz-adv-x="1011" 
d="M744 42q98 0 98 134v245h-71v34l123 39h41v-323q0 -187 -210 -187q-189 0 -189 187v156h-329v-258q0 -20 21 -22l57 -4v-43h-253v43l52 4q22 2 22 22v533q0 19 -22 21l-52 4v44h253v-44l-57 -4q-21 -2 -21 -21v-225h329v225q0 8 -6.5 14t-14.5 7l-57 4v44h253v-44l-52 -4
q-22 -2 -22 -21v-426q0 -134 107 -134z" />
    <glyph glyph-name="uni01F7" unicode="&#x1f7;" horiz-adv-x="583" 
d="M438 488l-1 2q0 89 -34 119q-14 13 -39 13q-42 0 -86 -34q-41 -31 -76 -79v-415q112 103 170 193q66 103 66 201zM202 -153l-1 -1q0 -7 7 -14t14 -7l54 -3v-39h-251v39l53 3q7 0 14.5 7t7.5 14v754h-76v33l128 39h49v-81q59 66 137 89q29 8 57 8q114 0 146 -114
q9 -32 9 -66q0 -93 -56 -190q-62 -106 -213 -229q-49 -40 -79 -63v-179z" />
    <glyph glyph-name="uni01F8" unicode="&#x1f8;" horiz-adv-x="721" 
d="M636 624q-21 -2 -21 -22v-602h-78l-372 560v-491q0 -20 21 -22l57 -4v-43h-216v43l57 4q22 2 22 22v533q0 20 -22 22l-59 4v43h198v-25l333 -503v459q0 8 -6.5 14.5t-14.5 7.5l-57 4v43h214v-43zM214 883l-1 1q0 21 12.5 33t33.5 12q14 0 25 -4.5t14 -7.5l15 -15
l133 -155h-57l-152 97q-23 14 -23 39z" />
    <glyph glyph-name="uni01F9" unicode="&#x1f9;" horiz-adv-x="566" 
d="M348 494h1q66 0 100 -41t34 -113v-276q0 -19 21 -21l44 -3v-39h-221v39l42 3q21 2 21 21v260q0 97 -96 97q-56 0 -110 -29v-328q0 -19 21 -21l42 -3v-39h-226v39l49 3q21 2 21 21v347h-70v33l122 38h41v-50q75 44 128 57q22 5 36 5zM140 688l-1 1q0 21 12.5 33t33.5 12
q14 0 25 -4.5t14 -7.5l15 -15l133 -155h-57l-152 97q-23 14 -23 39z" />
    <glyph glyph-name="Aringacute" unicode="&#x1fa;" horiz-adv-x="673" 
d="M314 558l-97 -262h195zM431 0v44l58 5q4 0 8 6t2 11l-69 183h-231l-66 -180q-2 -6 3 -13t11 -7l59 -5v-43h-201v43l58 12l233 632h75l232 -617q3 -11 6.5 -14.5t14.5 -5.5l45 -8v-43h-238zM404 865v-1q0 31 -20 51t-50 20q-45 0 -64 -43q-6 -12 -6 -27q0 -30 20 -50
t50 -20t50 20t20 50zM453 864q0 -38 -21 -67t-52 -42q-21 -9 -46 -9q-77 0 -110 73q-9 21 -9 45q0 39 20.5 67.5t52.5 42.5q21 9 47 9q77 0 109 -73q9 -21 9 -46zM432 1202h1q22 0 34 -12t12 -33t-23 -40l-153 -97h-56l132 155l4.5 4.5l4.5 4.5t4.5 4t5 4t5 3t6 3t6.5 2
t8 1.5t9 0.5z" />
    <glyph glyph-name="aringacute" unicode="&#x1fb;" horiz-adv-x="508" 
d="M133 130l-1 -1q0 -36 20.5 -59.5t54.5 -23.5q26 0 82 23q23 11 41 24v173q-66 -16 -106 -33q-39 -17 -60 -33q-31 -25 -31 -70zM264 493v1q80 0 119 -36.5t39 -113.5v-280q0 -19 21 -21l48 -3v-39h-148l-13 59q-71 -55 -138 -69q-15 -3 -30 -3q-88 0 -119 78
q-10 23 -10 56q0 51 26.5 78t76.5 48q64 28 194 56v43q0 99 -93 99q-41 0 -71 -13v-87h-73q-37 0 -37 29q0 57 67 89q60 29 141 29zM318 669v-1q0 31 -20 51t-50 20q-45 0 -64 -43q-6 -12 -6 -27q0 -30 20 -50t50 -20t50 20t20 50zM367 668q0 -38 -21 -67t-52 -42
q-21 -9 -46 -9q-77 0 -110 73q-9 21 -9 45q0 39 20.5 67.5t52.5 42.5q21 9 47 9q77 0 109 -73q9 -21 9 -46zM347 1005h1q22 0 34 -12t12 -33t-23 -40l-153 -97h-56l132 155l4.5 4.5l4.5 4.5t4.5 4t5 4t5 3t6 3t6.5 2t8 1.5t9 0.5z" />
    <glyph glyph-name="AEacute" unicode="&#x1fc;" horiz-adv-x="933" 
d="M481 625l-203 -326h203v326zM811 49v1q6 0 12 6.5t6 12.5l15 99h57v-167h-495v43l49 4q10 1 18 7t8 15v181h-231l-112 -181q-5 -7 -2.5 -13.5t9.5 -7.5l57 -5v-43h-197v43l53 8l340 552q4 7 -1.5 13t-12.5 7l-49 5v42h530v-149h-58l-14 82q-2 19 -17 19h-194v-249l126 -1
q6 0 11.5 6t6.5 12l9 69h49v-223h-49l-9 70q-1 5 -6.5 11t-11.5 6h-126v-275h229zM636 929h1q22 0 34 -12t12 -33t-23 -40l-153 -97h-56l132 155l4.5 4.5l4.5 4.5t4.5 4t5 4t5 3t6 3t6.5 2t8 1.5t9 0.5z" />
    <glyph glyph-name="aeacute" unicode="&#x1fd;" horiz-adv-x="721" 
d="M588 329h1q0 79 -47 108q-16 10 -39 10q-95 0 -95 -148h180v30zM131 133v-2q0 -39 19.5 -62t56.5 -23q31 0 72 23q18 10 37 24v173q-106 -28 -148 -59q-37 -26 -37 -74zM554 53l1 -1q29 0 55.5 9t41.5 18.5t37 27.5v-60q-84 -62 -166 -62q-70 0 -135 38q-27 17 -47 38
q-76 -60 -143 -73q-16 -3 -33 -3q-60 0 -94.5 35.5t-34.5 95.5q0 43 16 68.5t48 44.5q33 19 87 36q57 17 130 36v41q0 52 -19.5 76.5t-67.5 24.5q-35 0 -63 -13v-87h-70q-20 0 -29 6t-9 23q0 56 64 90q54 28 132 28q89 0 119 -40q3 -5 14 -18q50 59 134 59q83 0 124.5 -56
t41.5 -147v-10q0 -8 -1 -11q0 -8 -1 -13h-277v-133q68 -68 145 -68zM477 730h1q22 0 34 -12t12 -33t-23 -40l-153 -97h-56l132 155l4.5 4.5l4.5 4.5t4.5 4t5 4t5 3t6 3t6.5 2t8 1.5t9 0.5z" />
    <glyph glyph-name="Oslashacute" unicode="&#x1fe;" horiz-adv-x="730" 
d="M479 592l1 -1q-43 38 -113 38q-104 0 -161 -87q-52 -78 -52 -206q0 -126 51 -206zM243 84q51 -46 122 -46q103 0 160 88q52 80 52 207q0 135 -57 217q-177 -296 -277 -466zM620 719v1q-50 -84 -58 -97q94 -72 122 -202q9 -42 9 -86q0 -148 -90 -248q-92 -103 -237 -103
q-92 0 -161 40q-11 -17 -31 -51.5t-30 -51.5l-46 28l63 106q-85 67 -113 197q-9 40 -9 84q0 149 89 248q91 102 238 102q80 0 150 -35l57 96zM465 928h1q22 0 34 -12t12 -33t-23 -40l-153 -97h-56l132 155l4.5 4.5l4.5 4.5t4.5 4t5 4t5 3t6 3t6.5 2t8 1.5t9 0.5z" />
    <glyph glyph-name="oslashacute" unicode="&#x1ff;" horiz-adv-x="543" 
d="M190 71v1q34 -38 82 -38q98 0 126 129q8 40 8 78q0 91 -34 148zM344 424l1 -1q-29 26 -71 26q-99 0 -127 -129q-8 -40 -8 -78q0 -76 26 -131zM410 454l1 -1q101 -72 101 -215q0 -84 -38 -144t-102 -88q-42 -19 -99 -19q-62 0 -114 27l-55 -97l-35 21l56 98
q-89 71 -89 203q0 85 37.5 145.5t102.5 89.5q45 20 99 20q56 0 99 -20l50 87l36 -20zM373 732h1q22 0 34 -12t12 -33t-23 -40l-153 -97h-56l132 155l4.5 4.5l4.5 4.5t4.5 4t5 4t5 3t6 3t6.5 2t8 1.5t9 0.5z" />
    <glyph glyph-name="uni0200" unicode="&#x200;" horiz-adv-x="673" 
d="M314 558l-97 -262h195zM431 0v44l58 5q4 0 8 6t2 11l-69 183h-231l-66 -180q-2 -6 3 -13t11 -7l59 -5v-43h-201v43l58 12l233 632h75l232 -617q3 -11 6.5 -14.5t14.5 -5.5l45 -8v-43h-238zM81 884l-1 -1q0 45 45 45q14 0 25 -4.5t15 -8t15 -14.5l133 -155h-58l-151 97
q-23 17 -23 41zM274 883v1q0 21 13 33t35 12q6 0 11 -0.5t9.5 -2.5t7.5 -3t7 -4.5t5.5 -5l6 -6l5.5 -5.5l132 -155h-55l-152 97q-25 15 -25 39z" />
    <glyph glyph-name="uni0201" unicode="&#x201;" horiz-adv-x="508" 
d="M133 130l-1 -1q0 -36 20.5 -59.5t54.5 -23.5q26 0 82 23q23 11 41 24v173q-66 -16 -106 -33q-39 -17 -60 -33q-31 -25 -31 -70zM264 493v1q80 0 119 -36.5t39 -113.5v-280q0 -19 21 -21l48 -3v-39h-148l-13 59q-71 -55 -138 -69q-15 -3 -30 -3q-88 0 -119 78
q-10 23 -10 56q0 51 26.5 78t76.5 48q64 28 194 56v43q0 99 -93 99q-41 0 -71 -13v-87h-73q-37 0 -37 29q0 57 67 89q60 29 141 29zM-4 688l-1 -1q0 45 45 45q14 0 25 -4.5t15 -8t15 -14.5l133 -155h-58l-151 97q-23 17 -23 41zM189 687v1q0 21 13 33t35 12q6 0 11 -0.5
t9.5 -2.5t7.5 -3t7 -4.5t5.5 -5l6 -6l5.5 -5.5l132 -155h-55l-152 97q-25 15 -25 39z" />
    <glyph glyph-name="uni0202" unicode="&#x202;" horiz-adv-x="673" 
d="M314 558l-97 -262h195zM431 0v44l58 5q4 0 8 6t2 11l-69 183h-231l-66 -180q-2 -6 3 -13t11 -7l59 -5v-43h-201v43l58 12l233 632h75l232 -617q3 -11 6.5 -14.5t14.5 -5.5l45 -8v-43h-238zM333 828l2 -1q-91 0 -110 -81h-40q0 47 23.5 81.5t60.5 53.5q28 14 65 14
q52 0 88 -26.5t51 -69.5q9 -27 9 -52h-39q-19 81 -110 81z" />
    <glyph glyph-name="uni0203" unicode="&#x203;" horiz-adv-x="508" 
d="M133 130l-1 -1q0 -36 20.5 -59.5t54.5 -23.5q26 0 82 23q23 11 41 24v173q-66 -16 -106 -33q-39 -17 -60 -33q-31 -25 -31 -70zM264 493v1q80 0 119 -36.5t39 -113.5v-280q0 -19 21 -21l48 -3v-39h-148l-13 59q-71 -55 -138 -69q-15 -3 -30 -3q-88 0 -119 78
q-10 23 -10 56q0 51 26.5 78t76.5 48q64 28 194 56v43q0 99 -93 99q-41 0 -71 -13v-87h-73q-37 0 -37 29q0 57 67 89q60 29 141 29zM248 632l2 -1q-91 0 -110 -81h-40q0 47 23.5 81.5t60.5 53.5q28 14 65 14q52 0 88 -26.5t51 -69.5q9 -27 9 -52h-39q-19 81 -110 81z" />
    <glyph glyph-name="uni0204" unicode="&#x204;" horiz-adv-x="583" 
d="M376 306h1q0 5 -6.5 11.5t-11.5 6.5h-150v-275h253q6 0 11 6.5t6 12.5l18 99h54v-167h-519v43l52 4q22 2 22 22v533q0 20 -22 22l-52 4v43h486v-149h-60l-15 82q-1 7 -6 13t-12 6h-217v-249h150q6 0 12 5.5t6 11.5l10 69h51v-223h-51zM40 883l-1 -1q0 45 45 45
q14 0 25 -4.5t15 -8t15 -14.5l133 -155h-58l-151 97q-23 17 -23 41zM233 882v1q0 21 13 33t35 12q6 0 11 -0.5t9.5 -2.5t7.5 -3t7 -4.5t5.5 -5l6 -6l5.5 -5.5l132 -155h-55l-152 97q-25 15 -25 39z" />
    <glyph glyph-name="uni0205" unicode="&#x205;" horiz-adv-x="490" 
d="M131 261l-1 -1q0 -96 41 -154t126 -58q10 0 20 1t18 2.5t18 5t16 5.5t16.5 7t14.5 7t15 9t13.5 8t14 8.5t12.5 8.5v-61q-70 -43 -140 -57q-27 -5 -50 -5q-78 0 -132 37.5t-80 100.5q-19 45 -19 110q0 89 38 151t103 90q43 18 94 18q91 0 139 -55t48 -150v-13
q0 -10 -1 -15h-324zM355 327q0 53 -24.5 85t-72.5 32q-56 0 -87.5 -39.5t-35.5 -99.5h220v22zM8 687l-1 -1q0 45 45 45q14 0 25 -4.5t15 -8t15 -14.5l133 -155h-58l-151 97q-23 17 -23 41zM201 686v1q0 21 13 33t35 12q6 0 11 -0.5t9.5 -2.5t7.5 -3t7 -4.5t5.5 -5l6 -6
l5.5 -5.5l132 -155h-55l-152 97q-25 15 -25 39z" />
    <glyph glyph-name="uni0206" unicode="&#x206;" horiz-adv-x="583" 
d="M376 306h1q0 5 -6.5 11.5t-11.5 6.5h-150v-275h253q6 0 11 6.5t6 12.5l18 99h54v-167h-519v43l52 4q22 2 22 22v533q0 20 -22 22l-52 4v43h486v-149h-60l-15 82q-1 7 -6 13t-12 6h-217v-249h150q6 0 12 5.5t6 11.5l10 69h51v-223h-51zM292 827l2 -1q-91 0 -110 -81h-40
q0 47 23.5 81.5t60.5 53.5q28 14 65 14q52 0 88 -26.5t51 -69.5q9 -27 9 -52h-39q-19 81 -110 81z" />
    <glyph glyph-name="uni0207" unicode="&#x207;" horiz-adv-x="490" 
d="M131 261l-1 -1q0 -96 41 -154t126 -58q10 0 20 1t18 2.5t18 5t16 5.5t16.5 7t14.5 7t15 9t13.5 8t14 8.5t12.5 8.5v-61q-70 -43 -140 -57q-27 -5 -50 -5q-78 0 -132 37.5t-80 100.5q-19 45 -19 110q0 89 38 151t103 90q43 18 94 18q91 0 139 -55t48 -150v-13
q0 -10 -1 -15h-324zM355 327q0 53 -24.5 85t-72.5 32q-56 0 -87.5 -39.5t-35.5 -99.5h220v22zM260 631l2 -1q-91 0 -110 -81h-40q0 47 23.5 81.5t60.5 53.5q28 14 65 14q52 0 88 -26.5t51 -69.5q9 -27 9 -52h-39q-19 81 -110 81z" />
    <glyph glyph-name="uni0208" unicode="&#x208;" horiz-adv-x="330" 
d="M33 0v43l60 4q21 2 21 22v533q0 19 -21 21l-60 4v44h264v-44l-61 -4q-8 -1 -14.5 -7t-6.5 -14v-533q0 -8 6.5 -14.5t14.5 -7.5l61 -4v-43h-264zM-87 883l-1 -1q0 45 45 45q14 0 25 -4.5t15 -8t15 -14.5l133 -155h-58l-151 97q-23 17 -23 41zM106 882v1q0 21 13 33t35 12
q6 0 11 -0.5t9.5 -2.5t7.5 -3t7 -4.5t5.5 -5l6 -6l5.5 -5.5l132 -155h-55l-152 97q-25 15 -25 39z" />
    <glyph glyph-name="uni0209" unicode="&#x209;" horiz-adv-x="303" 
d="M34 0v39l49 3q21 2 21 21v357h-69v35l122 38h40v-430q0 -19 21 -21l51 -3v-39h-235zM-101 688l-1 -1q0 45 45 45q14 0 25 -4.5t15 -8t15 -14.5l133 -155h-58l-151 97q-23 17 -23 41zM92 687v1q0 21 13 33t35 12q6 0 11 -0.5t9.5 -2.5t7.5 -3t7 -4.5t5.5 -5l6 -6l5.5 -5.5
l132 -155h-55l-152 97q-25 15 -25 39z" />
    <glyph glyph-name="uni020A" unicode="&#x20a;" horiz-adv-x="330" 
d="M33 0v43l60 4q21 2 21 22v533q0 19 -21 21l-60 4v44h264v-44l-61 -4q-8 -1 -14.5 -7t-6.5 -14v-533q0 -8 6.5 -14.5t14.5 -7.5l61 -4v-43h-264zM165 827l2 -1q-91 0 -110 -81h-40q0 47 23.5 81.5t60.5 53.5q28 14 65 14q52 0 88 -26.5t51 -69.5q9 -27 9 -52h-39
q-19 81 -110 81z" />
    <glyph glyph-name="uni020B" unicode="&#x20b;" horiz-adv-x="303" 
d="M34 0v39l49 3q21 2 21 21v357h-69v35l122 38h40v-430q0 -19 21 -21l51 -3v-39h-235zM151 632l2 -1q-91 0 -110 -81h-40q0 47 23.5 81.5t60.5 53.5q28 14 65 14q52 0 88 -26.5t51 -69.5q9 -27 9 -52h-39q-19 81 -110 81z" />
    <glyph glyph-name="uni020C" unicode="&#x20c;" horiz-adv-x="730" 
d="M576 334l1 -1q0 202 -118 272q-39 24 -91 24q-104 0 -161 -87q-52 -78 -52 -206q0 -201 117 -273q39 -24 92 -24q103 0 160 88q52 80 52 207zM693 334v2q0 -148 -90 -248q-92 -103 -237 -103q-146 0 -237 100q-90 100 -90 252q0 149 89 248q91 102 238 102
q145 0 238 -104q89 -99 89 -249zM114 884l-1 -1q0 45 45 45q14 0 25 -4.5t15 -8t15 -14.5l133 -155h-58l-151 97q-23 17 -23 41zM307 883v1q0 21 13 33t35 12q6 0 11 -0.5t9.5 -2.5t7.5 -3t7 -4.5t5.5 -5l6 -6l5.5 -5.5l132 -155h-55l-152 97q-25 15 -25 39z" />
    <glyph glyph-name="uni020D" unicode="&#x20d;" horiz-adv-x="543" 
d="M406 241h-1q0 139 -74 191q-25 17 -58 17q-99 0 -127 -129q-8 -40 -8 -78q0 -138 74 -190q26 -18 60 -18q98 0 126 129q8 40 8 78zM509 240v-2q0 -84 -38 -144t-102 -88q-42 -19 -99 -19q-84 0 -139.5 41.5t-80.5 110.5q-16 45 -16 100q0 85 37.5 145.5t102.5 89.5
q45 20 99 20q84 0 139.5 -42.5t80.5 -112.5q16 -45 16 -99zM19 686l-1 -1q0 45 45 45q14 0 25 -4.5t15 -8t15 -14.5l133 -155h-58l-151 97q-23 17 -23 41zM212 685v1q0 21 13 33t35 12q6 0 11 -0.5t9.5 -2.5t7.5 -3t7 -4.5t5.5 -5l6 -6l5.5 -5.5l132 -155h-55l-152 97
q-25 15 -25 39z" />
    <glyph glyph-name="uni020E" unicode="&#x20e;" horiz-adv-x="730" 
d="M576 334l1 -1q0 202 -118 272q-39 24 -91 24q-104 0 -161 -87q-52 -78 -52 -206q0 -201 117 -273q39 -24 92 -24q103 0 160 88q52 80 52 207zM693 334v2q0 -148 -90 -248q-92 -103 -237 -103q-146 0 -237 100q-90 100 -90 252q0 149 89 248q91 102 238 102
q145 0 238 -104q89 -99 89 -249zM366 828l2 -1q-91 0 -110 -81h-40q0 47 23.5 81.5t60.5 53.5q28 14 65 14q52 0 88 -26.5t51 -69.5q9 -27 9 -52h-39q-19 81 -110 81z" />
    <glyph glyph-name="uni020F" unicode="&#x20f;" horiz-adv-x="543" 
d="M406 241h-1q0 139 -74 191q-25 17 -58 17q-99 0 -127 -129q-8 -40 -8 -78q0 -138 74 -190q26 -18 60 -18q98 0 126 129q8 40 8 78zM509 240v-2q0 -84 -38 -144t-102 -88q-42 -19 -99 -19q-84 0 -139.5 41.5t-80.5 110.5q-16 45 -16 100q0 85 37.5 145.5t102.5 89.5
q45 20 99 20q84 0 139.5 -42.5t80.5 -112.5q16 -45 16 -99zM271 630l2 -1q-91 0 -110 -81h-40q0 47 23.5 81.5t60.5 53.5q28 14 65 14q52 0 88 -26.5t51 -69.5q9 -27 9 -52h-39q-19 81 -110 81z" />
    <glyph glyph-name="uni0210" unicode="&#x210;" horiz-adv-x="648" 
d="M257 347h-1q86 0 129 32t43 110q0 72 -46 102.5t-130 30.5h-46v-274h21q5 0 15 -0.5t15 -0.5zM537 493v-3q0 -131 -164 -167q101 -25 124 -113q3 -10 8.5 -35t9 -38.5t11 -31t17.5 -28.5q31 -37 105 -37v-45q-1 0 -25 -6t-42 -6q-110 0 -144 100q-6 16 -16.5 55.5t-21 66
t-26.5 45.5q-41 49 -121 49q-7 0 -21 -1t-20 -1h-5v-228q0 -20 21 -22l53 -4v-43h-249v43l52 4q22 2 22 22v533q0 20 -22 22l-52 4v43h261q55 0 97.5 -8.5t77 -28t52.5 -55t18 -86.5zM41 880l-1 -1q0 45 45 45q14 0 25 -4.5t15 -8t15 -14.5l133 -155h-58l-151 97
q-23 17 -23 41zM234 879v1q0 21 13 33t35 12q6 0 11 -0.5t9.5 -2.5t7.5 -3t7 -4.5t5.5 -5l6 -6l5.5 -5.5l132 -155h-55l-152 97q-25 15 -25 39z" />
    <glyph glyph-name="uni0211" unicode="&#x211;" horiz-adv-x="391" 
d="M320 494q25 0 61 -15v-99h-39q-25 27 -54 27q-24 0 -49 -16q-26 -17 -51 -46v-281q0 -19 21 -21l66 -3v-39h-250v38l49 4q21 2 21 21v347h-72v33l124 38h41v-89q64 71 96 90q19 11 36 11zM-36 688l-1 -1q0 45 45 45q14 0 25 -4.5t15 -8t15 -14.5l133 -155h-58l-151 97
q-23 17 -23 41zM157 687v1q0 21 13 33t35 12q6 0 11 -0.5t9.5 -2.5t7.5 -3t7 -4.5t5.5 -5l6 -6l5.5 -5.5l132 -155h-55l-152 97q-25 15 -25 39z" />
    <glyph glyph-name="uni0212" unicode="&#x212;" horiz-adv-x="648" 
d="M257 347h-1q86 0 129 32t43 110q0 72 -46 102.5t-130 30.5h-46v-274h21q5 0 15 -0.5t15 -0.5zM537 493v-3q0 -131 -164 -167q101 -25 124 -113q3 -10 8.5 -35t9 -38.5t11 -31t17.5 -28.5q31 -37 105 -37v-45q-1 0 -25 -6t-42 -6q-110 0 -144 100q-6 16 -16.5 55.5t-21 66
t-26.5 45.5q-41 49 -121 49q-7 0 -21 -1t-20 -1h-5v-228q0 -20 21 -22l53 -4v-43h-249v43l52 4q22 2 22 22v533q0 20 -22 22l-52 4v43h261q55 0 97.5 -8.5t77 -28t52.5 -55t18 -86.5zM293 824l2 -1q-91 0 -110 -81h-40q0 47 23.5 81.5t60.5 53.5q28 14 65 14q52 0 88 -26.5
t51 -69.5q9 -27 9 -52h-39q-19 81 -110 81z" />
    <glyph glyph-name="uni0213" unicode="&#x213;" horiz-adv-x="391" 
d="M320 494q25 0 61 -15v-99h-39q-25 27 -54 27q-24 0 -49 -16q-26 -17 -51 -46v-281q0 -19 21 -21l66 -3v-39h-250v38l49 4q21 2 21 21v347h-72v33l124 38h41v-89q64 71 96 90q19 11 36 11zM216 632l2 -1q-91 0 -110 -81h-40q0 47 23.5 81.5t60.5 53.5q28 14 65 14
q52 0 88 -26.5t51 -69.5q9 -27 9 -52h-39q-19 81 -110 81z" />
    <glyph glyph-name="uni0214" unicode="&#x214;" horiz-adv-x="711" 
d="M376 51q91 0 131 49.5t40 147.5v354q0 20 -22 22l-57 4v43h217v-43l-58 -4q-21 -2 -21 -22v-380q0 -238 -257 -238q-244 0 -244 238v380q0 20 -21 22l-53 4v43h254v-43l-57 -4q-21 -2 -21 -22v-354q0 -100 38.5 -148.5t130.5 -48.5zM114 883l-1 -1q0 45 45 45
q14 0 25 -4.5t15 -8t15 -14.5l133 -155h-58l-151 97q-23 17 -23 41zM307 882v1q0 21 13 33t35 12q6 0 11 -0.5t9.5 -2.5t7.5 -3t7 -4.5t5.5 -5l6 -6l5.5 -5.5l132 -155h-55l-152 97q-25 15 -25 39z" />
    <glyph glyph-name="uni0215" unicode="&#x215;" horiz-adv-x="568" 
d="M280 56l2 -2q38 0 107 30v335h-70v34l122 39h41v-430q0 -9 6.5 -14.5t15.5 -6.5l44 -3v-39h-159v57q-59 -44 -116 -61q-21 -7 -45 -7q-138 0 -138 162v271h-70v34l123 39h40v-325q0 -113 97 -113zM33 686l-1 -1q0 45 45 45q14 0 25 -4.5t15 -8t15 -14.5l133 -155h-58
l-151 97q-23 17 -23 41zM226 685v1q0 21 13 33t35 12q6 0 11 -0.5t9.5 -2.5t7.5 -3t7 -4.5t5.5 -5l6 -6l5.5 -5.5l132 -155h-55l-152 97q-25 15 -25 39z" />
    <glyph glyph-name="uni0216" unicode="&#x216;" horiz-adv-x="711" 
d="M376 51q91 0 131 49.5t40 147.5v354q0 20 -22 22l-57 4v43h217v-43l-58 -4q-21 -2 -21 -22v-380q0 -238 -257 -238q-244 0 -244 238v380q0 20 -21 22l-53 4v43h254v-43l-57 -4q-21 -2 -21 -22v-354q0 -100 38.5 -148.5t130.5 -48.5zM366 827l2 -1q-91 0 -110 -81h-40
q0 47 23.5 81.5t60.5 53.5q28 14 65 14q52 0 88 -26.5t51 -69.5q9 -27 9 -52h-39q-19 81 -110 81z" />
    <glyph glyph-name="uni0217" unicode="&#x217;" horiz-adv-x="568" 
d="M280 56l2 -2q38 0 107 30v335h-70v34l122 39h41v-430q0 -9 6.5 -14.5t15.5 -6.5l44 -3v-39h-159v57q-59 -44 -116 -61q-21 -7 -45 -7q-138 0 -138 162v271h-70v34l123 39h40v-325q0 -113 97 -113zM285 630l2 -1q-91 0 -110 -81h-40q0 47 23.5 81.5t60.5 53.5q28 14 65 14
q52 0 88 -26.5t51 -69.5q9 -27 9 -52h-39q-19 81 -110 81z" />
    <glyph glyph-name="uni0218" unicode="&#x218;" horiz-adv-x="520" 
d="M281 687l2 1q63 0 176 -34v-156h-57l-15 96q-1 9 -15 16q-2 0 -7 4q-26 19 -82 19q-90 0 -120 -71q-9 -21 -9 -47q0 -45 36 -76q27 -24 103 -56.5t81 -34.5q51 -27 80 -63.5t29 -96.5q0 -84 -62 -139q-70 -64 -203 -64q-56 0 -130 18q-27 7 -48 18v177h63l13 -113
q0 -3 1.5 -6t3.5 -6t3.5 -5t5 -4t5.5 -3l6 -3t6 -2.5t7 -2.5t6 -2q34 -12 73 -12q102 0 136 68q11 24 11 51q0 52 -61 94q-15 10 -33 19.5t-46.5 22.5t-35.5 17q-32 16 -45.5 23t-39.5 24.5t-37.5 33.5t-21.5 42t-10 57q0 70 38.5 116t100.5 66q44 14 92 14zM259 -60v-1
q34 0 52.5 -22t18.5 -59q0 -74 -75 -110q-23 -11 -49 -15v30q38 11 55 31t17 62h-59q-15 15 -15 37q0 21 16 34t39 13z" />
    <glyph glyph-name="uni0219" unicode="&#x219;" horiz-adv-x="397" 
d="M213 446l-1 -2q-38 0 -59.5 -17t-21.5 -50q0 -21 9.5 -36.5t19 -22.5t29.5 -18q7 -4 55.5 -27t73 -41.5t36.5 -45.5q9 -19 9 -43q0 -78 -52.5 -117.5t-138.5 -39.5q-71 0 -139 25v133h51l12 -85q42 -28 89 -28q39 0 64.5 21t25.5 57q0 33 -18.5 51t-52.5 35
q-7 4 -34.5 16.5t-40 19t-32 19.5t-31.5 27t-19 31t-7 40q0 72 49.5 108.5t130.5 36.5q50 0 108 -15q15 -3 21 -7v-118h-52l-8 70q-33 23 -76 23zM190 -63v-1q34 0 52.5 -22t18.5 -59q0 -74 -75 -110q-23 -11 -49 -15v30q38 11 55 31t17 62h-59q-15 15 -15 37q0 21 16 34
t39 13z" />
    <glyph glyph-name="uni021A" unicode="&#x21a;" horiz-adv-x="599" 
d="M524 511l-14 94q-2 17 -17 17h-143v-553q0 -20 21 -22l64 -4v-43h-271v43l64 4q21 2 21 22v553h-144q-15 0 -17 -17l-14 -94h-58v160h567v-160h-59zM291 -61v-1q34 0 52.5 -22t18.5 -59q0 -74 -75 -110q-23 -11 -49 -15v30q38 11 55 31t17 62h-59q-15 15 -15 37
q0 21 16 34t39 13z" />
    <glyph glyph-name="uni021B" unicode="&#x21b;" horiz-adv-x="339" 
d="M264 44h-1q38 0 69 17v-40q-70 -33 -134 -33q-57 0 -82 26.5t-25 85.5v332h-64v33l68 32l45 106h44v-121h141v-50h-141v-279q0 -53 17.5 -81t62.5 -28zM171 -61v-1q34 0 52.5 -22t18.5 -59q0 -74 -75 -110q-23 -11 -49 -15v30q38 11 55 31t17 62h-59q-15 15 -15 37
q0 21 16 34t39 13z" />
    <glyph glyph-name="uni021C" unicode="&#x21c;" horiz-adv-x="532" 
d="M39 637l-1 -2q98 50 213 50q70 0 122 -26t78 -72q18 -31 18 -69q0 -58 -33 -105q-33 -46 -98 -87q104 -23 138 -103q12 -27 12 -57q0 -72 -64 -138q-112 -117 -364 -189v59q130 41 222 107q62 45 89 97q13 25 13 54q0 57 -34.5 90.5t-91.5 35.5q-68 -33 -132 -55v59
q166 63 224 151q21 33 21 69q0 60 -39.5 95t-101.5 35q-53 0 -99 -37l-10 -10q-5 -5 -7 -13l-15 -91h-60v152z" />
    <glyph glyph-name="uni021D" unicode="&#x21d;" horiz-adv-x="424" 
d="M34 458v1q82 36 171 36q55 0 97.5 -18.5t63.5 -52.5q14 -23 14 -51q0 -80 -69 -143q-23 -21 -48 -39q88 -17 118 -78q9 -19 9 -42q0 -45 -27 -87q-53 -81 -179 -152q-56 -31 -126 -61v52q116 56 175 118q60 62 60 120q0 44 -26 67t-71 23q-43 -24 -93 -44v52
q94 46 139 100q41 48 41 104q0 87 -98 87q-52 0 -78 -26q-12 -12 -13 -17l-12 -58h-48v109z" />
    <glyph glyph-name="Hcaron" unicode="&#x21e;" horiz-adv-x="743" 
d="M458 0v43l57 4q8 1 14.5 7.5t6.5 14.5v258h-329v-258q0 -20 21 -22l57 -4v-43h-253v43l52 4q22 2 22 22v533q0 19 -22 21l-52 4v44h253v-44l-57 -4q-21 -2 -21 -21v-225h329v225q0 8 -6.5 14t-14.5 7l-57 4v44h253v-44l-52 -4q-22 -2 -22 -21v-533q0 -20 22 -22l52 -4
v-43h-253zM410 746h-76l-126 169h61l104 -99l103 99h60z" />
    <glyph glyph-name="hcaron" unicode="&#x21f;" horiz-adv-x="574" 
d="M348 494l-1 1q65 0 100.5 -40.5t35.5 -110.5v-279q0 -9 6.5 -14.5t15.5 -6.5l45 -3v-39h-223v39l41 3q9 1 15.5 6.5t6.5 14.5v258q0 99 -99 99q-56 0 -109 -29v-328q0 -19 20 -21l43 -3v-39h-225v39l48 3q21 2 21 21v601h-75v33l128 39h40v-305q77 43 123 55q24 6 43 6z
M320 767h-76l-126 169h61l104 -99l103 99h60z" />
    <glyph glyph-name="uni0220" unicode="&#x220;" horiz-adv-x="724" 
d="M381 604h1q-36 0 -71 -12t-53.5 -24t-49.5 -35v-464q0 -20 21 -22l62 -4v-43h-256v43l51 4q21 2 21 22v535q0 7 -6 12.5t-14 6.5l-63 5v43h184v-81q32 25 49 37.5t47 28.5t60 24q25 7 57 7q71 0 122.5 -31t76.5 -85q18 -39 18 -90v-631q0 -8 7 -14.5t15 -7.5l54 -4v-43
h-251v43l52 6q9 1 15.5 7t6.5 14v606q0 102 -93 136q-30 11 -63 11z" />
    <glyph glyph-name="uni0221" unicode="&#x221;" horiz-adv-x="626" 
d="M571 199l-2 -3q36 0 56.5 -23.5t20.5 -61.5q0 -60 -39 -92t-104 -32q-87 0 -114 55q-40 -51 -89 -155l-40 14q6 23 39 83q7 14 15 24q-46 -22 -89 -22q-93 0 -146 78q-47 67 -47 163q0 88 39 151t105 93q49 23 113 23q10 0 91 -12v183h-76v33l129 39h40v-571l24 12
q44 21 74 21zM277 53v1q58 0 102 41v334q-43 15 -83 15q-60 0 -98.5 -32.5t-54.5 -85.5q-12 -38 -12 -84q0 -131 84 -175q28 -14 62 -14zM472 121v-1q0 -95 57 -95q24 0 41.5 15t25.5 36q6 15 6 30q0 23 -10 33t-33 10q-42 0 -87 -28z" />
    <glyph glyph-name="uni0222" unicode="&#x222;" horiz-adv-x="584" 
d="M293 38l-3 2q48 0 82 26t49 66q10 26 10 58q0 50 -23.5 84.5t-62.5 49.5q-25 9 -54 9q-47 0 -80.5 -24t-49.5 -63q-11 -28 -11 -57q0 -103 81 -139q27 -12 62 -12zM290 638v1q-84 0 -115 -68q-10 -21 -10 -54q0 -42 20.5 -73.5t52.5 -46.5q21 -10 51 -10q84 0 115 80
q9 24 9 50q0 56 -33.5 88.5t-89.5 32.5zM369 360l-3 2q82 -16 129 -56.5t47 -120.5q0 -87 -78 -143q-74 -53 -177 -53q-83 0 -144.5 30t-91.5 84q-20 37 -20 81q0 80 48 124t128 53q-45 5 -80.5 30.5t-54.5 62.5q-14 28 -14 62q0 68 40.5 108t105.5 56q40 10 85 10
q154 0 210 -94q20 -34 20 -80q0 -66 -42.5 -104.5t-107.5 -51.5z" />
    <glyph glyph-name="uni0223" unicode="&#x223;" horiz-adv-x="513" 
d="M257 41v1q61 0 90 45t29 116q0 110 -70 143q-24 11 -49 11q-59 0 -89.5 -44t-30.5 -110q0 -114 66 -150q23 -12 54 -12zM257 688l-1 1q-50 0 -74.5 -38.5t-24.5 -96.5q0 -97 53 -130q18 -12 47 -12q50 0 74 40.5t24 100.5q0 95 -57 126q-18 9 -41 9zM478 195l2 -2
q0 -86 -64 -145q-65 -61 -158 -61q-76 0 -129 34t-78 92q-16 36 -16 80q0 57 27.5 99.5t71.5 67.5q28 16 62 24q-89 15 -124 100q-12 30 -12 67q0 67 33 111.5t88 63.5q36 12 77 12q135 0 181 -107q15 -35 15 -79q0 -102 -86 -149q-24 -14 -49 -18q52 -13 90.5 -45t56.5 -78
q12 -31 12 -67z" />
    <glyph glyph-name="uni0224" unicode="&#x224;" horiz-adv-x="575" 
d="M462 -51l-1 -2q0 35 -12 51h-411v44l372 577h-260q-13 0 -17 -17l-15 -93h-59v160h471v-46l-373 -574h369q12 -23 12 -53q0 -39 -19 -78q-20 -41 -61 -78h-33q37 42 37 109z" />
    <glyph glyph-name="uni0225" unicode="&#x225;" horiz-adv-x="461" 
d="M366 -44v1q0 28 -11 43h-321v53l265 382h-174q-7 0 -13 -7t-7 -14l-10 -74h-51v142h370v-41l-274 -393h289q11 -20 11 -46q0 -79 -77 -144h-32q35 30 35 98z" />
    <glyph glyph-name="uni0226" unicode="&#x226;" horiz-adv-x="673" 
d="M314 558l-97 -262h195zM431 0v44l58 5q4 0 8 6t2 11l-69 183h-231l-66 -180q-2 -6 3 -13t11 -7l59 -5v-43h-201v43l58 12l233 632h75l232 -617q3 -11 6.5 -14.5t14.5 -5.5l45 -8v-43h-238zM334 894q24 0 40 -16t16 -41q0 -24 -16 -40t-40 -16t-40 16t-16 40q0 25 16 41
t40 16z" />
    <glyph glyph-name="uni0227" unicode="&#x227;" horiz-adv-x="508" 
d="M133 130l-1 -1q0 -36 20.5 -59.5t54.5 -23.5q26 0 82 23q23 11 41 24v173q-66 -16 -106 -33q-39 -17 -60 -33q-31 -25 -31 -70zM264 493v1q80 0 119 -36.5t39 -113.5v-280q0 -19 21 -21l48 -3v-39h-148l-13 59q-71 -55 -138 -69q-15 -3 -30 -3q-88 0 -119 78
q-10 23 -10 56q0 51 26.5 78t76.5 48q64 28 194 56v43q0 99 -93 99q-41 0 -71 -13v-87h-73q-37 0 -37 29q0 57 67 89q60 29 141 29zM248 698q24 0 40 -16t16 -41q0 -24 -16 -40t-40 -16t-40 16t-16 40q0 25 16 41t40 16z" />
    <glyph glyph-name="uni0228" unicode="&#x228;" horiz-adv-x="583" 
d="M335 -59h1q72 0 72 -71q0 -46 -32.5 -70.5t-83.5 -24.5q-39 0 -74 10v39q36 -8 61 -8q64 0 64 41q0 37 -47 37q-9 0 -23 -6v112h-240v43l52 4q22 2 22 22v533q0 20 -22 22l-52 4v43h486v-149h-60l-15 82q-1 7 -6 13t-12 6h-217v-249h150q6 0 12 5.5t6 11.5l10 69h51v-223
h-51l-10 69q0 5 -6.5 11.5t-11.5 6.5h-150v-275h253q6 0 11 6.5t6 12.5l18 99h54v-167h-239v-63q16 4 23 4z" />
    <glyph glyph-name="uni0229" unicode="&#x229;" horiz-adv-x="490" 
d="M289 -59l-1 -1q71 0 71 -71q0 -47 -32 -71t-84 -24q-39 0 -74 10v39q36 -8 61 -8q64 0 64 41q0 37 -46 37q-11 0 -23 -6v103q-124 20 -172 135q-19 45 -19 110q0 89 38 151t103 90q43 18 94 18q91 0 139 -55t48 -150v-13q0 -10 -1 -15h-324q0 -96 41 -154t126 -58
q10 0 20 1t18 2.5t18 5t16 5.5t16.5 7t14.5 7t15 9t13.5 8t14 8.5t12.5 8.5v-61q-70 -43 -140 -57q-27 -5 -50 -5h-1v-51q16 4 24 4zM355 327q0 53 -24.5 85t-72.5 32q-56 0 -87.5 -39.5t-35.5 -99.5h220v22z" />
    <glyph glyph-name="uni022A" unicode="&#x22a;" horiz-adv-x="730" 
d="M576 334l1 -1q0 202 -118 272q-39 24 -91 24q-104 0 -161 -87q-52 -78 -52 -206q0 -201 117 -273q39 -24 92 -24q103 0 160 88q52 80 52 207zM693 334v2q0 -148 -90 -248q-92 -103 -237 -103q-146 0 -237 100q-90 100 -90 252q0 149 89 248q91 102 238 102
q145 0 238 -104q89 -99 89 -249zM263 892q23 0 38.5 -16t15.5 -39t-15.5 -39.5t-38.5 -16.5t-39 16t-16 39t16 39.5t39 16.5zM471 892q22 0 37.5 -16t15.5 -39q0 -24 -15 -40t-38 -16q-24 0 -40 16t-16 40q0 22 16.5 38.5t39.5 16.5zM199 978v63h335v-63h-335z" />
    <glyph glyph-name="uni022B" unicode="&#x22b;" horiz-adv-x="543" 
d="M406 241h-1q0 139 -74 191q-25 17 -58 17q-99 0 -127 -129q-8 -40 -8 -78q0 -138 74 -190q26 -18 60 -18q98 0 126 129q8 40 8 78zM509 240v-2q0 -84 -38 -144t-102 -88q-42 -19 -99 -19q-84 0 -139.5 41.5t-80.5 110.5q-16 45 -16 100q0 85 37.5 145.5t102.5 89.5
q45 20 99 20q84 0 139.5 -42.5t80.5 -112.5q16 -45 16 -99zM168 694q23 0 38.5 -16t15.5 -39t-15.5 -39.5t-38.5 -16.5t-39 16t-16 39t16 39.5t39 16.5zM376 694q22 0 37.5 -16t15.5 -39q0 -24 -15 -40t-38 -16q-24 0 -40 16t-16 40q0 22 16.5 38.5t39.5 16.5zM104 779v63
h335v-63h-335z" />
    <glyph glyph-name="uni022C" unicode="&#x22c;" horiz-adv-x="730" 
d="M576 334l1 -1q0 202 -118 272q-39 24 -91 24q-104 0 -161 -87q-52 -78 -52 -206q0 -201 117 -273q39 -24 92 -24q103 0 160 88q52 80 52 207zM693 334v2q0 -148 -90 -248q-92 -103 -237 -103q-146 0 -237 100q-90 100 -90 252q0 149 89 248q91 102 238 102
q145 0 238 -104q89 -99 89 -249zM447 843l-1 -1q21 0 36 14t17 34h40q-20 -76 -72 -101q-19 -9 -43 -9q-17 0 -31.5 5.5t-30.5 15.5t-24 14q-28 13 -53 13q-20 0 -35 -14.5t-17 -33.5h-40q20 76 72 101q20 9 43 9q17 0 31 -5t31 -16t23 -14q26 -12 54 -12zM198 977v63h335
v-63h-335z" />
    <glyph glyph-name="uni022D" unicode="&#x22d;" horiz-adv-x="543" 
d="M406 241h-1q0 139 -74 191q-25 17 -58 17q-99 0 -127 -129q-8 -40 -8 -78q0 -138 74 -190q26 -18 60 -18q98 0 126 129q8 40 8 78zM509 240v-2q0 -84 -38 -144t-102 -88q-42 -19 -99 -19q-84 0 -139.5 41.5t-80.5 110.5q-16 45 -16 100q0 85 37.5 145.5t102.5 89.5
q45 20 99 20q84 0 139.5 -42.5t80.5 -112.5q16 -45 16 -99zM352 645l-1 -1q21 0 36 14t17 34h40q-20 -76 -72 -101q-19 -9 -43 -9q-17 0 -31.5 5.5t-30.5 15.5t-24 14q-28 13 -53 13q-20 0 -35 -14.5t-17 -33.5h-40q20 76 72 101q19 9 43 9q17 0 31 -5t31 -16t23 -14
q26 -12 54 -12zM103 778v63h335v-63h-335z" />
    <glyph glyph-name="uni022E" unicode="&#x22e;" horiz-adv-x="730" 
d="M576 334l1 -1q0 202 -118 272q-39 24 -91 24q-104 0 -161 -87q-52 -78 -52 -206q0 -201 117 -273q39 -24 92 -24q103 0 160 88q52 80 52 207zM693 334v2q0 -148 -90 -248q-92 -103 -237 -103q-146 0 -237 100q-90 100 -90 252q0 149 89 248q91 102 238 102
q145 0 238 -104q89 -99 89 -249zM367 894q24 0 40 -16t16 -41q0 -24 -16 -40t-40 -16t-40 16t-16 40q0 25 16 41t40 16z" />
    <glyph glyph-name="uni022F" unicode="&#x22f;" horiz-adv-x="543" 
d="M406 241h-1q0 139 -74 191q-25 17 -58 17q-99 0 -127 -129q-8 -40 -8 -78q0 -138 74 -190q26 -18 60 -18q98 0 126 129q8 40 8 78zM509 240v-2q0 -84 -38 -144t-102 -88q-42 -19 -99 -19q-84 0 -139.5 41.5t-80.5 110.5q-16 45 -16 100q0 85 37.5 145.5t102.5 89.5
q45 20 99 20q84 0 139.5 -42.5t80.5 -112.5q16 -45 16 -99zM271 696q24 0 40 -16t16 -41q0 -24 -16 -40t-40 -16t-40 16t-16 40q0 25 16 41t40 16z" />
    <glyph glyph-name="uni0230" unicode="&#x230;" horiz-adv-x="730" 
d="M576 334l1 -1q0 202 -118 272q-39 24 -91 24q-104 0 -161 -87q-52 -78 -52 -206q0 -201 117 -273q39 -24 92 -24q103 0 160 88q52 80 52 207zM693 334v2q0 -148 -90 -248q-92 -103 -237 -103q-146 0 -237 100q-90 100 -90 252q0 149 89 248q91 102 238 102
q145 0 238 -104q89 -99 89 -249zM367 894q24 0 40 -16t16 -41q0 -24 -16 -40t-40 -16t-40 16t-16 40q0 25 16 41t40 16zM199 978v63h335v-63h-335z" />
    </font>
</defs>
</svg>
